<?xml version="1.0" encoding="UTF-8"?>
<svg xmlns="http://www.w3.org/2000/svg" xmlns:xlink="http://www.w3.org/1999/xlink" width="320px" height="320px" viewBox="0 0 320 320" version="1.1">
<g id="surface1">
<path style=" stroke:none;fill-rule:nonzero;fill:rgb(0%,0%,0%);fill-opacity:1;" d="M 21.5 0 C 9.679688 0 0 9.679688 0 21.5 L 0 298.5 C 0 310.320312 9.679688 320 21.5 320 L 298.5 320 C 310.320312 320 320 310.320312 320 298.5 L 320 21.5 C 320 9.679688 310.320312 0 298.5 0 Z M 160 48 C 221.855469 48 272 98.144531 272 160 C 272 221.855469 221.855469 272 160 272 C 98.144531 272 48 221.855469 48 160 C 48 98.144531 98.144531 48 160 48 Z M 160 48 "/>
<path style=" stroke:none;fill-rule:nonzero;fill:rgb(0%,0%,0%);fill-opacity:1;" d="M 256 160 C 256 213.019531 213.019531 256 160 256 C 106.980469 256 64 213.019531 64 160 C 64 106.980469 106.980469 64 160 64 C 213.019531 64 256 106.980469 256 160 Z M 256 160 "/>
</g>
</svg>
