<?xml version="1.0" encoding="UTF-8" standalone="no"?>
<!-- Created with Inkscape (http://www.inkscape.org/) -->

<svg
   xmlns:dc="http://purl.org/dc/elements/1.1/"
   xmlns:cc="http://creativecommons.org/ns#"
   xmlns:rdf="http://www.w3.org/1999/02/22-rdf-syntax-ns#"
   xmlns:svg="http://www.w3.org/2000/svg"
   xmlns="http://www.w3.org/2000/svg"
   xmlns:sodipodi="http://sodipodi.sourceforge.net/DTD/sodipodi-0.dtd"
   xmlns:inkscape="http://www.inkscape.org/namespaces/inkscape"
   width="320"
   height="320"
   viewBox="0 0 320 319.99999"
   id="svg2"
   version="1.1"
   inkscape:version="0.92.4 (5da689c313, 2019-01-14)"
   sodipodi:docname="history.svg"
   inkscape:export-filename="/starcal/pixmaps/history-24.png"
   inkscape:export-xdpi="6.75"
   inkscape:export-ydpi="6.75">
  <defs
     id="defs4" />
  <sodipodi:namedview
     id="base"
     pagecolor="#ffffff"
     bordercolor="#666666"
     borderopacity="1.0"
     inkscape:pageopacity="0.0"
     inkscape:pageshadow="2"
     inkscape:zoom="1.4142136"
     inkscape:cx="-65.161476"
     inkscape:cy="168.4652"
     inkscape:document-units="px"
     inkscape:current-layer="layer1"
     showgrid="false"
     units="px"
     inkscape:window-width="1890"
     inkscape:window-height="1026"
     inkscape:window-x="30"
     inkscape:window-y="0"
     inkscape:window-maximized="1"
     showguides="true"
     inkscape:guide-bbox="true" />
  <metadata
     id="metadata7">
    <rdf:RDF>
      <cc:Work
         rdf:about="">
        <dc:format>image/svg+xml</dc:format>
        <dc:type
           rdf:resource="http://purl.org/dc/dcmitype/StillImage" />
        <dc:title></dc:title>
      </cc:Work>
    </rdf:RDF>
  </metadata>
  <g
     inkscape:label="Layer 1"
     inkscape:groupmode="layer"
     id="layer1"
     transform="translate(0,-732.3622)">
    <rect
       style="opacity:1;fill:#ace1ff;fill-opacity:1;fill-rule:nonzero;stroke:none;stroke-width:18.74200058;stroke-linecap:round;stroke-linejoin:round;stroke-miterlimit:4;stroke-dasharray:none;stroke-dashoffset:0;stroke-opacity:1"
       id="rect3345"
       width="320"
       height="320"
       x="0"
       y="732.36218"
       rx="41.73"
       inkscape:export-xdpi="9"
       inkscape:export-ydpi="9" />
    <path
       id="path4157"
       style="color:#000000;font-style:normal;font-variant:normal;font-weight:normal;font-stretch:normal;font-size:medium;line-height:normal;font-family:sans-serif;font-variant-ligatures:normal;font-variant-position:normal;font-variant-caps:normal;font-variant-numeric:normal;font-variant-alternates:normal;font-feature-settings:normal;text-indent:0;text-align:start;text-decoration:none;text-decoration-line:none;text-decoration-style:solid;text-decoration-color:#000000;letter-spacing:normal;word-spacing:normal;text-transform:none;writing-mode:lr-tb;direction:ltr;text-orientation:mixed;dominant-baseline:auto;baseline-shift:baseline;text-anchor:start;white-space:normal;shape-padding:0;clip-rule:nonzero;display:inline;overflow:visible;visibility:visible;opacity:1;isolation:auto;mix-blend-mode:normal;color-interpolation:sRGB;color-interpolation-filters:linearRGB;solid-color:#000000;solid-opacity:1;vector-effect:none;fill:#000000;fill-opacity:1;fill-rule:evenodd;stroke:none;stroke-width:7.6469779;stroke-linecap:round;stroke-linejoin:round;stroke-miterlimit:4;stroke-dasharray:none;stroke-dashoffset:0;stroke-opacity:1;color-rendering:auto;image-rendering:auto;shape-rendering:auto;text-rendering:auto;enable-background:accumulate"
       d="m 97.759519,764.16761 c -2.109469,-0.0485 -3.859549,1.62084 -3.910652,3.73025 l -1.048001,27.56353 c -0.08197,2.16345 1.646875,3.9634 3.811868,3.96864 l 40.545346,0.11597 c 5.14795,0.0646 5.16973,-7.68298 0.0215,-7.64735 l -36.58531,-0.10303 0.89553,-23.60779 c 0.11118,-2.15165 -1.576324,-3.9703 -3.730263,-4.02017 z m 0.105218,-29.91724 c -32.44305,0 -58.687666,27.19007 -58.687666,60.34128 0,33.15119 26.244616,60.34125 58.687666,60.34125 32.443063,0 58.685533,-27.19006 58.685533,-60.34125 0,-33.15121 -26.24247,-60.34128 -58.685533,-60.34128 z m 0,12.28172 c 25.596593,0 46.403813,21.34309 46.403813,48.05956 0,26.71645 -20.80722,48.05953 -46.403813,48.05953 -25.596577,0 -46.405947,-21.34308 -46.405947,-48.05953 0,-26.71647 20.80937,-48.05956 46.405947,-48.05956 z M 162.471,783.85496 c 0.55256,3.50071 0.85042,7.08623 0.85042,10.73764 0,2.38428 -0.12842,4.73977 -0.36722,7.06323 h 87.24726 V 1020.9189 H 108.87298 V 860.84387 c -3.5802,0.62659 -7.25376,0.97068 -11.008243,0.97068 -2.295109,0 -4.561152,-0.12492 -6.794781,-0.36294 v 168.36889 c 0.0015,4.9152 3.986342,8.899 8.901519,8.8993 H 259.10298 c 4.91433,0 8.89781,-3.985 8.89935,-8.8993 V 792.75431 c -0.002,-4.91435 -3.985,-8.89784 -8.89935,-8.89935 z m -13.06771,52.05826 c -2.70032,3.54436 -5.73515,6.80522 -9.06256,9.73259 h 77.22689 c 2.71345,0.0369 4.9329,-2.15259 4.9329,-4.8663 0,-2.7137 -2.21945,-4.90318 -4.9329,-4.86629 z m -10.53148,36.78697 c -6.5772,-0.0894 -6.5772,9.82201 0,9.73259 h 78.69581 c 2.71345,0.0369 4.9329,-2.15259 4.9329,-4.86629 0,-2.71371 -2.21945,-4.90319 -4.9329,-4.8663 z m 0,36.78696 c -6.57671,-0.0889 -6.57671,9.82151 0,9.7326 h 78.69581 c 2.71331,0.0367 4.93253,-2.15274 4.93253,-4.8663 0,-2.71356 -2.21922,-4.90298 -4.93253,-4.8663 z m 0,36.78697 c -6.57671,-0.0889 -6.57671,9.82151 0,9.7326 h 78.69581 c 2.71331,0.0367 4.93253,-2.15274 4.93253,-4.8663 0,-2.71356 -2.21922,-4.90298 -4.93253,-4.8663 z m 0,36.78698 c -6.5772,-0.0894 -6.5772,9.82201 0,9.73259 h 78.69581 c 2.71345,0.0369 4.9329,-2.15259 4.9329,-4.8663 0,-2.7137 -2.21945,-4.90318 -4.9329,-4.86629 z"
       inkscape:connector-curvature="0"
       sodipodi:nodetypes="ccccccccccsssssssssscscccccscccccccccccscccccscccccscccccscccccscc" />
    <path
       sodipodi:nodetypes="sssss"
       inkscape:connector-curvature="0"
       id="path839"
       d="m -111.35547,751.48047 c -32.92298,0 -59.5332,27.6148 -59.5332,61.13672 0,33.52192 26.61022,61.13672 59.5332,61.13672 32.92298,0 59.53125,-27.6148 59.53125,-61.13672 0,-33.52192 -26.60827,-61.13672 -59.53125,-61.13672 z"
       style="color:#000000;font-style:normal;font-variant:normal;font-weight:normal;font-stretch:normal;font-size:medium;line-height:normal;font-family:sans-serif;font-variant-ligatures:normal;font-variant-position:normal;font-variant-caps:normal;font-variant-numeric:normal;font-variant-alternates:normal;font-feature-settings:normal;text-indent:0;text-align:start;text-decoration:none;text-decoration-line:none;text-decoration-style:solid;text-decoration-color:#000000;letter-spacing:normal;word-spacing:normal;text-transform:none;writing-mode:lr-tb;direction:ltr;text-orientation:mixed;dominant-baseline:auto;baseline-shift:baseline;text-anchor:start;white-space:normal;shape-padding:0;clip-rule:nonzero;display:inline;overflow:visible;visibility:visible;opacity:1;isolation:auto;mix-blend-mode:normal;color-interpolation:sRGB;color-interpolation-filters:linearRGB;solid-color:#000000;solid-opacity:1;vector-effect:none;fill:#ffffff;fill-opacity:1;fill-rule:nonzero;stroke:none;stroke-width:17.14900017;stroke-linecap:round;stroke-linejoin:round;stroke-miterlimit:4;stroke-dasharray:none;stroke-dashoffset:0;stroke-opacity:1;color-rendering:auto;image-rendering:auto;shape-rendering:auto;text-rendering:auto;enable-background:accumulate" />
  </g>
</svg>
