<?xml version="1.0" encoding="UTF-8" standalone="no"?>
<!-- Created with Inkscape (http://www.inkscape.org/) -->

<svg
   xmlns:dc="http://purl.org/dc/elements/1.1/"
   xmlns:cc="http://creativecommons.org/ns#"
   xmlns:rdf="http://www.w3.org/1999/02/22-rdf-syntax-ns#"
   xmlns:svg="http://www.w3.org/2000/svg"
   xmlns="http://www.w3.org/2000/svg"
   xmlns:sodipodi="http://sodipodi.sourceforge.net/DTD/sodipodi-0.dtd"
   xmlns:inkscape="http://www.inkscape.org/namespaces/inkscape"
   width="320"
   height="320"
   viewBox="0 0 320 319.99999"
   id="svg2"
   version="1.1"
   inkscape:version="0.92.4 (5da689c313, 2019-01-14)"
   sodipodi:docname="history.svg"
   inkscape:export-filename="/starcal/pixmaps/history-24.png"
   inkscape:export-xdpi="6.75"
   inkscape:export-ydpi="6.75">
  <defs
     id="defs4" />
  <sodipodi:namedview
     id="base"
     pagecolor="#ffffff"
     bordercolor="#666666"
     borderopacity="1.0"
     inkscape:pageopacity="0.0"
     inkscape:pageshadow="2"
     inkscape:zoom="1.4142136"
     inkscape:cx="186.97074"
     inkscape:cy="157.95015"
     inkscape:document-units="px"
     inkscape:current-layer="layer1"
     showgrid="false"
     units="px"
     inkscape:window-width="1812"
     inkscape:window-height="940"
     inkscape:window-x="30"
     inkscape:window-y="0"
     inkscape:window-maximized="1"
     showguides="true"
     inkscape:guide-bbox="true" />
  <metadata
     id="metadata7">
    <rdf:RDF>
      <cc:Work
         rdf:about="">
        <dc:format>image/svg+xml</dc:format>
        <dc:type
           rdf:resource="http://purl.org/dc/dcmitype/StillImage" />
        <dc:title />
      </cc:Work>
    </rdf:RDF>
  </metadata>
  <g
     inkscape:label="Layer 1"
     inkscape:groupmode="layer"
     id="layer1"
     transform="translate(0,-732.3622)">
    <rect
       style="opacity:1;fill:#fbffc0;fill-opacity:1;fill-rule:nonzero;stroke:none;stroke-width:18.74200058;stroke-linecap:round;stroke-linejoin:round;stroke-miterlimit:4;stroke-dasharray:none;stroke-dashoffset:0;stroke-opacity:1"
       id="rect3345"
       width="320"
       height="320"
       x="0"
       y="732.36218"
       rx="41.73"
       inkscape:export-xdpi="9"
       inkscape:export-ydpi="9" />
    <path
       id="path4157"
       style="color:#000000;font-style:normal;font-variant:normal;font-weight:normal;font-stretch:normal;font-size:medium;line-height:normal;font-family:sans-serif;font-variant-ligatures:normal;font-variant-position:normal;font-variant-caps:normal;font-variant-numeric:normal;font-variant-alternates:normal;font-feature-settings:normal;text-indent:0;text-align:start;text-decoration:none;text-decoration-line:none;text-decoration-style:solid;text-decoration-color:#000000;letter-spacing:normal;word-spacing:normal;text-transform:none;writing-mode:lr-tb;direction:ltr;text-orientation:mixed;dominant-baseline:auto;baseline-shift:baseline;text-anchor:start;white-space:normal;shape-padding:0;clip-rule:nonzero;display:inline;overflow:visible;visibility:visible;opacity:1;isolation:auto;mix-blend-mode:normal;color-interpolation:sRGB;color-interpolation-filters:linearRGB;solid-color:#000000;solid-opacity:1;vector-effect:none;fill:#000000;fill-opacity:1;fill-rule:evenodd;stroke:none;stroke-width:7.34771967;stroke-linecap:round;stroke-linejoin:round;stroke-miterlimit:4;stroke-dasharray:none;stroke-dashoffset:0;stroke-opacity:1;color-rendering:auto;image-rendering:auto;shape-rendering:auto;text-rendering:auto;enable-background:accumulate"
       d="m 100.41669,770.22127 a 3.6742271,3.6742271 0 0 0 -3.757613,3.58427 L 95.65209,800.2904 a 3.6742271,3.6742271 0 0 0 3.662693,3.81333 l 38.958637,0.11143 a 3.6742271,3.6742271 0 1 0 0.0206,-7.34808 l -35.15357,-0.099 0.86048,-22.68391 a 3.6742271,3.6742271 0 0 0 -3.58428,-3.86285 z m 0.1011,-28.74645 c -31.173417,0 -56.390971,26.12601 -56.390971,57.97987 0,31.85385 25.217554,57.97985 56.390971,57.97985 31.17343,0 56.38892,-26.126 56.38892,-57.97985 0,-31.85386 -25.21549,-57.97987 -56.38892,-57.97987 z m 0,11.80109 c 24.59489,0 44.58784,20.50785 44.58784,46.17878 0,25.67092 -19.99295,46.17877 -44.58784,46.17877 -24.594875,0 -44.589888,-20.50785 -44.589888,-46.17877 0,-25.67093 19.995013,-46.17878 44.589888,-46.17878 z m 62.07795,35.86226 c 0.53093,3.36372 0.81714,6.80892 0.81714,10.31744 0,2.29097 -0.12339,4.55428 -0.35285,6.78681 h 72.30252 V 1028.4552 H 111.09523 V 863.11419 c -3.44009,0.60207 -6.96989,0.93269 -10.57744,0.93269 -2.205292,0 -4.382655,-0.12003 -6.528872,-0.34873 v 173.31025 a 8.5537112,8.5537112 0 0 0 8.553162,8.5511 h 141.37363 a 8.5537112,8.5537112 0 0 0 8.55109,-8.5511 V 797.68926 a 8.5537112,8.5537112 0 0 0 -8.55109,-8.55109 z m -12.55632,50.021 c -2.59464,3.40566 -5.51071,6.53891 -8.70791,9.35172 h 62.6743 a 4.6762886,4.6762886 0 1 0 0,-9.35172 z m -10.11934,29.58215 a 4.6762886,4.6762886 0 1 0 0,9.35172 h 64.08573 a 4.6762886,4.6762886 0 1 0 0,-9.35172 z m 0,29.58215 a 4.6762886,4.6762886 0 1 0 0,9.35172 h 64.08573 a 4.6762886,4.6762886 0 1 0 0,-9.35172 z m 0,29.58215 a 4.6762886,4.6762886 0 1 0 0,9.35172 h 64.08573 a 4.6762886,4.6762886 0 1 0 0,-9.35172 z m 0,29.58215 a 4.6762886,4.6762886 0 1 0 0,9.35172 h 64.08573 a 4.6762886,4.6762886 0 1 0 0,-9.35172 z m 0,31.69516 a 4.6762886,4.6762886 0 1 0 0,9.35173 h 64.08573 a 4.6762886,4.6762886 0 1 0 0,-9.35173 z"
       inkscape:connector-curvature="0" />
    <path
       sodipodi:nodetypes="sssss"
       inkscape:connector-curvature="0"
       id="path839"
       d="m -111.35547,751.48047 c -32.92298,0 -59.5332,27.6148 -59.5332,61.13672 0,33.52192 26.61022,61.13672 59.5332,61.13672 32.92298,0 59.53125,-27.6148 59.53125,-61.13672 0,-33.52192 -26.60827,-61.13672 -59.53125,-61.13672 z"
       style="color:#000000;font-style:normal;font-variant:normal;font-weight:normal;font-stretch:normal;font-size:medium;line-height:normal;font-family:sans-serif;font-variant-ligatures:normal;font-variant-position:normal;font-variant-caps:normal;font-variant-numeric:normal;font-variant-alternates:normal;font-feature-settings:normal;text-indent:0;text-align:start;text-decoration:none;text-decoration-line:none;text-decoration-style:solid;text-decoration-color:#000000;letter-spacing:normal;word-spacing:normal;text-transform:none;writing-mode:lr-tb;direction:ltr;text-orientation:mixed;dominant-baseline:auto;baseline-shift:baseline;text-anchor:start;white-space:normal;shape-padding:0;clip-rule:nonzero;display:inline;overflow:visible;visibility:visible;opacity:1;isolation:auto;mix-blend-mode:normal;color-interpolation:sRGB;color-interpolation-filters:linearRGB;solid-color:#000000;solid-opacity:1;vector-effect:none;fill:#ffffff;fill-opacity:1;fill-rule:nonzero;stroke:none;stroke-width:17.14900017;stroke-linecap:round;stroke-linejoin:round;stroke-miterlimit:4;stroke-dasharray:none;stroke-dashoffset:0;stroke-opacity:1;color-rendering:auto;image-rendering:auto;shape-rendering:auto;text-rendering:auto;enable-background:accumulate" />
  </g>
</svg>
