<?xml version="1.0" encoding="UTF-8"?>
<svg xmlns="http://www.w3.org/2000/svg" xmlns:xlink="http://www.w3.org/1999/xlink" width="320px" height="320px" viewBox="0 0 320 320" version="1.1">
<g id="surface1">
<path style=" stroke:none;fill-rule:nonzero;fill:rgb(67.450982%,88.235295%,100%);fill-opacity:1;" d="M 41.730469 0 L 278.269531 0 C 301.316406 0 320 18.683594 320 41.730469 L 320 278.269531 C 320 301.316406 301.316406 320 278.269531 320 L 41.730469 320 C 18.683594 320 0 301.316406 0 278.269531 L 0 41.730469 C 0 18.683594 18.683594 0 41.730469 0 Z M 41.730469 0 "/>
<path style=" stroke:none;fill-rule:evenodd;fill:rgb(0%,0%,0%);fill-opacity:1;" d="M 97.757812 31.804688 C 95.648438 31.757812 93.898438 33.425781 93.847656 35.535156 L 92.800781 63.097656 C 92.71875 65.261719 94.449219 67.0625 96.613281 67.066406 L 137.15625 67.183594 C 142.304688 67.25 142.328125 59.5 137.179688 59.535156 L 100.59375 59.433594 L 101.488281 35.824219 C 101.601562 33.675781 99.914062 31.855469 97.757812 31.804688 Z M 97.863281 1.886719 C 65.421875 1.886719 39.175781 29.078125 39.175781 62.230469 C 39.175781 95.378906 65.421875 122.570312 97.863281 122.570312 C 130.308594 122.570312 156.550781 95.378906 156.550781 62.230469 C 156.550781 29.078125 130.308594 1.886719 97.863281 1.886719 Z M 97.863281 14.167969 C 123.460938 14.167969 144.269531 35.511719 144.269531 62.230469 C 144.269531 88.945312 123.460938 110.289062 97.863281 110.289062 C 72.269531 110.289062 51.457031 88.945312 51.457031 62.230469 C 51.457031 35.511719 72.269531 14.167969 97.863281 14.167969 Z M 162.472656 51.492188 C 163.023438 54.992188 163.320312 58.578125 163.320312 62.230469 C 163.320312 64.613281 163.191406 66.96875 162.953125 69.292969 L 250.203125 69.292969 L 250.203125 288.558594 L 108.871094 288.558594 L 108.871094 128.480469 C 105.292969 129.109375 101.621094 129.453125 97.863281 129.453125 C 95.570312 129.453125 93.304688 129.328125 91.070312 129.089844 L 91.070312 297.457031 C 91.070312 302.375 95.054688 306.355469 99.972656 306.359375 L 259.101562 306.359375 C 264.015625 306.359375 268 302.371094 268.003906 297.457031 L 268.003906 60.390625 C 268 55.476562 264.015625 51.496094 259.101562 51.492188 Z M 149.402344 103.550781 C 146.703125 107.09375 143.667969 110.355469 140.339844 113.285156 L 217.566406 113.285156 C 220.28125 113.320312 222.5 111.132812 222.5 108.417969 C 222.5 105.703125 220.28125 103.515625 217.566406 103.550781 Z M 138.871094 140.339844 C 132.292969 140.25 132.292969 150.160156 138.871094 150.070312 L 217.566406 150.070312 C 220.28125 150.109375 222.5 147.917969 222.5 145.203125 C 222.5 142.492188 220.28125 140.300781 217.566406 140.339844 Z M 138.871094 177.125 C 132.296875 177.035156 132.296875 186.945312 138.871094 186.859375 L 217.566406 186.859375 C 220.28125 186.894531 222.5 184.703125 222.5 181.992188 C 222.5 179.277344 220.28125 177.089844 217.566406 177.125 Z M 138.871094 213.910156 C 132.296875 213.824219 132.296875 223.734375 138.871094 223.644531 L 217.566406 223.644531 C 220.28125 223.679688 222.5 221.492188 222.5 218.777344 C 222.5 216.066406 220.28125 213.875 217.566406 213.910156 Z M 138.871094 250.699219 C 132.292969 250.609375 132.292969 260.519531 138.871094 260.429688 L 217.566406 260.429688 C 220.28125 260.46875 222.5 258.277344 222.5 255.566406 C 222.5 252.851562 220.28125 250.660156 217.566406 250.699219 Z M 138.871094 250.699219 "/>
</g>
</svg>
