<?xml version="1.0" encoding="UTF-8"?>
<svg xmlns="http://www.w3.org/2000/svg" xmlns:xlink="http://www.w3.org/1999/xlink" width="320px" height="320px" viewBox="0 0 320 320" version="1.1">
<defs>
<filter id="alpha" filterUnits="objectBoundingBox" x="0%" y="0%" width="100%" height="100%">
  <feColorMatrix type="matrix" in="SourceGraphic" values="0 0 0 0 1 0 0 0 0 1 0 0 0 0 1 0 0 0 1 0"/>
</filter>
<mask id="mask0">
  <g filter="url(#alpha)">
<rect x="0" y="0" width="320" height="320" style="fill:rgb(0%,0%,0%);fill-opacity:0.7;stroke:none;"/>
  </g>
</mask>
<clipPath id="clip1">
  <rect x="0" y="0" width="320" height="320"/>
</clipPath>
<g id="surface5" clip-path="url(#clip1)">
<path style=" stroke:none;fill-rule:nonzero;fill:rgb(60.000002%,100%,0%);fill-opacity:1;" d="M 11.175781 202.660156 C 3.9375 189.984375 8.351562 173.839844 21.027344 166.605469 C 33.703125 159.371094 49.84375 163.78125 57.082031 176.457031 C 64.316406 189.132812 59.90625 205.277344 47.230469 212.511719 C 34.554688 219.746094 18.410156 215.335938 11.175781 202.660156 Z M 11.175781 202.660156 "/>
</g>
<mask id="mask1">
  <g filter="url(#alpha)">
<rect x="0" y="0" width="320" height="320" style="fill:rgb(0%,0%,0%);fill-opacity:0.7;stroke:none;"/>
  </g>
</mask>
<clipPath id="clip2">
  <rect x="0" y="0" width="320" height="320"/>
</clipPath>
<g id="surface8" clip-path="url(#clip2)">
<path style=" stroke:none;fill-rule:nonzero;fill:rgb(100%,0%,0%);fill-opacity:1;" d="M 315.5 197.78125 C 311.652344 211.863281 297.109375 220.164062 283.023438 216.320312 C 268.957031 212.476562 260.652344 197.929688 264.496094 183.851562 C 268.34375 169.773438 282.890625 161.46875 296.964844 165.308594 C 311.046875 169.167969 319.34375 183.710938 315.5 197.78125 Z M 315.5 197.78125 "/>
</g>
<mask id="mask2">
  <g filter="url(#alpha)">
<rect x="0" y="0" width="320" height="320" style="fill:rgb(0%,0%,0%);fill-opacity:0.7;stroke:none;"/>
  </g>
</mask>
<clipPath id="clip3">
  <rect x="0" y="0" width="320" height="320"/>
</clipPath>
<g id="surface11" clip-path="url(#clip3)">
<path style=" stroke:none;fill-rule:nonzero;fill:rgb(0%,80.000001%,0%);fill-opacity:1;" d="M 59.964844 127.972656 C 56.113281 142.046875 41.574219 150.351562 27.5 146.503906 C 13.417969 142.660156 5.117188 128.113281 8.964844 114.03125 C 12.8125 99.960938 27.351562 91.660156 41.433594 95.5 C 55.511719 99.347656 63.8125 113.894531 59.964844 127.972656 Z M 59.964844 127.972656 "/>
</g>
<mask id="mask3">
  <g filter="url(#alpha)">
<rect x="0" y="0" width="320" height="320" style="fill:rgb(0%,0%,0%);fill-opacity:0.7;stroke:none;"/>
  </g>
</mask>
<clipPath id="clip4">
  <rect x="0" y="0" width="320" height="320"/>
</clipPath>
<g id="surface14" clip-path="url(#clip4)">
<path style=" stroke:none;fill-rule:nonzero;fill:rgb(80.000001%,0%,60.000002%);fill-opacity:1;" d="M 297.050781 147.816406 C 282.933594 151.535156 268.480469 143.09375 264.769531 128.976562 C 261.058594 114.855469 269.5 100.402344 283.617188 96.703125 C 297.742188 92.980469 312.199219 101.417969 315.898438 115.554688 C 319.609375 129.671875 311.167969 144.113281 297.050781 147.816406 Z M 297.050781 147.816406 "/>
</g>
<mask id="mask4">
  <g filter="url(#alpha)">
<rect x="0" y="0" width="320" height="320" style="fill:rgb(0%,0%,0%);fill-opacity:0.7;stroke:none;"/>
  </g>
</mask>
<clipPath id="clip5">
  <rect x="0" y="0" width="320" height="320"/>
</clipPath>
<g id="surface17" clip-path="url(#clip5)">
<path style=" stroke:none;fill-rule:nonzero;fill:rgb(0%,60.000002%,60.000002%);fill-opacity:1;" d="M 87.632812 80.585938 C 77.261719 90.855469 60.527344 90.777344 50.257812 80.394531 C 39.984375 70.019531 40.066406 53.296875 50.425781 43.027344 C 60.808594 32.742188 77.542969 32.832031 87.816406 43.207031 C 98.09375 53.574219 98.007812 70.308594 87.632812 80.585938 Z M 87.632812 80.585938 "/>
</g>
<mask id="mask5">
  <g filter="url(#alpha)">
<rect x="0" y="0" width="320" height="320" style="fill:rgb(0%,0%,0%);fill-opacity:0.7;stroke:none;"/>
  </g>
</mask>
<clipPath id="clip6">
  <rect x="0" y="0" width="320" height="320"/>
</clipPath>
<g id="surface20" clip-path="url(#clip6)">
<path style=" stroke:none;fill-rule:nonzero;fill:rgb(40.000001%,0%,60.000002%);fill-opacity:1;" d="M 274.945312 81.496094 C 264.5625 91.761719 247.839844 91.691406 237.5625 81.3125 C 227.292969 70.945312 227.375 54.203125 237.757812 43.929688 C 248.125 33.664062 264.851562 33.742188 275.121094 44.113281 C 285.410156 54.492188 285.328125 71.230469 274.945312 81.496094 Z M 274.945312 81.496094 "/>
</g>
<mask id="mask6">
  <g filter="url(#alpha)">
<rect x="0" y="0" width="320" height="320" style="fill:rgb(0%,0%,0%);fill-opacity:0.7;stroke:none;"/>
  </g>
</mask>
<clipPath id="clip7">
  <rect x="0" y="0" width="320" height="320"/>
</clipPath>
<g id="surface23" clip-path="url(#clip7)">
<path style=" stroke:none;fill-rule:nonzero;fill:rgb(0%,20%,80.000001%);fill-opacity:1;" d="M 105.632812 40.910156 C 98.394531 28.234375 102.808594 12.089844 115.484375 4.851562 C 128.164062 -2.386719 144.308594 2.023438 151.546875 14.703125 C 158.785156 27.382812 154.371094 43.527344 141.695312 50.765625 C 129.015625 58.003906 112.871094 53.589844 105.632812 40.910156 Z M 105.632812 40.910156 "/>
</g>
<mask id="mask7">
  <g filter="url(#alpha)">
<rect x="0" y="0" width="320" height="320" style="fill:rgb(0%,0%,0%);fill-opacity:0.7;stroke:none;"/>
  </g>
</mask>
<clipPath id="clip8">
  <rect x="0" y="0" width="320" height="320"/>
</clipPath>
<g id="surface26" clip-path="url(#clip8)">
<path style=" stroke:none;fill-rule:nonzero;fill:rgb(20%,0%,60.000002%);fill-opacity:1;" d="M 222.648438 35.113281 C 218.800781 49.191406 204.253906 57.488281 190.175781 53.648438 C 176.101562 49.800781 167.796875 35.253906 171.640625 21.175781 C 175.492188 7.101562 190.035156 -1.203125 204.113281 2.640625 C 218.1875 6.492188 226.492188 21.035156 222.648438 35.113281 Z M 222.648438 35.113281 "/>
</g>
<mask id="mask8">
  <g filter="url(#alpha)">
<rect x="0" y="0" width="320" height="320" style="fill:rgb(0%,0%,0%);fill-opacity:0.377049;stroke:none;"/>
  </g>
</mask>
<radialGradient id="radial0" gradientUnits="userSpaceOnUse" cx="29.962149" cy="131.467682" fx="29.962149" fy="131.467682" r="27.01967" gradientTransform="matrix(0.709744,-0.0162743,0.00367608,0.160321,7.971984,102.5261)">
<stop offset="0" style="stop-color:rgb(100%,100%,100%);stop-opacity:1;"/>
<stop offset="1" style="stop-color:rgb(100%,100%,100%);stop-opacity:0;"/>
</radialGradient>
<radialGradient id="radial1" gradientUnits="userSpaceOnUse" cx="27.565985" cy="130.942688" fx="27.565985" fy="130.942688" r="27.01967" gradientTransform="matrix(1,0,0,0.280337,0,85.278809)">
<stop offset="0" style="stop-color:rgb(0%,0%,0%);stop-opacity:1;"/>
<stop offset="1" style="stop-color:rgb(0%,0%,0%);stop-opacity:0;"/>
</radialGradient>
<clipPath id="clip9">
  <rect x="0" y="0" width="320" height="320"/>
</clipPath>
<g id="surface34" clip-path="url(#clip9)">
<path style="fill-rule:evenodd;fill:url(#radial0);stroke-width:2.152;stroke-linecap:butt;stroke-linejoin:miter;stroke:url(#radial1);stroke-miterlimit:4;" d="M 15.373438 125.69375 C 22.221875 125.75 27.996875 124.989063 29.40625 125.023438 C 38.732813 125.254688 61.076563 120.926563 52.140625 115.60625 C 42.378125 109.795313 15.545313 109.951563 5.096875 115.554688 C -6.304688 121.670313 8.526563 125.639063 15.373438 125.69375 Z M 15.373438 125.69375 " transform="matrix(2.5,0,0,2.5,0,0)"/>
</g>
<mask id="mask9">
  <g filter="url(#alpha)">
<rect x="0" y="0" width="320" height="320" style="fill:rgb(0%,0%,0%);fill-opacity:0.364754;stroke:none;"/>
  </g>
</mask>
<radialGradient id="radial2" gradientUnits="userSpaceOnUse" cx="63.84724" cy="121.470169" fx="95.480644" fy="121.470169" r="63.84724" gradientTransform="matrix(2.5,0,0,0.255683,0,272.617741)">
<stop offset="0" style="stop-color:rgb(0%,0%,0%);stop-opacity:1;"/>
<stop offset="1" style="stop-color:rgb(0%,0%,0%);stop-opacity:0;"/>
</radialGradient>
<clipPath id="clip10">
  <rect x="0" y="0" width="320" height="320"/>
</clipPath>
<g id="surface37" clip-path="url(#clip10)">
<path style=" stroke:none;fill-rule:nonzero;fill:url(#radial2);" d="M 319.234375 303.675781 C 319.234375 312.691406 247.773438 320 159.617188 320 C 71.464844 320 0 312.691406 0 303.675781 C 0 294.660156 71.464844 287.351562 159.617188 287.351562 C 247.773438 287.351562 319.234375 294.660156 319.234375 303.675781 Z M 319.234375 303.675781 "/>
</g>
<mask id="mask10">
  <g filter="url(#alpha)">
<rect x="0" y="0" width="320" height="320" style="fill:rgb(0%,0%,0%);fill-opacity:0.25;stroke:none;"/>
  </g>
</mask>
<clipPath id="clip11">
  <rect x="0" y="0" width="320" height="320"/>
</clipPath>
<g id="surface44" clip-path="url(#clip11)">
<path style="fill:none;stroke-width:2.977468;stroke-linecap:round;stroke-linejoin:round;stroke:rgb(0%,0%,0%);stroke-opacity:0.333333;stroke-miterlimit:4;" d="M 86.082813 14.267188 C 90.982813 22.989063 116.607813 68.614063 121.50625 77.335938 C 126.404688 86.057813 115.660938 101.332813 97.51875 111.434375 C 79.376563 121.5375 60.68125 122.654688 55.782813 113.93125 C 50.884375 105.209375 25.259375 59.585938 20.359375 50.864063 C 15.460938 42.142188 26.204688 26.867188 44.346875 16.765625 C 62.489063 6.6625 81.184375 5.545313 86.082813 14.267188 Z M 86.082813 14.267188 " transform="matrix(2.5,0,0,2.5,0,0)"/>
</g>
<mask id="mask11">
  <g filter="url(#alpha)">
<rect x="0" y="0" width="320" height="320" style="fill:rgb(0%,0%,0%);fill-opacity:0.3;stroke:none;"/>
  </g>
</mask>
<clipPath id="clip12">
  <rect x="0" y="0" width="320" height="320"/>
</clipPath>
<g id="surface47" clip-path="url(#clip12)">
<path style="fill:none;stroke-width:1.984979;stroke-linecap:round;stroke-linejoin:round;stroke:rgb(0%,0%,0%);stroke-opacity:0.333333;stroke-miterlimit:4;" d="M 86.082813 14.267188 C 90.982813 22.989063 116.607813 68.614063 121.50625 77.335938 C 126.404688 86.057813 115.660938 101.332813 97.51875 111.434375 C 79.376563 121.5375 60.68125 122.654688 55.782813 113.93125 C 50.884375 105.209375 25.259375 59.585938 20.359375 50.864063 C 15.460938 42.142188 26.204688 26.867188 44.346875 16.765625 C 62.489063 6.6625 81.184375 5.545313 86.082813 14.267188 Z M 86.082813 14.267188 " transform="matrix(2.5,0,0,2.5,0,0)"/>
</g>
<linearGradient id="linear0" gradientUnits="userSpaceOnUse" x1="-70.057068" y1="95.781326" x2="-27.8897" y2="66.671455" gradientTransform="matrix(2.823805,0.211942,0.13273,3.01662,375.091743,-26.133299)">
<stop offset="0" style="stop-color:rgb(100%,100%,100%);stop-opacity:1;"/>
<stop offset="0.425971" style="stop-color:rgb(100%,100%,100%);stop-opacity:1;"/>
<stop offset="0.589278" style="stop-color:rgb(94.509804%,94.509804%,94.509804%);stop-opacity:1;"/>
<stop offset="0.802198" style="stop-color:rgb(91.764706%,91.764706%,91.764706%);stop-opacity:1;"/>
<stop offset="1" style="stop-color:rgb(87.450981%,87.450981%,87.450981%);stop-opacity:1;"/>
</linearGradient>
<mask id="mask12">
  <g filter="url(#alpha)">
<rect x="0" y="0" width="320" height="320" style="fill:rgb(0%,0%,0%);fill-opacity:0.405738;stroke:none;"/>
  </g>
</mask>
<radialGradient id="radial3" gradientUnits="userSpaceOnUse" cx="70.623695" cy="53.380299" fx="70.964447" fy="76.702087" r="53.565186" gradientTransform="matrix(2.815922,-1.445013,1.766717,3.345647,-140.4424,34.2769)">
<stop offset="0" style="stop-color:rgb(100%,100%,100%);stop-opacity:0;"/>
<stop offset="0.5" style="stop-color:rgb(49.803922%,49.803922%,49.803922%);stop-opacity:0;"/>
<stop offset="1" style="stop-color:rgb(0%,0%,0%);stop-opacity:1;"/>
</radialGradient>
<clipPath id="clip13">
  <rect x="0" y="0" width="320" height="320"/>
</clipPath>
<g id="surface50" clip-path="url(#clip13)">
<path style=" stroke:none;fill-rule:nonzero;fill:url(#radial3);" d="M 215.195312 34.902344 C 227.445312 56.707031 291.507812 170.765625 303.753906 192.570312 C 316 214.375 289.140625 252.5625 243.785156 277.816406 C 198.429688 303.074219 151.691406 305.867188 139.445312 284.0625 C 127.199219 262.257812 63.136719 148.199219 50.886719 126.390625 C 38.640625 104.585938 65.5 66.398438 110.855469 41.144531 C 156.210938 15.890625 202.949219 13.09375 215.195312 34.902344 Z M 215.195312 34.902344 "/>
</g>
<linearGradient id="linear1" gradientUnits="userSpaceOnUse" x1="-116.787453" y1="116.558563" x2="-84.77729" y2="93.56797" gradientTransform="matrix(2.823805,0.211942,0.13273,3.01662,375.091743,-26.133299)">
<stop offset="0" style="stop-color:rgb(0%,0%,0%);stop-opacity:1;"/>
<stop offset="1" style="stop-color:rgb(0%,0%,0%);stop-opacity:0;"/>
</linearGradient>
<mask id="mask13">
  <g filter="url(#alpha)">
<rect x="0" y="0" width="320" height="320" style="fill:rgb(0%,0%,0%);fill-opacity:0.4;stroke:none;"/>
  </g>
</mask>
<linearGradient id="linear2" gradientUnits="userSpaceOnUse" x1="-146.751709" y1="74.959991" x2="-123.666527" y2="73.415115" gradientTransform="matrix(2.45297,-1.365878,0.929045,1.654093,380.699501,-159.8522)">
<stop offset="0" style="stop-color:rgb(0%,0%,0%);stop-opacity:1;"/>
<stop offset="0.406593" style="stop-color:rgb(0%,0%,0%);stop-opacity:0.682353;"/>
<stop offset="0.453297" style="stop-color:rgb(0%,0%,0%);stop-opacity:0.487365;"/>
<stop offset="0.5" style="stop-color:rgb(0%,0%,0%);stop-opacity:0.361011;"/>
<stop offset="0.706044" style="stop-color:rgb(0%,0%,0%);stop-opacity:0.151625;"/>
<stop offset="1" style="stop-color:rgb(0%,0%,0%);stop-opacity:0;"/>
</linearGradient>
<clipPath id="clip14">
  <rect x="0" y="0" width="320" height="320"/>
</clipPath>
<g id="surface53" clip-path="url(#clip14)">
<path style=" stroke:none;fill-rule:nonzero;fill:url(#linear2);" d="M 218.339844 34.738281 C 230.609375 56.554688 203.757812 94.734375 158.367188 120.007812 C 112.980469 145.28125 66.253906 148.074219 54.011719 126.242188 C 41.738281 104.429688 68.59375 66.25 113.980469 40.976562 C 159.371094 15.703125 206.097656 12.910156 218.339844 34.738281 Z M 218.339844 34.738281 "/>
</g>
<mask id="mask14">
  <g filter="url(#alpha)">
<rect x="0" y="0" width="320" height="320" style="fill:rgb(0%,0%,0%);fill-opacity:0.4;stroke:none;"/>
  </g>
</mask>
<linearGradient id="linear3" gradientUnits="userSpaceOnUse" x1="-82.509743" y1="64.065186" x2="-118.914757" y2="63.447075" gradientTransform="matrix(2.45297,-1.365878,0.929045,1.654093,378.292503,-160.111847)">
<stop offset="0" style="stop-color:rgb(0%,0%,0%);stop-opacity:1;"/>
<stop offset="0.406593" style="stop-color:rgb(0%,0%,0%);stop-opacity:0.682353;"/>
<stop offset="0.453297" style="stop-color:rgb(0%,0%,0%);stop-opacity:0.487365;"/>
<stop offset="0.5" style="stop-color:rgb(0%,0%,0%);stop-opacity:0.361011;"/>
<stop offset="0.706044" style="stop-color:rgb(0%,0%,0%);stop-opacity:0.151625;"/>
<stop offset="1" style="stop-color:rgb(0%,0%,0%);stop-opacity:0;"/>
</linearGradient>
<clipPath id="clip15">
  <rect x="0" y="0" width="320" height="320"/>
</clipPath>
<g id="surface56" clip-path="url(#clip15)">
<path style=" stroke:none;fill-rule:nonzero;fill:url(#linear3);" d="M 215.933594 34.480469 C 228.203125 56.292969 201.351562 94.472656 155.960938 119.746094 C 110.574219 145.019531 63.84375 147.8125 51.601562 125.984375 C 39.332031 104.171875 66.1875 65.992188 111.574219 40.71875 C 156.960938 15.445312 203.691406 12.652344 215.933594 34.480469 Z M 215.933594 34.480469 "/>
</g>
<mask id="mask15">
  <g filter="url(#alpha)">
<rect x="0" y="0" width="320" height="320" style="fill:rgb(0%,0%,0%);fill-opacity:0.4;stroke:none;"/>
  </g>
</mask>
<linearGradient id="linear4" gradientUnits="userSpaceOnUse" x1="-113.643501" y1="78.293831" x2="-118.300194" y2="33.764427" gradientTransform="matrix(2.45297,-1.365878,0.929045,1.654093,378.292503,-160.111847)">
<stop offset="0" style="stop-color:rgb(0%,0%,0%);stop-opacity:1;"/>
<stop offset="1" style="stop-color:rgb(0%,0%,0%);stop-opacity:0;"/>
</linearGradient>
<clipPath id="clip16">
  <rect x="0" y="0" width="320" height="320"/>
</clipPath>
<g id="surface59" clip-path="url(#clip16)">
<path style=" stroke:none;fill-rule:nonzero;fill:url(#linear4);" d="M 215.933594 34.480469 C 228.203125 56.292969 201.351562 94.472656 155.960938 119.746094 C 110.574219 145.019531 63.84375 147.8125 51.601562 125.984375 C 39.332031 104.171875 66.1875 65.992188 111.574219 40.71875 C 156.960938 15.445312 203.691406 12.652344 215.933594 34.480469 Z M 215.933594 34.480469 "/>
</g>
<mask id="mask16">
  <g filter="url(#alpha)">
<rect x="0" y="0" width="320" height="320" style="fill:rgb(0%,0%,0%);fill-opacity:0.4;stroke:none;"/>
  </g>
</mask>
<clipPath id="clip17">
  <rect x="0" y="0" width="320" height="320"/>
</clipPath>
<g id="surface62" clip-path="url(#clip17)">
<path style=" stroke:none;fill-rule:nonzero;fill:rgb(72.941178%,74.117649%,71.372551%);fill-opacity:1;" d="M 191.800781 23.613281 C 171.128906 21.332031 142.210938 28.355469 113.863281 44.140625 C 68.507812 69.394531 41.628906 107.621094 53.875 129.425781 C 54.792969 131.0625 55.953125 132.507812 57.246094 133.867188 C 56.574219 133.003906 55.941406 132.152344 55.402344 131.191406 C 43.15625 109.386719 70.035156 71.160156 115.390625 45.902344 C 157.324219 22.554688 200.433594 18.402344 216.382812 35.140625 C 211.34375 28.65625 202.730469 24.824219 191.800781 23.613281 Z M 191.800781 23.613281 "/>
</g>
<linearGradient id="linear5" gradientUnits="userSpaceOnUse" x1="106.273903" y1="52.468563" x2="79.54409" y2="69.991898" spreadMethod="reflect" gradientTransform="matrix(2.403647,-0.109165,-0.013795,2.80263,20.03917,-7.467548)">
<stop offset="0" style="stop-color:rgb(60.392159%,46.27451%,0%);stop-opacity:1;"/>
<stop offset="0.0929204" style="stop-color:rgb(89.019608%,67.843139%,0%);stop-opacity:1;"/>
<stop offset="0.504317" style="stop-color:rgb(100%,80.392158%,17.254902%);stop-opacity:1;"/>
<stop offset="0.915714" style="stop-color:rgb(89.019608%,67.843139%,0%);stop-opacity:1;"/>
<stop offset="1" style="stop-color:rgb(72.549021%,55.29412%,0%);stop-opacity:1;"/>
</linearGradient>
<radialGradient id="radial4" gradientUnits="userSpaceOnUse" cx="104.660477" cy="65.847801" fx="115.7285" fy="56.281128" r="29.998838" gradientTransform="matrix(1.133882,-0.653218,2.580225,4.47886,-50.527148,-60.709548)">
<stop offset="0" style="stop-color:rgb(100%,100%,100%);stop-opacity:1;"/>
<stop offset="1" style="stop-color:rgb(100%,100%,100%);stop-opacity:0;"/>
</radialGradient>
<mask id="mask17">
  <g filter="url(#alpha)">
<rect x="0" y="0" width="320" height="320" style="fill:rgb(0%,0%,0%);fill-opacity:0.782787;stroke:none;"/>
  </g>
</mask>
<linearGradient id="linear6" gradientUnits="userSpaceOnUse" x1="87.068436" y1="146.894714" x2="105.055992" y2="58.65321" gradientTransform="matrix(2.406937,0.259738,0.0386975,2.56198,2.953472,-6.496108)">
<stop offset="0" style="stop-color:rgb(22.352941%,22.745098%,21.960784%);stop-opacity:1;"/>
<stop offset="1" style="stop-color:rgb(22.352941%,22.745098%,21.960784%);stop-opacity:0;"/>
</linearGradient>
<clipPath id="clip18">
  <rect x="0" y="0" width="320" height="320"/>
</clipPath>
<g id="surface65" clip-path="url(#clip18)">
<path style=" stroke:none;fill-rule:nonzero;fill:url(#linear6);" d="M 300.066406 188.015625 C 300.808594 189.332031 303.480469 194.027344 304.023438 194.996094 C 316.121094 216.539062 289.628906 254.246094 244.820312 279.195312 C 200.015625 304.144531 153.882812 306.925781 141.78125 285.386719 C 141.128906 284.222656 138.003906 278.625 137.066406 276.957031 C 137.378906 280.371094 138.277344 283.53125 139.917969 286.453125 C 146.1875 297.613281 161.324219 302.417969 180.367188 301.277344 C 199.40625 300.136719 222.523438 293.070312 245.222656 280.433594 C 267.921875 267.792969 286.039062 251.976562 296.984375 236.421875 C 307.925781 220.867188 311.652344 205.519531 305.386719 194.355469 C 304.019531 191.921875 302.222656 189.84375 300.066406 188.015625 Z M 300.066406 188.015625 "/>
</g>
<mask id="mask18">
  <g filter="url(#alpha)">
<rect x="0" y="0" width="320" height="320" style="fill:rgb(0%,0%,0%);fill-opacity:0.782787;stroke:none;"/>
  </g>
</mask>
<linearGradient id="linear7" gradientUnits="userSpaceOnUse" x1="95.84687" y1="117.205688" x2="76.361786" y2="88.409065" gradientTransform="matrix(2.406937,0.259738,0.0386975,2.56198,2.953472,-6.496108)">
<stop offset="0" style="stop-color:rgb(22.352941%,22.745098%,21.960784%);stop-opacity:1;"/>
<stop offset="1" style="stop-color:rgb(22.352941%,22.745098%,21.960784%);stop-opacity:0;"/>
</linearGradient>
<clipPath id="clip19">
  <rect x="0" y="0" width="320" height="320"/>
</clipPath>
<g id="surface68" clip-path="url(#clip19)">
<path style=" stroke:none;fill-rule:nonzero;fill:url(#linear7);" d="M 298.949219 186.730469 C 299.691406 188.046875 302.363281 192.742188 302.90625 193.707031 C 315.007812 215.25 288.511719 252.960938 243.703125 277.910156 C 198.898438 302.859375 152.765625 305.640625 140.667969 284.097656 C 140.011719 282.933594 136.890625 277.335938 135.953125 275.667969 C 136.261719 279.085938 137.164062 282.246094 138.804688 285.164062 C 145.070312 296.328125 160.210938 301.128906 179.25 299.988281 C 198.289062 298.847656 221.410156 291.785156 244.105469 279.144531 C 266.804688 266.507812 284.925781 250.691406 295.867188 235.136719 C 306.808594 219.582031 310.539062 204.230469 304.269531 193.070312 C 302.902344 190.636719 301.105469 188.558594 298.949219 186.730469 Z M 298.949219 186.730469 "/>
</g>
<mask id="mask19">
  <g filter="url(#alpha)">
<rect x="0" y="0" width="320" height="320" style="fill:rgb(0%,0%,0%);fill-opacity:0.885246;stroke:none;"/>
  </g>
</mask>
<linearGradient id="linear8" gradientUnits="userSpaceOnUse" x1="23.02284" y1="104.749062" x2="22.669342" y2="135.736191" >
<stop offset="0" style="stop-color:rgb(0%,0%,0%);stop-opacity:1;"/>
<stop offset="1" style="stop-color:rgb(0%,0%,0%);stop-opacity:0;"/>
</linearGradient>
<clipPath id="clip20">
  <rect x="0" y="0" width="320" height="320"/>
</clipPath>
<g id="surface71" clip-path="url(#clip20)">
<path style="fill:none;stroke-width:0.077;stroke-linecap:butt;stroke-linejoin:miter;stroke:url(#linear8);stroke-miterlimit:4;" d="M 15.321875 126.053125 C 22.170313 126.107813 27.970313 125.309375 29.379688 125.357813 C 38.792188 125.673438 61.865625 121.203125 52.396875 115.35 C 42.732813 109.376563 15.545313 109.4375 4.7375 115.35 C -6.6125 121.559375 8.475 125.998438 15.321875 126.053125 Z M 15.321875 126.053125 " transform="matrix(2.5,0,0,2.5,0,0)"/>
</g>
<mask id="mask20">
  <g filter="url(#alpha)">
<rect x="0" y="0" width="320" height="320" style="fill:rgb(0%,0%,0%);fill-opacity:0.438525;stroke:none;"/>
  </g>
</mask>
<linearGradient id="linear9" gradientUnits="userSpaceOnUse" x1="98.669891" y1="112.101433" x2="74.325119" y2="85.423767" gradientTransform="matrix(2.5,0,0,2.5,0,13.338833)">
<stop offset="0" style="stop-color:rgb(0%,0%,0%);stop-opacity:0.447653;"/>
<stop offset="0.5" style="stop-color:rgb(0%,0%,0%);stop-opacity:0.133574;"/>
<stop offset="1" style="stop-color:rgb(0%,0%,0%);stop-opacity:0;"/>
</linearGradient>
<clipPath id="clip21">
  <rect x="0" y="0" width="320" height="320"/>
</clipPath>
<g id="surface74" clip-path="url(#clip21)">
<path style=" stroke:none;fill-rule:nonzero;fill:url(#linear9);" d="M 210.777344 274.785156 C 247.90625 258.105469 291.59375 219.136719 298.679688 193.265625 C 255.03125 117.667969 172.597656 208.949219 210.777344 274.785156 Z M 210.777344 274.785156 "/>
</g>
<radialGradient id="radial5" gradientUnits="userSpaceOnUse" cx="-16.60284" cy="73.863823" fx="-16.60284" fy="73.863823" r="4.390625" gradientTransform="matrix(2.406937,0.259738,0.263535,17.447197,82.576952,-1083.49678)">
<stop offset="0" style="stop-color:rgb(100%,100%,100%);stop-opacity:1;"/>
<stop offset="1" style="stop-color:rgb(100%,100%,100%);stop-opacity:0;"/>
</radialGradient>
<linearGradient id="linear10" gradientUnits="userSpaceOnUse" x1="78.569206" y1="22.051414" x2="41.437614" y2="59.81057" gradientTransform="matrix(2.5,0,0,2.5,0,0)">
<stop offset="0" style="stop-color:rgb(0%,0%,0%);stop-opacity:1;"/>
<stop offset="1" style="stop-color:rgb(0%,0%,0%);stop-opacity:0;"/>
</linearGradient>
<mask id="mask21">
  <g filter="url(#alpha)">
<rect x="0" y="0" width="320" height="320" style="fill:rgb(0%,0%,0%);fill-opacity:0.627049;stroke:none;"/>
  </g>
</mask>
<linearGradient id="linear11" gradientUnits="userSpaceOnUse" x1="23.02284" y1="104.749062" x2="22.669342" y2="135.736191" >
<stop offset="0" style="stop-color:rgb(0%,0%,0%);stop-opacity:1;"/>
<stop offset="1" style="stop-color:rgb(0%,0%,0%);stop-opacity:0;"/>
</linearGradient>
<clipPath id="clip22">
  <rect x="0" y="0" width="320" height="320"/>
</clipPath>
<g id="surface77" clip-path="url(#clip22)">
<path style="fill:none;stroke-width:0.277;stroke-linecap:butt;stroke-linejoin:miter;stroke:url(#linear11);stroke-miterlimit:4;" d="M 15.321875 126.053125 C 22.170313 126.107813 27.970313 125.309375 29.379688 125.357813 C 38.792188 125.673438 61.789062 121.279688 52.320312 115.426563 C 42.65625 109.453125 15.596875 109.528125 4.789062 115.439063 C -6.560938 121.648438 8.475 125.998438 15.321875 126.053125 Z M 15.321875 126.053125 " transform="matrix(2.5,0,0,2.5,0,0)"/>
</g>
<mask id="mask22">
  <g filter="url(#alpha)">
<rect x="0" y="0" width="320" height="320" style="fill:rgb(0%,0%,0%);fill-opacity:0.245902;stroke:none;"/>
  </g>
</mask>
<linearGradient id="linear12" gradientUnits="userSpaceOnUse" x1="23.02284" y1="104.749062" x2="22.669342" y2="135.736191" >
<stop offset="0" style="stop-color:rgb(0%,0%,0%);stop-opacity:1;"/>
<stop offset="1" style="stop-color:rgb(0%,0%,0%);stop-opacity:0;"/>
</linearGradient>
<clipPath id="clip23">
  <rect x="0" y="0" width="320" height="320"/>
</clipPath>
<g id="surface80" clip-path="url(#clip23)">
<path style="fill:none;stroke-width:0.977;stroke-linecap:butt;stroke-linejoin:miter;stroke:url(#linear12);stroke-miterlimit:4;" d="M 15.321875 126.053125 C 22.170313 126.107813 27.970313 125.309375 29.379688 125.357813 C 38.792188 125.673438 61.614063 121.546875 52.121875 115.735938 C 42.485938 109.8375 15.74375 109.914062 4.898438 115.729688 C -6.504688 121.845313 8.475 125.998438 15.321875 126.053125 Z M 15.321875 126.053125 " transform="matrix(2.5,0,0,2.5,0,0)"/>
</g>
<mask id="mask23">
  <g filter="url(#alpha)">
<rect x="0" y="0" width="320" height="320" style="fill:rgb(0%,0%,0%);fill-opacity:0.819672;stroke:none;"/>
  </g>
</mask>
<linearGradient id="linear13" gradientUnits="userSpaceOnUse" x1="24.650917" y1="111.041267" x2="24.945656" y2="122.542122" gradientTransform="matrix(2.5,0,0,2.5,0,0)">
<stop offset="0" style="stop-color:rgb(100%,100%,100%);stop-opacity:1;"/>
<stop offset="1" style="stop-color:rgb(100%,100%,100%);stop-opacity:0;"/>
</linearGradient>
<clipPath id="clip24">
  <rect x="0" y="0" width="320" height="320"/>
</clipPath>
<g id="surface83" clip-path="url(#clip24)">
<path style=" stroke:none;fill-rule:nonzero;fill:url(#linear13);" d="M 80.925781 277.757812 C 61.152344 277.011719 40.253906 278.980469 24.964844 283.496094 C 17.128906 290.644531 46.359375 297.601562 67.871094 298.132812 C 92.332031 298.734375 120.019531 291.738281 115.160156 282.410156 C 105.296875 279.789062 93.375 278.226562 80.925781 277.757812 Z M 80.925781 277.757812 "/>
</g>
<mask id="mask24">
  <g filter="url(#alpha)">
<rect x="0" y="0" width="320" height="320" style="fill:rgb(0%,0%,0%);fill-opacity:0.70082;stroke:none;"/>
  </g>
</mask>
<radialGradient id="radial6" gradientUnits="userSpaceOnUse" cx="29.962149" cy="131.467682" fx="29.962149" fy="131.467682" r="27.01967" gradientTransform="matrix(0.709744,-0.0162743,0.00367608,0.160321,7.971984,102.5261)">
<stop offset="0" style="stop-color:rgb(100%,100%,100%);stop-opacity:1;"/>
<stop offset="1" style="stop-color:rgb(100%,100%,100%);stop-opacity:0;"/>
</radialGradient>
<radialGradient id="radial7" gradientUnits="userSpaceOnUse" cx="27.565985" cy="130.942688" fx="27.565985" fy="130.942688" r="27.01967" gradientTransform="matrix(1,0,0,0.280337,0,85.278809)">
<stop offset="0" style="stop-color:rgb(0%,0%,0%);stop-opacity:1;"/>
<stop offset="1" style="stop-color:rgb(0%,0%,0%);stop-opacity:0;"/>
</radialGradient>
<clipPath id="clip25">
  <rect x="0" y="0" width="320" height="320"/>
</clipPath>
<g id="surface86" clip-path="url(#clip25)">
<path style="fill-rule:evenodd;fill:url(#radial6);stroke-width:0.752087;stroke-linecap:butt;stroke-linejoin:miter;stroke:url(#radial7);stroke-miterlimit:4;" d="M 15.373438 125.69375 C 22.221875 125.75 27.996875 124.989063 29.40625 125.023438 C 38.732813 125.254688 61.076563 120.926563 52.140625 115.60625 C 42.378125 109.795313 15.545313 109.951563 5.096875 115.554688 C -6.304688 121.670313 8.526563 125.639063 15.373438 125.69375 Z M 15.373438 125.69375 " transform="matrix(2.5,0,0,2.5,0,0)"/>
</g>
</defs>
<g id="surface1">
<use xlink:href="#surface5" mask="url(#mask0)"/>
<use xlink:href="#surface8" mask="url(#mask1)"/>
<use xlink:href="#surface11" mask="url(#mask2)"/>
<use xlink:href="#surface14" mask="url(#mask3)"/>
<use xlink:href="#surface17" mask="url(#mask4)"/>
<use xlink:href="#surface20" mask="url(#mask5)"/>
<use xlink:href="#surface23" mask="url(#mask6)"/>
<use xlink:href="#surface26" mask="url(#mask7)"/>
<use xlink:href="#surface34" mask="url(#mask8)"/>
<use xlink:href="#surface37" mask="url(#mask9)"/>
<use xlink:href="#surface44" mask="url(#mask10)"/>
<use xlink:href="#surface47" mask="url(#mask11)"/>
<path style=" stroke:none;fill-rule:nonzero;fill:url(#linear0);" d="M 215.195312 34.902344 C 227.445312 56.707031 291.507812 170.765625 303.753906 192.570312 C 316 214.375 289.140625 252.5625 243.785156 277.816406 C 198.429688 303.074219 151.691406 305.867188 139.445312 284.0625 C 127.199219 262.257812 63.136719 148.199219 50.886719 126.390625 C 38.640625 104.585938 65.5 66.398438 110.855469 41.144531 C 156.210938 15.890625 202.949219 13.09375 215.195312 34.902344 Z M 215.195312 34.902344 "/>
<use xlink:href="#surface50" mask="url(#mask12)"/>
<path style=" stroke:none;fill-rule:nonzero;fill:url(#linear1);" d="M 215.195312 34.902344 C 227.445312 56.707031 291.507812 170.765625 303.753906 192.570312 C 316 214.375 289.140625 252.5625 243.785156 277.816406 C 198.429688 303.074219 151.691406 305.867188 139.445312 284.0625 C 127.199219 262.257812 63.136719 148.199219 50.886719 126.390625 C 38.640625 104.585938 65.5 66.398438 110.855469 41.144531 C 156.210938 15.890625 202.949219 13.09375 215.195312 34.902344 Z M 215.195312 34.902344 "/>
<use xlink:href="#surface53" mask="url(#mask13)"/>
<use xlink:href="#surface56" mask="url(#mask14)"/>
<use xlink:href="#surface59" mask="url(#mask15)"/>
<path style=" stroke:none;fill-rule:nonzero;fill:rgb(79.215688%,79.215688%,79.215688%);fill-opacity:1;" d="M 215.4375 35.359375 C 216.1875 36.695312 218.894531 41.449219 219.441406 42.425781 C 231.691406 64.230469 204.871094 102.402344 159.515625 127.660156 C 114.160156 152.914062 67.464844 155.730469 55.214844 133.925781 C 54.554688 132.746094 51.390625 127.078125 50.441406 125.390625 C 50.757812 128.847656 51.667969 132.046875 53.328125 135.003906 C 59.675781 146.304688 75 151.164062 94.269531 150.007812 C 113.542969 148.855469 136.945312 141.703125 159.921875 128.910156 C 182.898438 116.117188 201.238281 100.105469 212.316406 84.359375 C 223.394531 68.617188 227.167969 53.078125 220.820312 41.777344 C 219.4375 39.316406 217.621094 37.214844 215.4375 35.359375 Z M 215.4375 35.359375 "/>
<use xlink:href="#surface62" mask="url(#mask16)"/>
<path style=" stroke:none;fill-rule:nonzero;fill:url(#linear5);" d="M 148.6875 170.03125 L 210.777344 274.785156 C 247.90625 258.105469 291.59375 219.136719 298.679688 193.265625 L 238.203125 86.664062 C 230.738281 124.601562 185.308594 152.511719 148.6875 170.03125 Z M 148.6875 170.03125 "/>
<path style="fill:none;stroke-width:1.612652;stroke-linecap:round;stroke-linejoin:round;stroke:rgb(100%,100%,100%);stroke-opacity:1;stroke-miterlimit:4;" d="M -84.360765 47.981011 C -84.355052 61.173557 -99.353814 71.869578 -117.857101 71.869928 C -136.360389 71.870277 -151.359142 61.173875 -151.353627 47.981157 C -151.35934 34.788611 -136.360578 24.09259 -117.85729 24.09224 C -99.354003 24.091891 -84.35525 34.788293 -84.360765 47.981011 Z M -84.360765 47.981011 " transform="matrix(2.44954,-1.36628,0.92779,1.653987,377.827988,-160.167294)"/>
<path style=" stroke:none;fill-rule:nonzero;fill:rgb(71.764708%,0%,0%);fill-opacity:1;" d="M 48.914062 110.195312 C 48.222656 116.007812 48.976562 121.410156 51.484375 126.015625 C 63.335938 147.78125 107.289062 142.414062 152.335938 119.347656 C 164.382812 113.179688 174.335938 105.734375 176.957031 103.546875 C 158.183594 91.761719 55.855469 81.191406 48.914062 110.195312 Z M 48.914062 110.195312 "/>
<path style=" stroke:none;fill-rule:nonzero;fill:rgb(0%,0%,0%);fill-opacity:0.394309;" d="M 189.796875 20.667969 C 185.800781 20.234375 181.472656 20.199219 176.878906 20.472656 C 158.507812 21.578125 135.996094 28.417969 113.730469 40.835938 C 91.46875 53.253906 73.800781 68.792969 63.242188 83.824219 C 60.9375 87.109375 58.992188 90.398438 57.382812 93.585938 C 58.851562 90.835938 60.609375 88.09375 62.589844 85.273438 C 73.148438 70.242188 90.8125 54.621094 113.078125 42.203125 C 135.34375 29.785156 157.851562 22.945312 176.222656 21.84375 C 194.59375 20.738281 208.75 25.257812 214.582031 35.652344 C 218.589844 42.800781 218.210938 51.898438 214.148438 61.742188 C 218.765625 51.359375 219.433594 41.769531 215.234375 34.285156 C 210.863281 26.488281 201.792969 21.972656 189.796875 20.667969 Z M 216.019531 66.183594 C 214.460938 69.113281 212.605469 72.050781 210.519531 75.019531 C 199.398438 90.855469 181.054688 106.949219 158.027344 119.792969 C 135.003906 132.636719 111.617188 139.828125 92.265625 140.992188 C 72.914062 142.15625 57.511719 137.246094 51.109375 125.839844 C 46.710938 117.996094 47.175781 108.117188 51.511719 97.585938 C 46.609375 108.664062 45.855469 119.003906 50.457031 127.207031 C 56.855469 138.617188 72.257812 143.523438 91.609375 142.359375 C 110.964844 141.195312 134.347656 134.003906 157.375 121.160156 C 180.402344 108.316406 198.742188 92.304688 209.867188 76.46875 C 212.277344 73.035156 214.320312 69.558594 216.019531 66.183594 Z M 216.019531 66.183594 "/>
<path style=" stroke:none;fill-rule:nonzero;fill:rgb(0%,0%,0%);fill-opacity:0.394309;" d="M 191.132812 20.085938 C 187.132812 19.652344 182.804688 19.535156 178.210938 19.8125 C 159.839844 20.917969 137.328125 27.753906 115.0625 40.175781 C 100.820312 48.117188 88.503906 57.375 78.671875 66.941406 C 88.15625 58.074219 99.792969 49.597656 113.066406 42.195312 C 135.332031 29.777344 157.84375 22.9375 176.214844 21.835938 C 194.585938 20.730469 209.023438 25.316406 214.5 35.898438 C 219.710938 45.964844 215.667969 60.359375 205.109375 75.390625 C 201.441406 80.609375 197.328125 85.449219 192.058594 90.640625 C 198.222656 84.808594 202.964844 79.257812 207.105469 73.367188 C 217.664062 58.335938 222.160156 44.597656 216.328125 34.203125 C 211.957031 26.40625 203.125 21.390625 191.132812 20.085938 Z M 74.460938 66.566406 C 68.386719 72.402344 63.128906 78.378906 58.960938 84.316406 C 47.835938 100.152344 43.972656 115.785156 50.371094 127.191406 C 56.769531 138.601562 72.171875 143.507812 91.527344 142.34375 C 110.878906 141.179688 134.335938 133.996094 157.363281 121.152344 C 172.75 112.570312 185.980469 102.546875 196.425781 92.117188 C 186.3125 101.820312 173.753906 111.101562 159.359375 119.128906 C 136.332031 131.972656 112.953125 139.246094 93.597656 140.410156 C 74.246094 141.574219 58.84375 136.585938 52.441406 125.175781 C 46.042969 113.769531 49.910156 98.136719 61.03125 82.300781 C 64.726562 77.042969 69.261719 71.761719 74.460938 66.566406 Z M 74.460938 66.566406 "/>
<path style=" stroke:none;fill-rule:nonzero;fill:url(#radial4);" d="M 148.6875 170.03125 L 210.777344 274.785156 C 247.90625 258.105469 291.59375 219.136719 298.679688 193.265625 L 238.203125 86.664062 C 230.738281 124.601562 185.308594 152.511719 148.6875 170.03125 Z M 148.6875 170.03125 "/>
<use xlink:href="#surface65" mask="url(#mask17)"/>
<use xlink:href="#surface68" mask="url(#mask18)"/>
<path style="fill-rule:evenodd;fill:rgb(72.549021%,0%,0%);fill-opacity:1;stroke-width:0.752087;stroke-linecap:butt;stroke-linejoin:miter;stroke:rgb(68.235296%,0%,0%);stroke-opacity:1;stroke-miterlimit:4;" d="M 15.373438 125.69375 C 22.221875 125.75 27.996875 124.989063 29.40625 125.023438 C 38.732813 125.254688 61.076563 120.926563 52.140625 115.60625 C 42.378125 109.795313 15.545313 109.951563 5.096875 115.554688 C -6.304688 121.670313 8.526563 125.639063 15.373438 125.69375 Z M 15.373438 125.69375 " transform="matrix(2.5,0,0,2.5,0,0)"/>
<use xlink:href="#surface71" mask="url(#mask19)"/>
<use xlink:href="#surface74" mask="url(#mask20)"/>
<path style="fill-rule:evenodd;fill:rgb(71.764708%,0%,0%);fill-opacity:1;stroke-width:0.1;stroke-linecap:butt;stroke-linejoin:miter;stroke:rgb(0%,0%,0%);stroke-opacity:1;stroke-miterlimit:4;" d="M 35.982813 55.748438 C 30.246875 55.610938 28.139063 60.217188 27.770313 64.698437 C 26.66875 78.09375 28.965625 87.482813 28.196875 98.2 C 28.042188 100.373438 24.173438 102.559375 23.71875 97.717188 C 22.6625 86.479688 24.45625 78.59375 23.195312 63.071875 C 22.778125 57.945312 21.204688 53.020313 19.825 47.159375 " transform="matrix(2.5,0,0,2.5,0,0)"/>
<path style=" stroke:none;fill-rule:evenodd;fill:url(#radial5);" d="M 53.582031 129.078125 C 56.332031 139.894531 58.933594 149.65625 59.753906 159.71875 C 62.90625 198.523438 58.421875 218.253906 61.0625 246.347656 C 61.214844 247.957031 61.535156 249.246094 61.945312 250.277344 C 63.050781 249.152344 63.808594 247.710938 63.914062 246.253906 C 65.832031 219.460938 59.902344 196.316406 62.652344 162.828125 C 63.375 154.066406 66.441406 142.601562 74.851562 140.167969 C 67.734375 136.476562 60.414062 132.917969 53.582031 129.078125 Z M 53.582031 129.078125 "/>
<path style=" stroke:none;fill-rule:nonzero;fill:url(#linear10);" d="M 48.914062 110.195312 C 48.222656 116.007812 48.976562 121.410156 51.484375 126.015625 C 63.335938 147.78125 107.289062 142.414062 152.335938 119.347656 C 164.382812 113.179688 174.335938 105.734375 176.957031 103.546875 C 158.183594 91.761719 55.855469 81.191406 48.914062 110.195312 Z M 48.914062 110.195312 "/>
<use xlink:href="#surface77" mask="url(#mask21)"/>
<use xlink:href="#surface80" mask="url(#mask22)"/>
<use xlink:href="#surface83" mask="url(#mask23)"/>
<use xlink:href="#surface86" mask="url(#mask24)"/>
</g>
</svg>
