<?xml version="1.0" encoding="UTF-8"?>
<svg xmlns="http://www.w3.org/2000/svg" xmlns:xlink="http://www.w3.org/1999/xlink" width="320px" height="320px" viewBox="0 0 320 320" version="1.1">
<defs>
<filter id="alpha" filterUnits="objectBoundingBox" x="0%" y="0%" width="100%" height="100%">
  <feColorMatrix type="matrix" in="SourceGraphic" values="0 0 0 0 1 0 0 0 0 1 0 0 0 0 1 0 0 0 1 0"/>
</filter>
<mask id="mask0">
  <g filter="url(#alpha)">
<rect x="0" y="0" width="320" height="320" style="fill:rgb(0%,0%,0%);fill-opacity:0.649;stroke:none;"/>
  </g>
</mask>
<linearGradient id="linear0" gradientUnits="userSpaceOnUse" x1="23.995985" y1="20.105337" x2="41.047836" y2="37.959785" gradientTransform="matrix(1,0,0,1,0,-2)">
<stop offset="0" style="stop-color:rgb(80.000001%,0%,0%);stop-opacity:1;"/>
<stop offset="1" style="stop-color:rgb(70.19608%,0%,0%);stop-opacity:1;"/>
</linearGradient>
<clipPath id="clip1">
  <rect x="0" y="0" width="320" height="320"/>
</clipPath>
<g id="surface5" clip-path="url(#clip1)">
<path style="fill-rule:evenodd;fill:url(#linear0);stroke-width:1;stroke-linecap:butt;stroke-linejoin:miter;stroke:rgb(52.549022%,0%,0%);stroke-opacity:1;stroke-miterlimit:4;" d="M 15.590827 0.491913 L 32.676578 0.491913 L 45.497773 13.586213 L 45.497773 31.480214 L 32.8489 43.497086 L 15.418505 43.497086 L 2.494358 30.658242 L 2.494358 13.463991 Z M 15.590827 0.491913 " transform="matrix(7.095185,0,0,7.095168,-10.283869,3.92776)"/>
</g>
<mask id="mask1">
  <g filter="url(#alpha)">
<rect x="0" y="0" width="320" height="320" style="fill:rgb(0%,0%,0%);fill-opacity:0.813187;stroke:none;"/>
  </g>
</mask>
<linearGradient id="linear1" gradientUnits="userSpaceOnUse" x1="15.737001" y1="12.5036" x2="53.570126" y2="47.374317" gradientTransform="matrix(1,0,0,1,0,-2)">
<stop offset="0" style="stop-color:rgb(100%,54.509807%,54.509807%);stop-opacity:1;"/>
<stop offset="1" style="stop-color:rgb(92.54902%,10.588235%,10.588235%);stop-opacity:1;"/>
</linearGradient>
<clipPath id="clip2">
  <rect x="0" y="0" width="320" height="320"/>
</clipPath>
<g id="surface8" clip-path="url(#clip2)">
<path style="fill:none;stroke-width:1;stroke-linecap:butt;stroke-linejoin:miter;stroke:url(#linear1);stroke-miterlimit:4;" d="M 16.020806 1.500522 L 32.248801 1.500522 L 44.496323 13.922599 L 44.496323 31.037021 L 32.63859 42.487926 L 15.870507 42.487926 L 3.509021 30.208992 L 3.509021 13.845522 Z M 16.020806 1.500522 " transform="matrix(7.095185,0,0,7.095168,-10.283869,3.92776)"/>
</g>
<mask id="mask2">
  <g filter="url(#alpha)">
<rect x="0" y="0" width="320" height="320" style="fill:rgb(0%,0%,0%);fill-opacity:0.137;stroke:none;"/>
  </g>
</mask>
<radialGradient id="radial0" gradientUnits="userSpaceOnUse" cx="16.75" cy="10.666344" fx="16.75" fy="10.666344" r="21.25" gradientTransform="matrix(29.480188,0,0,22.695476,-385.232698,-162.87403)">
<stop offset="0" style="stop-color:rgb(100%,100%,100%);stop-opacity:1;"/>
<stop offset="1" style="stop-color:rgb(100%,100%,100%);stop-opacity:0;"/>
</radialGradient>
<clipPath id="clip3">
  <rect x="0" y="0" width="320" height="320"/>
</clipPath>
<g id="surface11" clip-path="url(#clip3)">
<path style=" stroke:none;fill-rule:evenodd;fill:url(#radial0);" d="M 101.023438 9.25 L 9.226562 100.15625 L 9.226562 220.773438 L 30.070312 241.394531 C 149.003906 241.800781 146.980469 149.023438 310.773438 157.140625 L 310.773438 101.042969 L 220.753906 9.25 Z M 101.023438 9.25 "/>
</g>
<radialGradient id="radial1" gradientUnits="userSpaceOnUse" cx="24.30225" cy="33.30225" fx="24.30225" fy="33.30225" r="12.30225" gradientTransform="matrix(1.693981,0,0,1.693981,-16.86529,-25.111111)">
<stop offset="0" style="stop-color:rgb(100%,100%,100%);stop-opacity:1;"/>
<stop offset="1" style="stop-color:rgb(85.882354%,85.882354%,85.882354%);stop-opacity:1;"/>
</radialGradient>
<linearGradient id="linear2" gradientUnits="userSpaceOnUse" x1="21.75" y1="15.80225" x2="24.30225" y2="35.05225" gradientTransform="matrix(1,0,0,1,0,-2)">
<stop offset="0" style="stop-color:rgb(100%,39.607844%,39.607844%);stop-opacity:1;"/>
<stop offset="1" style="stop-color:rgb(100%,60.784316%,60.784316%);stop-opacity:1;"/>
</linearGradient>
</defs>
<g id="surface1">
<use xlink:href="#surface5" mask="url(#mask0)"/>
<use xlink:href="#surface8" mask="url(#mask1)"/>
<use xlink:href="#surface11" mask="url(#mask2)"/>
<path style="fill-rule:evenodd;fill:url(#radial1);stroke-width:1;stroke-linecap:round;stroke-linejoin:round;stroke:url(#linear2);stroke-miterlimit:4;" d="M 16.767351 10.499825 L 12.500043 14.767144 L 20.034862 22.301982 L 12.500043 29.837371 L 16.767351 34.10469 L 24.302171 26.569301 L 31.837541 34.10469 L 36.104299 29.837371 L 28.569479 22.301982 L 36.104299 14.767144 L 31.837541 10.499825 L 24.302171 18.035214 Z M 16.767351 10.499825 " transform="matrix(7.095185,0,0,7.095168,-10.283869,3.92776)"/>
</g>
</svg>
