<?xml version="1.0" encoding="UTF-8"?>
<svg xmlns="http://www.w3.org/2000/svg" xmlns:xlink="http://www.w3.org/1999/xlink" width="320px" height="320px" viewBox="0 0 320 320" version="1.1">
<g id="surface1">
<path style=" stroke:none;fill-rule:nonzero;fill:rgb(0%,0%,0%);fill-opacity:0.583733;" d="M 246.914062 38.4375 L 36.25 253.75 L 36.25 331.640625 L 331.171875 331.640625 L 331.171875 38.4375 Z M 246.914062 38.4375 "/>
<path style=" stroke:none;fill-rule:nonzero;fill:rgb(100%,100%,100%);fill-opacity:0.995215;" d="M 258.523438 56.496094 L 258.523438 260.605469 L 54.414062 260.605469 L 54.414062 314.847656 L 312.765625 314.847656 L 312.765625 56.496094 Z M 258.523438 56.496094 "/>
<path style=" stroke:none;fill-rule:nonzero;fill:rgb(0%,0%,0%);fill-opacity:1;" d="M 258.523438 56.496094 L 258.523438 260.605469 L 54.414062 260.605469 L 54.414062 314.847656 L 312.765625 314.847656 L 312.765625 56.496094 Z M 263.8125 69.097656 L 300.164062 69.097656 L 300.164062 302.246094 L 67.015625 302.246094 L 67.015625 265.894531 L 263.8125 265.894531 Z M 263.8125 69.097656 "/>
<path style="fill-rule:nonzero;fill:rgb(100%,100%,100%);fill-opacity:1;stroke-width:0.634084;stroke-linecap:round;stroke-linejoin:round;stroke:rgb(0%,0%,0%);stroke-opacity:1;stroke-miterlimit:4;" d="M 4.432031 10.999023 L 4.432031 11.964258 L 11.825 11.964258 L 11.825 4.569336 L 10.861133 4.569922 Z M 4.432031 10.999023 " transform="matrix(20,0,0,20,0,0)"/>
</g>
</svg>
