<?xml version="1.0" encoding="UTF-8"?>
<svg xmlns="http://www.w3.org/2000/svg" xmlns:xlink="http://www.w3.org/1999/xlink" width="320px" height="320px" viewBox="0 0 320 320" version="1.1">
<g id="surface2">
<path style=" stroke:none;fill-rule:nonzero;fill:rgb(0%,0%,0%);fill-opacity:0.583732;" d="M 30.882812 0.917969 L 280.242188 0.917969 C 296.8125 0.917969 310.242188 14.347656 310.242188 30.917969 L 310.242188 278.507812 C 310.242188 295.078125 296.8125 308.507812 280.242188 308.507812 L 30.882812 308.507812 C 14.316406 308.507812 0.882812 295.078125 0.882812 278.507812 L 0.882812 30.917969 C 0.882812 14.347656 14.316406 0.917969 30.882812 0.917969 Z M 30.882812 0.917969 "/>
<path style=" stroke:none;fill-rule:nonzero;fill:rgb(100%,100%,100%);fill-opacity:0.995215;" d="M 235.546875 13.4375 L 235.546875 235.546875 L 13.4375 235.546875 L 13.4375 294.570312 L 294.570312 294.570312 L 294.570312 13.4375 Z M 235.546875 13.4375 "/>
<path style=" stroke:none;fill-rule:nonzero;fill:rgb(0%,0%,0%);fill-opacity:1;" d="M 235.546875 13.4375 L 235.546875 235.546875 L 13.4375 235.546875 L 13.4375 294.570312 L 294.570312 294.570312 L 294.570312 13.4375 Z M 241.300781 27.148438 L 280.859375 27.148438 L 280.859375 280.859375 L 27.148438 280.859375 L 27.148438 241.300781 L 241.300781 241.300781 Z M 241.300781 27.148438 "/>
<path style="fill-rule:nonzero;fill:rgb(100%,100%,100%);fill-opacity:1;stroke-width:0.69;stroke-linecap:round;stroke-linejoin:round;stroke:rgb(0%,0%,0%);stroke-opacity:1;stroke-miterlimit:4;" d="M 2.578906 0.5 L 0.457813 2.621094 L 4.717578 6.882812 L 2.533984 9.066406 L 2.533984 10.617188 L 10.578906 10.617188 L 10.578906 2.570312 L 9.030078 2.570312 L 6.838672 4.761719 Z M 2.578906 0.5 " transform="matrix(20,0,0,20,0,0)"/>
</g>
</svg>
