<?xml version="1.0" encoding="UTF-8" standalone="no"?>
<!-- Created with Inkscape (http://www.inkscape.org/) -->

<svg
   xmlns:dc="http://purl.org/dc/elements/1.1/"
   xmlns:cc="http://creativecommons.org/ns#"
   xmlns:rdf="http://www.w3.org/1999/02/22-rdf-syntax-ns#"
   xmlns:svg="http://www.w3.org/2000/svg"
   xmlns="http://www.w3.org/2000/svg"
   xmlns:sodipodi="http://sodipodi.sourceforge.net/DTD/sodipodi-0.dtd"
   xmlns:inkscape="http://www.inkscape.org/namespaces/inkscape"
   width="64"
   height="64"
   viewBox="0 0 16.933333 16.933333"
   version="1.1"
   id="svg8"
   inkscape:version="0.92.4 (5da689c313, 2019-01-14)"
   sodipodi:docname="starcal.svg">
  <defs
     id="defs2" />
  <sodipodi:namedview
     id="base"
     pagecolor="#ffffff"
     bordercolor="#666666"
     borderopacity="1.0"
     inkscape:pageopacity="0.0"
     inkscape:pageshadow="2"
     inkscape:zoom="2"
     inkscape:cx="16.782571"
     inkscape:cy="22.812499"
     inkscape:document-units="px"
     inkscape:current-layer="layer1"
     showgrid="false"
     units="px"
     showguides="true"
     inkscape:guide-bbox="true"
     inkscape:window-width="1812"
     inkscape:window-height="940"
     inkscape:window-x="30"
     inkscape:window-y="0"
     inkscape:window-maximized="1" />
  <metadata
     id="metadata5">
    <rdf:RDF>
      <cc:Work
         rdf:about="">
        <dc:format>image/svg+xml</dc:format>
        <dc:type
           rdf:resource="http://purl.org/dc/dcmitype/StillImage" />
        <dc:title />
      </cc:Work>
    </rdf:RDF>
  </metadata>
  <g
     inkscape:label="Layer 1"
     inkscape:groupmode="layer"
     id="layer1"
     transform="translate(0,-280.06667)">
    <path
       inkscape:connector-curvature="0"
       id="path862"
       d="m 0.82121119,285.6422 v 9.76946 c 0,0.6765 0.54464461,1.22111 1.22117711,1.22111 H 14.864753 c 0.676531,0 1.221177,-0.54461 1.221177,-1.22111 v -9.56016 l -0.119853,-0.2093 z"
       style="fill:#2e2e2e;fill-opacity:1;stroke:none;stroke-width:0.51900035;stroke-linecap:butt;stroke-linejoin:miter;stroke-miterlimit:4;stroke-dasharray:none;stroke-opacity:1" />
    <path
       style="fill:#00950e;fill-opacity:1;stroke:none;stroke-width:0.51900035;stroke-linecap:butt;stroke-linejoin:miter;stroke-miterlimit:4;stroke-dasharray:none;stroke-opacity:1"
       d="m 2.0423883,281.36812 c -0.6765325,0 -1.22117711,0.54463 -1.22117711,1.22113 v 3.05295 H 15.966077 l 0.119853,-0.18778 v -2.86517 c 0,-0.6765 -0.544646,-1.22113 -1.221177,-1.22113 z"
       id="path4560"
       inkscape:connector-curvature="0" />
    <path
       id="path4526"
       style="fill:none;stroke:#000000;stroke-width:0.51900035;stroke-linecap:butt;stroke-linejoin:miter;stroke-miterlimit:4;stroke-dasharray:none;stroke-opacity:1"
       d="M 0.82121058,285.6422 H 15.965994 M 2.0423881,281.36813 H 14.864753 c 0.676532,0 1.221177,0.54463 1.221177,1.22113 v 12.82241 c 0,0.6765 -0.544645,1.22115 -1.221177,1.22115 H 2.0423881 c -0.6765321,0 -1.22117752,-0.54465 -1.22117752,-1.22115 v -12.82241 c 0,-0.6765 0.54464542,-1.22113 1.22117752,-1.22113 z"
       inkscape:connector-curvature="0" />
    <path
       style="fill:none;stroke:#000000;stroke-width:0.85482424;stroke-linecap:round;stroke-linejoin:miter;stroke-miterlimit:4;stroke-dasharray:none;stroke-opacity:1"
       d="m 4.6810037,280.57772 v 3.16104"
       id="path4700"
       inkscape:connector-curvature="0" />
    <path
       inkscape:connector-curvature="0"
       id="path4702"
       d="m 12.0953,280.57772 v 3.16104"
       style="fill:none;stroke:#000000;stroke-width:0.85482424;stroke-linecap:round;stroke-linejoin:miter;stroke-miterlimit:4;stroke-dasharray:none;stroke-opacity:1" />
    <path
       style="opacity:1;fill:#fdf094;fill-opacity:1;stroke-width:0.01433596"
       d="m 10.310448,294.40643 c -0.309418,-0.19422 -0.5809193,-0.40628 -0.9022729,-0.62631 -0.2983278,-0.20426 -0.5361413,-0.39592 -1.002164,-0.41494 -0.3327346,-0.0135 -0.6808713,0.2032 -1.0064503,0.41814 -0.4500633,0.29711 -0.9212014,0.63962 -1.3507191,0.89055 -0.4436425,0.25885 -0.6365507,-0.19605 -0.464359,-0.68622 0.1648267,-0.46919 0.3448081,-0.92335 0.5613247,-1.36847 0.1988938,-0.40887 0.046169,-0.84124 -0.2587036,-1.1426 -0.3331173,-0.52154 -1.8392351,-1.03274 -1.7242131,-1.55902 0.082165,-0.37595 1.8437614,-0.28909 2.5724715,-0.49012 0.423038,-0.11992 0.610754,-0.52425 0.7097255,-0.91111 0.1838334,-0.49513 0.4839475,-1.43936 0.7297008,-1.42789 0.3145592,0.0147 0.6404239,1.00755 0.8825464,1.48609 0.1756734,0.35174 0.3469394,0.83764 0.8125658,0.86269 0.3941973,0.0212 0.6069483,0.0155 0.9102673,-0.0105 0.564758,0.002 1.514304,0.0125 1.565626,0.30202 0.06054,0.34152 -1.049824,1.05488 -1.495299,1.48895 -0.279517,0.27236 -0.307957,0.49175 -0.27523,0.81952 0.01725,0.17279 0.06162,0.35874 0.112194,0.48665 0.154485,0.3908 0.337184,0.7699 0.5215,1.14621 0.183232,0.37409 0.399538,0.86359 0.112925,1.0901 -0.280228,0.22146 -0.708922,-0.16387 -1.011436,-0.35375 z"
       id="path1092"
       inkscape:connector-curvature="0"
       sodipodi:nodetypes="sssscsscsccscscsssssas" />
  </g>
</svg>
