<?xml version="1.0" encoding="UTF-8"?>
<svg xmlns="http://www.w3.org/2000/svg" xmlns:xlink="http://www.w3.org/1999/xlink" width="320px" height="320px" viewBox="0 0 320 320" version="1.1">
<g id="surface1">
<path style=" stroke:none;fill-rule:nonzero;fill:rgb(18.039216%,18.039216%,18.039216%);fill-opacity:1;" d="M 15.519531 105.363281 L 15.519531 289.984375 C 15.519531 302.769531 25.8125 313.058594 38.597656 313.058594 L 280.910156 313.058594 C 293.695312 313.058594 303.984375 302.769531 303.984375 289.984375 L 303.984375 109.320312 L 301.722656 105.363281 Z M 15.519531 105.363281 "/>
<path style=" stroke:none;fill-rule:nonzero;fill:rgb(0%,58.431375%,5.490196%);fill-opacity:1;" d="M 38.597656 24.59375 C 25.8125 24.59375 15.519531 34.886719 15.519531 47.671875 L 15.519531 105.363281 L 301.722656 105.363281 L 303.984375 101.816406 L 303.984375 47.671875 C 303.984375 34.886719 293.695312 24.59375 280.910156 24.59375 Z M 38.597656 24.59375 "/>
<path style="fill:none;stroke-width:0.519;stroke-linecap:butt;stroke-linejoin:miter;stroke:rgb(0%,0%,0%);stroke-opacity:1;stroke-miterlimit:4;" d="M 0.821242 285.642154 L 15.96595 285.642154 M 2.042459 281.3681 L 14.864828 281.3681 C 15.541376 281.3681 16.085839 281.91277 16.085839 282.589317 L 16.085839 295.411687 C 16.085839 296.088234 15.541376 296.632904 14.864828 296.632904 L 2.042459 296.632904 C 1.365911 296.632904 0.821242 296.088234 0.821242 295.411687 L 0.821242 282.589317 C 0.821242 281.91277 1.365911 281.3681 2.042459 281.3681 Z M 2.042459 281.3681 " transform="matrix(18.897639,0,0,18.897639,0,-5292.598973)"/>
<path style="fill:none;stroke-width:0.854824;stroke-linecap:round;stroke-linejoin:miter;stroke:rgb(0%,0%,0%);stroke-opacity:1;stroke-miterlimit:4;" d="M 4.681058 280.577657 L 4.681058 283.738808 " transform="matrix(18.897639,0,0,18.897639,0,-5292.598973)"/>
<path style="fill:none;stroke-width:0.854824;stroke-linecap:round;stroke-linejoin:miter;stroke:rgb(0%,0%,0%);stroke-opacity:1;stroke-miterlimit:4;" d="M 12.095385 280.577657 L 12.095385 283.738808 " transform="matrix(18.897639,0,0,18.897639,0,-5292.598973)"/>
<path style=" stroke:none;fill-rule:nonzero;fill:rgb(99.215686%,94.117647%,58.039218%);fill-opacity:1;" d="M 194.84375 270.988281 C 188.996094 267.316406 183.863281 263.308594 177.792969 259.152344 C 172.15625 255.292969 167.660156 251.667969 158.855469 251.308594 C 152.566406 251.054688 145.988281 255.148438 139.835938 259.210938 C 131.328125 264.828125 122.425781 271.300781 114.308594 276.042969 C 105.925781 280.933594 102.28125 272.335938 105.535156 263.074219 C 108.648438 254.207031 112.050781 245.625 116.140625 237.210938 C 119.898438 229.484375 117.015625 221.316406 111.253906 215.621094 C 104.957031 205.765625 76.496094 196.105469 78.667969 186.160156 C 80.222656 179.054688 113.511719 180.695312 127.28125 176.894531 C 135.277344 174.628906 138.824219 166.988281 140.695312 159.679688 C 144.167969 150.320312 149.839844 132.476562 154.484375 132.695312 C 160.429688 132.972656 166.585938 151.734375 171.164062 160.777344 C 174.480469 167.425781 177.71875 176.609375 186.519531 177.082031 C 193.96875 177.480469 197.988281 177.375 203.71875 176.882812 C 214.390625 176.921875 232.335938 177.117188 233.304688 182.589844 C 234.449219 189.042969 213.46875 202.523438 205.046875 210.726562 C 199.765625 215.875 199.230469 220.019531 199.847656 226.214844 C 200.171875 229.480469 201.011719 232.992188 201.96875 235.410156 C 204.886719 242.796875 208.339844 249.960938 211.824219 257.070312 C 215.285156 264.140625 219.375 273.390625 213.957031 277.671875 C 208.660156 281.855469 200.558594 274.574219 194.84375 270.988281 Z M 194.84375 270.988281 "/>
</g>
</svg>
