<?xml version="1.0" encoding="UTF-8"?>
<svg xmlns="http://www.w3.org/2000/svg" xmlns:xlink="http://www.w3.org/1999/xlink" width="320px" height="320px" viewBox="0 0 320 320" version="1.1">
<defs>
<filter id="alpha" filterUnits="objectBoundingBox" x="0%" y="0%" width="100%" height="100%">
  <feColorMatrix type="matrix" in="SourceGraphic" values="0 0 0 0 1 0 0 0 0 1 0 0 0 0 1 0 0 0 1 0"/>
</filter>
<mask id="mask0">
  <g filter="url(#alpha)">
<rect x="0" y="0" width="320" height="320" style="fill:rgb(0%,0%,0%);fill-opacity:0.402062;stroke:none;"/>
  </g>
</mask>
<linearGradient id="linear0" gradientUnits="userSpaceOnUse" x1="302.857147" y1="366.647888" x2="302.857147" y2="609.505066" gradientTransform="matrix(0.418449,0,0,0.258195,10.579047,165.455791)">
<stop offset="0" style="stop-color:rgb(0%,0%,0%);stop-opacity:0;"/>
<stop offset="0.5" style="stop-color:rgb(0%,0%,0%);stop-opacity:1;"/>
<stop offset="1" style="stop-color:rgb(0%,0%,0%);stop-opacity:0;"/>
</linearGradient>
<clipPath id="clip1">
  <rect x="0" y="0" width="320" height="320"/>
</clipPath>
<g id="surface5" clip-path="url(#clip1)">
<path style=" stroke:none;fill-rule:nonzero;fill:url(#linear0);" d="M 60.792969 260.121094 L 262.84375 260.121094 L 262.84375 322.828125 L 60.792969 322.828125 Z M 60.792969 260.121094 "/>
</g>
<mask id="mask1">
  <g filter="url(#alpha)">
<rect x="0" y="0" width="320" height="320" style="fill:rgb(0%,0%,0%);fill-opacity:0.402062;stroke:none;"/>
  </g>
</mask>
<radialGradient id="radial0" gradientUnits="userSpaceOnUse" cx="605.714294" cy="486.647888" fx="605.714294" fy="486.647888" r="117.14286" gradientTransform="matrix(0.418449,0,0,0.258195,10.661382,165.455791)">
<stop offset="0" style="stop-color:rgb(0%,0%,0%);stop-opacity:1;"/>
<stop offset="1" style="stop-color:rgb(0%,0%,0%);stop-opacity:0;"/>
</radialGradient>
<clipPath id="clip2">
  <rect x="0" y="0" width="320" height="320"/>
</clipPath>
<g id="surface8" clip-path="url(#clip2)">
<path style=" stroke:none;fill-rule:nonzero;fill:url(#radial0);" d="M 262.84375 260.125 C 262.84375 260.125 262.84375 322.824219 262.84375 322.824219 C 284.394531 322.945312 314.9375 308.777344 314.9375 291.472656 C 314.9375 274.164062 290.890625 260.125 262.84375 260.125 Z M 262.84375 260.125 "/>
</g>
<mask id="mask2">
  <g filter="url(#alpha)">
<rect x="0" y="0" width="320" height="320" style="fill:rgb(0%,0%,0%);fill-opacity:0.402062;stroke:none;"/>
  </g>
</mask>
<radialGradient id="radial1" gradientUnits="userSpaceOnUse" cx="605.714294" cy="486.647888" fx="605.714294" fy="486.647888" r="117.14286" gradientTransform="matrix(-0.418449,0,0,0.258195,312.975375,165.455791)">
<stop offset="0" style="stop-color:rgb(0%,0%,0%);stop-opacity:1;"/>
<stop offset="1" style="stop-color:rgb(0%,0%,0%);stop-opacity:0;"/>
</radialGradient>
<clipPath id="clip3">
  <rect x="0" y="0" width="320" height="320"/>
</clipPath>
<g id="surface11" clip-path="url(#clip3)">
<path style=" stroke:none;fill-rule:nonzero;fill:url(#radial1);" d="M 60.792969 260.125 C 60.792969 260.125 60.792969 322.824219 60.792969 322.824219 C 39.242188 322.945312 8.699219 308.777344 8.699219 291.472656 C 8.699219 274.164062 32.746094 260.125 60.792969 260.125 Z M 60.792969 260.125 "/>
</g>
<linearGradient id="linear1" gradientUnits="userSpaceOnUse" x1="10.861447" y1="33.139202" x2="30.587307" y2="37.720802" gradientTransform="matrix(1.175635,0,0,0.850604,0,0)">
<stop offset="0" style="stop-color:rgb(70.980394%,75.294119%,31.764707%);stop-opacity:1;"/>
<stop offset="1" style="stop-color:rgb(52.156866%,55.686277%,24.705882%);stop-opacity:1;"/>
</linearGradient>
<linearGradient id="linear2" gradientUnits="userSpaceOnUse" x1="19.347122" y1="23.114082" x2="19.672924" y2="52.625473" gradientTransform="matrix(1.175635,0,0,0.850604,0,0)">
<stop offset="0" style="stop-color:rgb(38.039216%,42.352942%,3.137255%);stop-opacity:1;"/>
<stop offset="1" style="stop-color:rgb(28.627452%,31.764707%,2.352941%);stop-opacity:1;"/>
</linearGradient>
<linearGradient id="linear3" gradientUnits="userSpaceOnUse" x1="7.373861" y1="27.376621" x2="7.529112" y2="69.460503" gradientTransform="matrix(23.469407,0,0,2.320103,-21.639001,-0.96664)">
<stop offset="0" style="stop-color:rgb(0%,0%,0%);stop-opacity:1;"/>
<stop offset="1" style="stop-color:rgb(0%,0%,0%);stop-opacity:0;"/>
</linearGradient>
<linearGradient id="linear4" gradientUnits="userSpaceOnUse" x1="17.573946" y1="25.335417" x2="25.31245" y2="48.805084" gradientTransform="matrix(7.814774,0,0,5.733984,1.692853,-4.36542)">
<stop offset="0" style="stop-color:rgb(100%,100%,100%);stop-opacity:0.103093;"/>
<stop offset="1" style="stop-color:rgb(100%,100%,100%);stop-opacity:0;"/>
</linearGradient>
<linearGradient id="linear5" gradientUnits="userSpaceOnUse" x1="19.977491" y1="38.962704" x2="19.857769" y2="23.600779" gradientTransform="matrix(1.215669,0,0,0.822592,0,0)">
<stop offset="0" style="stop-color:rgb(100%,100%,100%);stop-opacity:0.285714;"/>
<stop offset="1" style="stop-color:rgb(100%,100%,100%);stop-opacity:0;"/>
</linearGradient>
<linearGradient id="linear6" gradientUnits="userSpaceOnUse" x1="-4.63752" y1="104.38752" x2="-4.523921" y2="110.613777" gradientTransform="matrix(1.464893,0,0,0.475906,30.56501,-34.342682)">
<stop offset="0" style="stop-color:rgb(93.725491%,95.294118%,95.686275%);stop-opacity:1;"/>
<stop offset="1" style="stop-color:rgb(57.647061%,58.431375%,58.823532%);stop-opacity:1;"/>
</linearGradient>
<linearGradient id="linear7" gradientUnits="userSpaceOnUse" x1="2.93256" y1="21.169638" x2="19.737663" y2="21.169638" gradientTransform="matrix(15.921418,0,0,3.469325,-19.633351,-2.947587)">
<stop offset="0" style="stop-color:rgb(34.117648%,34.901962%,33.333334%);stop-opacity:1;"/>
<stop offset="1" style="stop-color:rgb(48.627451%,49.411765%,47.450981%);stop-opacity:1;"/>
</linearGradient>
<linearGradient id="linear8" gradientUnits="userSpaceOnUse" x1="55.208271" y1="6.889798" x2="60.685902" y2="6.889798" gradientTransform="matrix(5.178688,0,0,10.68538,-19.633351,-3.132638)">
<stop offset="0" style="stop-color:rgb(72.941178%,74.117649%,71.372551%);stop-opacity:1;"/>
<stop offset="1" style="stop-color:rgb(94.509804%,96.078432%,92.54902%);stop-opacity:1;"/>
</linearGradient>
</defs>
<g id="surface1">
<use xlink:href="#surface5" mask="url(#mask0)"/>
<use xlink:href="#surface8" mask="url(#mask1)"/>
<use xlink:href="#surface11" mask="url(#mask2)"/>
<path style="fill-rule:evenodd;fill:url(#linear1);stroke-width:0.995915;stroke-linecap:butt;stroke-linejoin:miter;stroke:url(#linear2);stroke-miterlimit:4;" d="M 3.836673 16.810211 C 3.7926 16.775443 5.568469 42.033963 5.569056 42.042075 C 5.735948 44.564508 7.134548 45.486445 8.700039 45.489922 C 8.755866 45.490502 38.06946 45.487025 38.694128 45.484127 C 41.330313 45.473117 41.976137 43.867406 42.149493 42.11335 C 42.163596 42.079161 43.938878 16.844979 43.952393 16.810211 C 30.580487 16.810211 17.20858 16.810211 3.836673 16.810211 Z M 3.836673 16.810211 " transform="matrix(6.647273,0,0,6.741073,1.16846,-3.31886)"/>
<path style=" stroke:none;fill-rule:nonzero;fill:url(#linear3);" d="M 288.332031 126.824219 L 46.667969 126.667969 C 228.742188 130.914062 264.515625 150.988281 286.707031 149.960938 Z M 288.332031 126.824219 "/>
<path style=" stroke:none;fill-rule:evenodd;fill:rgb(100%,100%,100%);fill-opacity:0.488095;" d="M 159.234375 188.769531 L 194.730469 191.550781 L 208.453125 157.257812 L 192.214844 168.972656 C 192.214844 168.972656 185.25 152.304688 180.246094 150.964844 C 175.242188 149.625 153.886719 150.070312 153.886719 150.070312 C 160.679688 151.796875 165.957031 163.769531 166.039062 163.90625 C 168.160156 167.457031 174.089844 179.394531 174.089844 179.394531 Z M 159.234375 188.769531 "/>
<path style=" stroke:none;fill-rule:evenodd;fill:rgb(100%,100%,100%);fill-opacity:0.309524;" d="M 163.625 165.050781 L 151.878906 188.050781 L 127.722656 172.417969 C 127.722656 172.417969 138.675781 151.203125 147.308594 151.203125 C 156.011719 151.203125 159.902344 158.902344 163.625 165.050781 Z M 163.625 165.050781 "/>
<path style=" stroke:none;fill-rule:evenodd;fill:rgb(100%,100%,100%);fill-opacity:0.488095;" d="M 180.921875 219.660156 L 158.039062 247.726562 L 179.875 276.667969 L 180.277344 258.4375 C 180.277344 258.4375 196.363281 259.996094 200.054688 256.277344 C 203.746094 252.5625 219.105469 233.816406 219.105469 233.816406 C 214.175781 238.910156 201.453125 237.402344 201.296875 237.40625 C 197.242188 237.449219 181.191406 237.0625 181.191406 237.0625 Z M 180.921875 219.660156 "/>
<path style=" stroke:none;fill-rule:evenodd;fill:rgb(100%,100%,100%);fill-opacity:0.309524;" d="M 202.398438 234.203125 L 189.207031 212.039062 L 214.6875 198.808594 C 214.6875 198.808594 226.792969 219.351562 222.355469 226.949219 C 217.882812 234.613281 209.449219 234.082031 202.398438 234.203125 Z M 202.398438 234.203125 "/>
<path style=" stroke:none;fill-rule:evenodd;fill:rgb(100%,100%,100%);fill-opacity:0.488095;" d="M 140.90625 218.03125 L 129.609375 187.5 L 96.667969 189.886719 L 110.191406 199.996094 C 110.191406 199.996094 100.851562 213.527344 102.148438 218.664062 C 103.449219 223.804688 110.773438 245.089844 110.773438 245.089844 C 108.929688 238.164062 116.550781 227.597656 116.625 227.457031 C 118.613281 223.832031 126.941406 209.75 126.941406 209.75 Z M 140.90625 218.03125 "/>
<path style=" stroke:none;fill-rule:evenodd;fill:rgb(100%,100%,100%);fill-opacity:0.309524;" d="M 118.308594 230.363281 L 143.605469 229.683594 L 142.070312 258.945312 C 142.070312 258.945312 118.683594 259.46875 114.476562 251.734375 C 110.234375 243.933594 114.890625 236.695312 118.308594 230.363281 Z M 118.308594 230.363281 "/>
<path style=" stroke:none;fill-rule:evenodd;fill:url(#linear4);" d="M 278.382812 155.074219 C 242.984375 170.808594 194.492188 186.546875 154.953125 186.882812 C 111.480469 187.25 79.449219 208.1875 47.003906 224.257812 C 48.296875 243.671875 49.722656 257.226562 51.488281 278.972656 C 52.367188 289.816406 55.726562 289.5625 71.03125 289.5625 C 131.597656 289.5625 211.058594 289.648438 258.867188 289.648438 C 270.570312 289.648438 269.234375 281.210938 269.867188 273.128906 C 272.925781 234.011719 275.679688 194.335938 278.382812 155.074219 Z M 278.382812 155.074219 "/>
<path style="fill:none;stroke-width:0.995915;stroke-linecap:butt;stroke-linejoin:miter;stroke:url(#linear5);stroke-miterlimit:4;" d="M 5.209828 19.40276 C 5.158703 19.40276 6.048988 32.078667 6.756515 40.968317 C 6.939273 43.25027 7.310078 44.179161 8.74805 44.179161 C 20.599127 44.179161 37.441676 44.264343 38.01522 44.262025 C 40.790089 44.252174 40.737788 43.236363 40.967558 41.077258 C 41.051592 40.291496 42.504843 19.491419 42.490739 19.491419 C 32.561268 19.491419 17.478721 19.434631 5.209828 19.40276 Z M 5.209828 19.40276 " transform="matrix(6.647273,0,0,6.741073,1.466507,-3.31886)"/>
<path style="fill-rule:evenodd;fill:url(#linear6);stroke-width:0.97545;stroke-linecap:butt;stroke-linejoin:miter;stroke:rgb(30.19608%,33.333334%,2.352941%);stroke-opacity:1;stroke-miterlimit:4;" d="M 7.538349 4.730432 C 6.494372 4.733279 5.620185 4.757198 5.144086 5.74414 C 5.061486 5.915559 2.539308 12.879961 2.417702 13.145348 C 1.380035 15.418788 2.337396 18.282798 4.342175 18.264004 C 4.723628 18.260587 43.852668 18.281659 44.458977 18.264004 C 46.166051 18.215027 46.384598 14.898266 45.649799 13.406178 C 45.607925 13.321893 42.197793 5.649034 42.110604 5.513493 C 41.708501 4.906407 40.807928 4.640451 40.138521 4.665509 C 40.00659 4.670634 7.669133 4.730432 7.538349 4.730432 Z M 7.538349 4.730432 " transform="matrix(6.8099,0,0,6.8591,-3.581493,-1.989473)"/>
<path style=" stroke:none;fill-rule:evenodd;fill:url(#linear7);" d="M 50.863281 41.945312 C 44.261719 41.859375 43.832031 41.597656 42.34375 46.367188 C 42 47.46875 28.175781 90.839844 27.636719 92.523438 C 25.792969 98.246094 28.398438 99.757812 34.792969 99.640625 C 37.058594 99.601562 285.164062 99.640625 288.769531 99.640625 C 293.890625 99.640625 295.410156 97.917969 294.253906 93.855469 C 293.78125 92.203125 274.539062 45.894531 274.019531 45.070312 C 271.632812 41.386719 272.046875 41.398438 267.871094 41.34375 C 267.085938 41.335938 51.636719 41.953125 50.863281 41.945312 Z M 50.863281 41.945312 "/>
<path style=" stroke:none;fill-rule:evenodd;fill:rgb(18.039216%,20.392157%,21.176471%);fill-opacity:1;" d="M 47.316406 41.820312 C 44.832031 42.015625 43.632812 42.765625 42.59375 46.113281 C 42.25 47.21875 28.441406 90.601562 27.902344 92.289062 C 26.058594 98.023438 28.503906 99.5625 34.898438 99.449219 C 35.007812 99.445312 47.992188 99.449219 49.222656 99.449219 Z M 47.316406 41.820312 "/>
<path style=" stroke:none;fill-rule:evenodd;fill:url(#linear8);" d="M 268.222656 41.222656 C 271.246094 41.25 272.132812 41.1875 274.066406 44.921875 C 274.328125 45.433594 293.335938 91.519531 294.015625 93.203125 C 296.339844 99.699219 291.917969 99.5625 284.90625 99.753906 C 283.574219 99.75 267.820312 99.601562 266.273438 99.601562 Z M 268.222656 41.222656 "/>
</g>
</svg>
