<?xml version="1.0" encoding="UTF-8"?>
<svg xmlns="http://www.w3.org/2000/svg" xmlns:xlink="http://www.w3.org/1999/xlink" width="320px" height="320px" viewBox="0 0 320 320" version="1.1">
<g id="surface1">
<path style=" stroke:none;fill-rule:nonzero;fill:rgb(100%,50.196081%,67.843139%);fill-opacity:1;" d="M 318.410156 202.359375 C 301.792969 177.101562 276.492188 158.808594 247.300781 150.941406 C 218.078125 143.167969 187.015625 146.378906 159.996094 159.960938 C 176.617188 185.21875 201.914062 203.511719 231.105469 211.378906 C 260.332031 219.152344 291.390625 215.941406 318.410156 202.359375 Z M 318.410156 202.359375 "/>
<path style=" stroke:none;fill-rule:nonzero;fill:rgb(100%,21.568628%,21.568628%);fill-opacity:1;" d="M 275.976562 275.917969 C 274.214844 245.734375 261.453125 217.242188 240.105469 195.832031 C 218.683594 174.488281 190.179688 161.738281 159.988281 159.992188 C 161.75 190.175781 174.511719 218.667969 195.863281 240.078125 C 217.285156 261.417969 245.789062 274.171875 275.976562 275.917969 Z M 275.976562 275.917969 "/>
<path style=" stroke:none;fill-rule:nonzero;fill:rgb(100%,50.196081%,67.843139%);fill-opacity:1;" d="M 202.460938 318.371094 C 216.027344 291.347656 219.21875 260.292969 211.4375 231.078125 C 203.554688 201.882812 185.246094 176.589844 159.972656 159.980469 C 146.410156 187.003906 143.214844 218.058594 151 247.273438 C 158.878906 276.46875 177.1875 301.761719 202.460938 318.371094 Z M 202.460938 318.371094 "/>
<path style=" stroke:none;fill-rule:nonzero;fill:rgb(60.784316%,60.784316%,60.784316%);fill-opacity:1;" d="M 161.628906 160.433594 C 161.386719 161.335938 160.460938 161.871094 159.558594 161.628906 C 158.65625 161.390625 158.121094 160.460938 158.363281 159.558594 C 158.605469 158.65625 159.53125 158.121094 160.433594 158.363281 C 161.335938 158.605469 161.871094 159.53125 161.628906 160.433594 Z M 161.628906 160.433594 "/>
<path style=" stroke:none;fill-rule:nonzero;fill:rgb(100%,85.490197%,23.137255%);fill-opacity:1;" d="M 117.679688 318.410156 C 142.9375 301.792969 161.226562 276.492188 169.097656 247.300781 C 176.867188 218.074219 173.660156 187.015625 160.078125 159.996094 C 134.820312 176.617188 116.527344 201.914062 108.660156 231.105469 C 100.886719 260.332031 104.09375 291.390625 117.679688 318.410156 Z M 117.679688 318.410156 "/>
<path style=" stroke:none;fill-rule:nonzero;fill:rgb(100%,96.862745%,0.392157%);fill-opacity:1;" d="M 44.121094 275.976562 C 74.304688 274.214844 102.792969 261.453125 124.203125 240.105469 C 145.546875 218.679688 158.296875 190.179688 160.046875 159.988281 C 129.863281 161.75 101.371094 174.511719 79.960938 195.863281 C 58.617188 217.285156 45.867188 245.789062 44.121094 275.976562 Z M 44.121094 275.976562 "/>
<path style=" stroke:none;fill-rule:nonzero;fill:rgb(100%,85.490197%,23.137255%);fill-opacity:1;" d="M 1.667969 202.460938 C 28.6875 216.027344 59.742188 219.21875 88.957031 211.433594 C 118.15625 203.554688 143.449219 185.246094 160.054688 159.972656 C 133.035156 146.40625 101.980469 143.214844 72.765625 151 C 43.570312 158.878906 18.273438 177.1875 1.667969 202.460938 Z M 1.667969 202.460938 "/>
<path style=" stroke:none;fill-rule:nonzero;fill:rgb(28.627452%,85.490197%,100%);fill-opacity:1;" d="M 1.617188 117.613281 C 18.234375 142.875 43.53125 161.164062 72.726562 169.03125 C 101.949219 176.804688 133.011719 173.597656 160.027344 160.015625 C 143.410156 134.757812 118.113281 116.464844 88.917969 108.597656 C 59.695312 100.824219 28.632812 104.03125 1.617188 117.613281 Z M 1.617188 117.613281 "/>
<path style=" stroke:none;fill-rule:nonzero;fill:rgb(0.392157%,27.450982%,100%);fill-opacity:1;" d="M 44.046875 44.058594 C 45.8125 74.242188 58.574219 102.730469 79.921875 124.140625 C 101.34375 145.484375 129.847656 158.234375 160.039062 159.980469 C 158.273438 129.800781 145.511719 101.308594 124.164062 79.898438 C 102.742188 58.554688 74.238281 45.804688 44.046875 44.058594 Z M 44.046875 44.058594 "/>
<path style=" stroke:none;fill-rule:nonzero;fill:rgb(28.627452%,85.490197%,100%);fill-opacity:1;" d="M 117.566406 1.605469 C 104 28.625 100.808594 59.679688 108.589844 88.894531 C 116.472656 118.089844 134.78125 143.386719 160.054688 159.992188 C 173.617188 132.972656 176.8125 101.917969 169.027344 72.703125 C 161.144531 43.507812 142.835938 18.210938 117.566406 1.605469 Z M 117.566406 1.605469 "/>
<path style=" stroke:none;fill-rule:nonzero;fill:rgb(59.215689%,100%,0.392157%);fill-opacity:1;" d="M 202.347656 1.566406 C 177.089844 18.183594 158.796875 43.480469 150.929688 72.675781 C 143.15625 101.898438 146.367188 132.957031 159.949219 159.976562 C 185.207031 143.359375 203.5 118.0625 211.367188 88.867188 C 219.140625 59.644531 215.929688 28.582031 202.347656 1.566406 Z M 202.347656 1.566406 "/>
<path style=" stroke:none;fill-rule:nonzero;fill:rgb(0%,100%,0%);fill-opacity:1;" d="M 275.90625 43.996094 C 245.722656 45.757812 217.230469 58.523438 195.824219 79.871094 C 174.480469 101.292969 161.726562 129.796875 159.980469 159.988281 C 159.992188 159.984375 160.003906 159.984375 160.011719 159.984375 C 160.007812 159.976562 160.003906 159.96875 159.996094 159.960938 C 174.980469 152.46875 191.328125 148.097656 208.050781 147.117188 C 219.882812 141.210938 230.691406 133.445312 240.066406 124.113281 C 261.410156 102.691406 274.160156 74.1875 275.90625 43.996094 Z M 275.90625 43.996094 "/>
<path style=" stroke:none;fill-rule:nonzero;fill:rgb(59.215689%,100%,0.392157%);fill-opacity:1;" d="M 295.300781 108.695312 C 274.277344 102.984375 252.117188 102.929688 231.066406 108.539062 C 201.890625 116.417969 176.605469 134.710938 160 159.960938 C 187.015625 146.378906 218.078125 143.167969 247.300781 150.941406 C 255.386719 153.15625 263.222656 156.191406 270.695312 159.992188 C 290.027344 150.25 306.464844 135.601562 318.359375 117.515625 C 310.988281 113.8125 303.261719 110.859375 295.300781 108.695312 Z M 159.996094 159.960938 C 159.988281 159.972656 159.980469 159.988281 159.96875 160.003906 C 160 160.015625 160.027344 160.027344 160.054688 160.039062 C 160.035156 160.011719 160.015625 159.988281 159.996094 159.960938 Z M 159.996094 159.960938 "/>
</g>
</svg>
