<?xml version="1.0" encoding="UTF-8" standalone="no"?>
<!-- Generator: Adobe Illustrator 19.0.0, SVG Export Plug-In . SVG Version: 6.00 Build 0)  -->

<svg
   xmlns:dc="http://purl.org/dc/elements/1.1/"
   xmlns:cc="http://creativecommons.org/ns#"
   xmlns:rdf="http://www.w3.org/1999/02/22-rdf-syntax-ns#"
   xmlns:svg="http://www.w3.org/2000/svg"
   xmlns="http://www.w3.org/2000/svg"
   xmlns:sodipodi="http://sodipodi.sourceforge.net/DTD/sodipodi-0.dtd"
   xmlns:inkscape="http://www.inkscape.org/namespaces/inkscape"
   version="1.1"
   id="Layer_1"
   x="0px"
   y="0px"
   viewBox="0 0 320 320"
   xml:space="preserve"
   sodipodi:docname="alarm.svg"
   width="320"
   height="320"
   inkscape:version="0.92.4 (5da689c313, 2019-01-14)"><metadata
   id="metadata141"><rdf:RDF><cc:Work
       rdf:about=""><dc:format>image/svg+xml</dc:format><dc:type
         rdf:resource="http://purl.org/dc/dcmitype/StillImage" /><dc:title></dc:title></cc:Work></rdf:RDF></metadata><defs
   id="defs139">















	
	
	
	
	
	
	
	
	
	
	
	
	
	
	
	
	
	
	
	

		
	
		
	
		
	
		
	
		
	
		
	
		
	
		
	
		
	
		
	
		
	
		
	
		
	
		
	
		
	
		
	
		
	
		
	
		
	
		
	
			
		</defs><sodipodi:namedview
   pagecolor="#ffffff"
   bordercolor="#666666"
   borderopacity="1"
   objecttolerance="10"
   gridtolerance="10"
   guidetolerance="10"
   inkscape:pageopacity="0"
   inkscape:pageshadow="2"
   inkscape:window-width="1812"
   inkscape:window-height="940"
   id="namedview137"
   showgrid="false"
   showguides="true"
   inkscape:guide-bbox="true"
   inkscape:zoom="2.6077466"
   inkscape:cx="181.12186"
   inkscape:cy="299.49541"
   inkscape:window-x="30"
   inkscape:window-y="0"
   inkscape:window-maximized="1"
   inkscape:current-layer="Layer_1"><sodipodi:guide
     position="160,160"
     orientation="1,0"
     id="guide1017"
     inkscape:locked="false"
     inkscape:label=""
     inkscape:color="rgb(0,0,255)" /><sodipodi:guide
     position="160,160"
     orientation="0,1"
     id="guide1019"
     inkscape:locked="false"
     inkscape:label=""
     inkscape:color="rgb(0,0,255)" /></sodipodi:namedview>















<path
   inkscape:connector-curvature="0"
   style="fill:#ffebb7;stroke-width:0.62506914"
   d="m 265.0115,179.98452 c 0,57.90265 -47.10646,105.01162 -105.01161,105.01162 -57.90516,0 -105.011624,-47.10897 -105.011624,-105.01162 0,-57.90266 47.106464,-105.011622 105.011624,-105.011622 57.90515,0 105.01161,47.109582 105.01161,105.011622 z"
   id="path2" /><path
   inkscape:connector-curvature="0"
   style="fill:#ffffff;stroke-width:0.62506914"
   d="m 240.00874,179.98452 c 0,44.11613 -35.89085,80.00885 -80.00885,80.00885 -44.11801,0 -80.008857,-35.89272 -80.008857,-80.00885 0,-44.11613 35.890847,-80.008856 80.008857,-80.008856 44.118,0 80.00885,35.892726 80.00885,80.008856 z"
   id="path6" /><g
   id="g1192"><g
     transform="matrix(0.62506916,0,0,0.62506916,-3.1774352e-4,2.2734847e-4)"
     id="g12">
			<path
   id="path10"
   d="m 345.83,113.37 c 2.883,0 5.664,-1.559 7.094,-4.281 L 369.338,77.8 c 2.055,-3.91 0.547,-8.746 -3.367,-10.801 -3.93,-2.055 -8.75,-0.539 -10.805,3.371 l -16.414,31.285 c -2.055,3.91 -0.547,8.746 3.367,10.801 1.188,0.621 2.461,0.914 3.711,0.914 z"
   style="fill:#5d647f"
   inkscape:connector-curvature="0" />
		</g><path
     id="path16"
     d="m 185.43645,24.794846 c 11.87631,-22.6150025 39.92129,-31.3703462 62.54567,-19.492157 10.95309,5.747511 19.01585,15.421706 22.69751,27.234263 3.68166,11.812557 2.54403,24.35332 -3.20348,35.308907 -0.89385,1.704564 -2.63216,2.675921 -4.43424,2.675921 -0.78134,0 -1.57705,-0.183145 -2.31963,-0.573813 l -73.1806,-38.401749 c -1.172,-0.615068 -2.05585,-1.672685 -2.45152,-2.939701 -0.39067,-1.264514 -0.26878,-2.637166 0.34629,-3.811671 z"
     style="fill:#b4b6bc;stroke-width:0.62506914"
     inkscape:connector-curvature="0" /><path
     id="path20"
     d="m 247.95837,5.2920629 c 0.008,0.00438 0.0162,0.00688 0.0244,0.011251 10.95308,5.7475111 19.01585,15.4217061 22.69751,27.2342631 3.68165,11.812557 2.54403,24.35332 -3.20348,35.308907 -0.89385,1.704564 -2.63217,2.675921 -4.43424,2.675921 -0.78134,0 -1.57705,-0.183145 -2.31964,-0.573813 L 224.10948,50.735216 Z"
     style="fill:#868491;stroke-width:0.62506914"
     inkscape:connector-curvature="0" /></g><g
   id="g32"
   transform="matrix(0.62506916,0,0,0.62506916,-3.1774352e-4,2.2734847e-4)">
			<path
   inkscape:connector-curvature="0"
   style="fill:#5d647f"
   d="m 127.964,511.943 c -1.383,0 -2.789,-0.359 -4.07,-1.117 -3.805,-2.254 -5.055,-7.16 -2.805,-10.961 l 23.703,-40 c 2.25,-3.793 7.156,-5.055 10.961,-2.805 3.805,2.254 5.055,7.16 2.805,10.961 l -23.703,40 c -1.493,2.524 -4.157,3.922 -6.891,3.922 z"
   id="path30" />
		</g><g
   id="g38"
   transform="matrix(0.62506916,0,0,0.62506916,-3.1774352e-4,2.2734847e-4)">
			<path
   inkscape:connector-curvature="0"
   style="fill:#5d647f"
   d="m 383.979,511.943 c -2.734,0 -5.398,-1.398 -6.891,-3.922 l -24,-40.5 c -2.25,-3.801 -1,-8.707 2.805,-10.961 3.82,-2.25 8.719,-0.996 10.961,2.805 l 24,40.5 c 2.25,3.801 1,8.707 -2.805,10.961 -1.281,0.758 -2.687,1.117 -4.07,1.117 z"
   id="path36" />
		</g><path
   style="fill:none;stroke:#000000;stroke-width:0.82499999;stroke-miterlimit:4;stroke-dasharray:none;stroke-opacity:1"
   d="m 225.8418,-79.994141 c -16.43395,0.244928 -32.24129,9.241249 -40.40625,24.789063 -0.61507,1.174505 -0.73638,2.547986 -0.34571,3.8125 0.39567,1.267016 1.27918,2.324385 2.45118,2.939453 l 32.14062,16.865234 -7.93945,15.128907 c -1.28452,2.44402 -0.34105,5.467436 2.10547,6.751953 0.74258,0.388168 1.53897,0.572265 2.32031,0.572265 1.80207,0 3.53974,-0.976296 4.43359,-2.677734 l 7.9375,-15.128906 7.20313,3.78125 24.98047,13.109375 c 0.74197,0.390344 1.53959,0.571962 2.32031,0.572265 0.2246,-8.7e-5 0.44882,-0.01512 0.66992,-0.04492 1.10871,-0.149448 2.15521,-0.667218 2.94727,-1.49414 0.15841,-0.165385 0.30676,-0.341557 0.44336,-0.53125 0.13659,-0.189693 0.26131,-0.392398 0.37304,-0.605469 1.43688,-2.738897 2.58599,-5.577618 3.44336,-8.478515 0.21434,-0.725225 0.41002,-1.453022 0.58789,-2.185547 1.24508,-5.127678 1.59544,-10.421515 1.03321,-15.685547 -0.0802,-0.751364 -0.1794,-1.502321 -0.29688,-2.251953 0,0 0,-0.002 0,-0.002 -0.0181,-0.11544 -0.0435,-0.230321 -0.0625,-0.345704 -0.35108,-2.133766 -0.84722,-4.258658 -1.50195,-6.359375 -0.69031,-2.214854 -1.53491,-4.35549 -2.52344,-6.408203 -0.32926,-0.683714 -0.67427,-1.357502 -1.03516,-2.021484 0,0 0,-0.002 0,-0.002 -0.36119,-0.664476 -0.73871,-1.317098 -1.13086,-1.960938 -0.78428,-1.28768 -1.62948,-2.534475 -2.5332,-3.734375 -0.45155,-0.599542 -0.91815,-1.187353 -1.39844,-1.763672 0,0 0,-0.002 0,-0.002 -0.48063,-0.576694 -0.9757,-1.140793 -1.48437,-1.693359 -0.50867,-0.552567 -1.03238,-1.093529 -1.56836,-1.621094 -0.53564,-0.527232 -1.08429,-1.041578 -1.64648,-1.542969 0,0 -0.002,0 -0.002,0 -0.56219,-0.50136 -1.13659,-0.990195 -1.72461,-1.464843 0,0 -0.002,0 -0.002,0 -0.4514,-0.36435 -0.91657,-0.714347 -1.38281,-1.0625 -0.14087,-0.105179 -0.27772,-0.218589 -0.41993,-0.322266 -0.61355,-0.447322 -1.239,-0.880001 -1.87695,-1.298828 -1.2759,-0.837655 -2.59961,-1.617499 -3.96875,-2.335938 -7.07003,-3.711795 -14.67056,-5.408065 -22.14053,-5.296736 z"
   id="path1170"
   inkscape:connector-curvature="0" /><g
   id="g1186"><g
     transform="matrix(0.62506916,0,0,0.62506916,-3.1774352e-4,2.2734847e-4)"
     id="g26">
			<path
   id="path24"
   d="m 165.894,113.37 c -2.883,0 -5.664,-1.559 -7.094,-4.281 L 142.386,77.8 c -2.055,-3.91 -0.547,-8.746 3.367,-10.801 3.93,-2.055 8.75,-0.539 10.805,3.371 l 16.414,31.285 c 2.055,3.91 0.547,8.746 -3.367,10.801 -1.188,0.621 -2.461,0.914 -3.711,0.914 z"
   style="fill:#5d647f"
   inkscape:connector-curvature="0" />
		</g><path
     id="path74"
     d="M 134.42581,24.794846 C 122.54949,2.1798435 94.504514,-6.5755002 71.880135,5.302689 60.926423,11.0502 52.864281,20.724395 49.182624,32.536952 c -3.681657,11.812557 -2.544031,24.35332 3.203479,35.308907 0.893849,1.704564 2.632167,2.675921 4.434241,2.675921 0.781337,0 1.57705,-0.183145 2.319632,-0.573813 L 132.32057,31.546218 c 1.17201,-0.615068 2.05586,-1.672685 2.45152,-2.939701 0.39067,-1.264514 0.26878,-2.637166 -0.34628,-3.811671 z"
     style="fill:#b4b6bc;stroke-width:0.62506914"
     inkscape:connector-curvature="0" /><path
     id="path96"
     d="m 71.903888,5.2920629 c -0.0081,0.00438 -0.01625,0.00688 -0.02438,0.011251 C 60.925798,11.050825 52.863656,20.72502 49.181999,32.537577 c -3.681657,11.812557 -2.544032,24.35332 3.203479,35.308907 0.893849,1.704564 2.632167,2.675921 4.434241,2.675921 0.781336,0 1.57705,-0.183145 2.319632,-0.573813 L 95.752777,50.735216 Z"
     style="fill:#868491;stroke-width:0.62506914"
     inkscape:connector-curvature="0" /></g><path
   inkscape:connector-curvature="0"
   id="path1180"
   d="m 93.82471,-79.994141 c 16.43395,0.244928 32.24129,9.241249 40.40625,24.789063 0.61507,1.174505 0.73638,2.547986 0.34571,3.8125 -0.39567,1.267016 -1.27918,2.324385 -2.45118,2.939453 l -32.14062,16.865234 7.93945,15.128907 c 1.28452,2.44402 0.34105,5.467436 -2.10547,6.751953 -0.74258,0.388168 -1.53897,0.572265 -2.32031,0.572265 -1.80207,0 -3.53974,-0.976296 -4.43359,-2.677734 l -7.9375,-15.128906 -7.20313,3.78125 -24.98047,13.109375 c -0.74197,0.390344 -1.53959,0.571962 -2.32031,0.572265 -0.2246,-8.7e-5 -0.44882,-0.01512 -0.66992,-0.04492 -1.10871,-0.149448 -2.15521,-0.667218 -2.94727,-1.49414 -0.15841,-0.165385 -0.30676,-0.341557 -0.44336,-0.53125 -0.13659,-0.189693 -0.26131,-0.392398 -0.37304,-0.605469 -1.43688,-2.738897 -2.58599,-5.577618 -3.44336,-8.478515 -0.21434,-0.725225 -0.41002,-1.453022 -0.58789,-2.185547 -1.24508,-5.127678 -1.59544,-10.421515 -1.03321,-15.685547 0.0802,-0.751364 0.1794,-1.502321 0.29688,-2.251953 0,0 0,-0.002 0,-0.002 0.0181,-0.11544 0.0435,-0.230321 0.0625,-0.345704 0.35108,-2.133766 0.84722,-4.258658 1.50195,-6.359375 0.69031,-2.214854 1.53491,-4.35549 2.52344,-6.408203 0.32926,-0.683714 0.67427,-1.357502 1.03516,-2.021484 0,0 0,-0.002 0,-0.002 0.36119,-0.664476 0.73871,-1.317098 1.13086,-1.960938 0.78428,-1.28768 1.62948,-2.534475 2.5332,-3.734375 0.45155,-0.599542 0.91815,-1.187353 1.39844,-1.763672 0,0 0,-0.002 0,-0.002 0.48063,-0.576694 0.9757,-1.140793 1.48437,-1.693359 0.50867,-0.552567 1.03238,-1.093529 1.56836,-1.621094 0.53564,-0.527232 1.08429,-1.041578 1.64648,-1.542969 0,0 0.002,0 0.002,0 0.56219,-0.50136 1.13659,-0.990195 1.72461,-1.464843 0,0 0.002,0 0.002,0 0.4514,-0.364349 0.91657,-0.714347 1.38281,-1.0625 0.14087,-0.105179 0.27772,-0.218589 0.41993,-0.322266 0.61355,-0.447322 1.239,-0.880001 1.87695,-1.298828 1.2759,-0.837655 2.59961,-1.617499 3.96875,-2.335938 7.07003,-3.711795 14.67056,-5.408065 22.14053,-5.296736 z"
   style="fill:none;stroke:#000000;stroke-width:0.82499999;stroke-miterlimit:4;stroke-dasharray:none;stroke-opacity:1" /><path
   inkscape:connector-curvature="0"
   style="fill:#60dc4d;stroke-width:0.62506914"
   d="m 159.99989,49.970131 c -71.692312,0 -130.01439,58.324579 -130.01439,130.014389 0,71.6898 58.322078,130.01438 130.01439,130.01438 71.6923,0 130.01438,-58.32458 130.01438,-130.01438 0,-71.68981 -58.32208,-130.014389 -130.01438,-130.014389 z M 260.01095,179.98452 c 0,55.14547 -44.86309,100.01106 -100.01106,100.01106 -55.14798,0 -100.01107,-44.86559 -100.01107,-100.01106 0,-55.14548 44.86309,-100.011069 100.01107,-100.011069 55.14797,0 100.01106,44.866219 100.01106,100.011069 z"
   id="path42" /><path
   inkscape:connector-curvature="0"
   style="fill:#00c37a;stroke-width:0.62506914"
   d="m 159.863,279.98871 c -55.08422,-0.075 -99.87418,-44.90497 -99.87418,-100.00419 0,-55.09922 44.78996,-99.929185 99.87418,-100.004193 V 49.973882 C 88.233195,50.048265 29.9855,108.34034 29.9855,179.98452 c 0,71.64417 58.247695,129.93625 129.8775,130.01126 z"
   id="path46" /><g
   id="g52"
   transform="matrix(0.62506916,0,0,0.62506916,-3.1774352e-4,2.2734847e-4)">
			<path
   inkscape:connector-curvature="0"
   style="fill:#868491"
   d="m 151.972,295.943 h -32 c -4.422,0 -8,-3.582 -8,-8 0,-4.418 3.578,-8 8,-8 h 32 c 4.422,0 8,3.582 8,8 0,4.418 -3.578,8 -8,8 z"
   id="path50" />
		</g><g
   id="g58"
   transform="matrix(0.62506916,0,0,0.62506916,-3.1774352e-4,2.2734847e-4)">
			<path
   inkscape:connector-curvature="0"
   style="fill:#868491"
   d="m 391.972,295.943 h -32 c -4.422,0 -8,-3.582 -8,-8 0,-4.418 3.578,-8 8,-8 h 32 c 4.422,0 8,3.582 8,8 0,4.418 -3.579,8 -8,8 z"
   id="path56" />
		</g><g
   id="g64"
   transform="matrix(0.62506916,0,0,0.62506916,-3.1774352e-4,2.2734847e-4)">
			<path
   inkscape:connector-curvature="0"
   style="fill:#868491"
   d="m 255.972,431.943 c -4.422,0 -8,-3.582 -8,-8 v -32 c 0,-4.418 3.578,-8 8,-8 4.422,0 8,3.582 8,8 v 32 c 0,4.418 -3.579,8 -8,8 z"
   id="path62" />
		</g><g
   id="g70"
   transform="matrix(0.62506916,0,0,0.62506916,-3.1774352e-4,2.2734847e-4)">
			<path
   inkscape:connector-curvature="0"
   style="fill:#868491"
   d="m 255.972,191.943 c -4.422,0 -8,-3.582 -8,-8 v -32 c 0,-4.418 3.578,-8 8,-8 4.422,0 8,3.582 8,8 v 32 c 0,4.418 -3.579,8 -8,8 z"
   id="path68" />
		</g><g
   id="g80"
   transform="matrix(0.62506916,0,0,0.62506916,-3.1774352e-4,2.2734847e-4)">
			<path
   inkscape:connector-curvature="0"
   style="fill:#5d647f"
   d="m 231.972,295.943 h -40 c -4.422,0 -8,-3.582 -8,-8 0,-4.418 3.578,-8 8,-8 h 40 c 4.422,0 8,3.582 8,8 0,4.418 -3.579,8 -8,8 z"
   id="path78" />
		</g><g
   id="g86"
   transform="matrix(0.62506916,0,0,0.62506916,-3.1774352e-4,2.2734847e-4)">
			<path
   inkscape:connector-curvature="0"
   style="fill:#5d647f"
   d="m 255.972,279.943 c -4.422,0 -8,-3.582 -8,-8 v -56 c 0,-4.418 3.578,-8 8,-8 4.422,0 8,3.582 8,8 v 56 c 0,4.418 -3.579,8 -8,8 z"
   id="path84" />
		</g><g
   id="g92"
   transform="matrix(0.62506916,0,0,0.62506916,-3.1774352e-4,2.2734847e-4)">
			<path
   inkscape:connector-curvature="0"
   style="fill:#ff4f19"
   d="m 335.972,375.943 c -2.047,0 -4.094,-0.781 -5.656,-2.344 l -80,-80 c -3.125,-3.125 -3.125,-8.187 0,-11.312 3.125,-3.125 8.188,-3.125 11.313,0 l 80,80 c 3.125,3.125 3.125,8.188 0,11.313 -1.564,1.562 -3.611,2.343 -5.657,2.343 z"
   id="path90" />
		</g><circle
   style="fill:#5c546a;stroke-width:0.62506914"
   cx="159.99988"
   cy="179.98451"
   r="15.001659"
   id="circle100" />
</svg>