<?xml version="1.0" encoding="UTF-8" standalone="no"?>
<!-- Generator: Adobe Illustrator 19.0.0, SVG Export Plug-In . SVG Version: 6.00 Build 0)  -->

<svg
   xmlns:dc="http://purl.org/dc/elements/1.1/"
   xmlns:cc="http://creativecommons.org/ns#"
   xmlns:rdf="http://www.w3.org/1999/02/22-rdf-syntax-ns#"
   xmlns:svg="http://www.w3.org/2000/svg"
   xmlns="http://www.w3.org/2000/svg"
   xmlns:xlink="http://www.w3.org/1999/xlink"
   xmlns:sodipodi="http://sodipodi.sourceforge.net/DTD/sodipodi-0.dtd"
   xmlns:inkscape="http://www.inkscape.org/namespaces/inkscape"
   version="1.1"
   id="Layer_1"
   x="0px"
   y="0px"
   viewBox="0 0 320 320"
   xml:space="preserve"
   sodipodi:docname="birthday2.svg"
   inkscape:version="0.92.4 (5da689c313, 2019-01-14)"
   width="320"
   height="320"><metadata
   id="metadata73"><rdf:RDF><cc:Work
       rdf:about=""><dc:format>image/svg+xml</dc:format><dc:type
         rdf:resource="http://purl.org/dc/dcmitype/StillImage" /><dc:title /></cc:Work></rdf:RDF></metadata><defs
   id="defs71"><linearGradient
     inkscape:collect="always"
     id="linearGradient1280"><stop
       style="stop-color:#a0ffff;stop-opacity:1"
       offset="0"
       id="stop1276" /><stop
       style="stop-color:#ceffff;stop-opacity:0.96470588"
       offset="1"
       id="stop1278" /></linearGradient><linearGradient
     inkscape:collect="always"
     id="linearGradient1091"><stop
       style="stop-color:#85d3ff;stop-opacity:1;"
       offset="0"
       id="stop1087" /><stop
       style="stop-color:#85d3ff;stop-opacity:0;"
       offset="1"
       id="stop1089" /></linearGradient><linearGradient
     inkscape:collect="always"
     id="linearGradient1051"><stop
       style="stop-color:#fffffa;stop-opacity:1"
       offset="0"
       id="stop1047" /><stop
       style="stop-color:#f8ff8f;stop-opacity:0.43921569"
       offset="1"
       id="stop1049" /></linearGradient><radialGradient
     inkscape:collect="always"
     xlink:href="#linearGradient1051"
     id="radialGradient1053"
     cx="49.983673"
     cy="11.005019"
     fx="49.983673"
     fy="11.005019"
     r="3.6410799"
     gradientTransform="matrix(0.42484515,-0.00367939,0.00865605,2.1079205,28.669419,-9.240359)"
     gradientUnits="userSpaceOnUse" /><radialGradient
     inkscape:collect="always"
     xlink:href="#linearGradient1091"
     id="radialGradient1093"
     cx="50"
     cy="14.525424"
     fx="50"
     fy="14.525424"
     r="1.5"
     gradientTransform="matrix(1,0,0,0.76836157,0,3.7646805)"
     gradientUnits="userSpaceOnUse" /><filter
     inkscape:collect="always"
     style="color-interpolation-filters:sRGB"
     id="filter1248"
     x="-0.336"
     width="1.6720001"
     y="-0.336"
     height="1.6720001"><feGaussianBlur
       inkscape:collect="always"
       stdDeviation="1.26"
       id="feGaussianBlur1250" /></filter><filter
     inkscape:collect="always"
     style="color-interpolation-filters:sRGB"
     id="filter1272"
     x="-0.06144499"
     width="1.12289"
     y="-0.025457706"
     height="1.0509154"><feGaussianBlur
       inkscape:collect="always"
       stdDeviation="0.079208963"
       id="feGaussianBlur1274" /></filter><linearGradient
     inkscape:collect="always"
     xlink:href="#linearGradient1280"
     id="linearGradient1282"
     x1="45.569"
     y1="28.521456"
     x2="54.431999"
     y2="28.521456"
     gradientUnits="userSpaceOnUse"
     gradientTransform="matrix(3.2,0,0,3.2,0,2.31704)" /></defs><sodipodi:namedview
   pagecolor="#ffffff"
   bordercolor="#666666"
   borderopacity="1"
   objecttolerance="10"
   gridtolerance="10"
   guidetolerance="10"
   inkscape:pageopacity="0"
   inkscape:pageshadow="2"
   inkscape:window-width="1812"
   inkscape:window-height="940"
   id="namedview69"
   showgrid="false"
   inkscape:zoom="1.4142136"
   inkscape:cx="266.46133"
   inkscape:cy="86.924709"
   inkscape:window-x="30"
   inkscape:window-y="0"
   inkscape:window-maximized="1"
   inkscape:current-layer="Layer_1"
   showguides="true"
   inkscape:guide-bbox="true"><sodipodi:guide
     position="0,0"
     orientation="0,1"
     id="guide5189"
     inkscape:locked="false"
     inkscape:label=""
     inkscape:color="rgb(0,0,255)" /></sodipodi:namedview>



























<g
   id="g5261"
   transform="translate(0,-2.0002568)"><rect
     ry="32"
     rx="32"
     style="opacity:1;fill:#4d4d4d;fill-opacity:1;stroke:none;stroke-width:4.65026045;stroke-miterlimit:4;stroke-dasharray:none;stroke-opacity:1;paint-order:stroke fill markers"
     id="rect1014"
     width="320"
     height="366.60699"
     x="0"
     y="2.6302621" /><path
     sodipodi:nodetypes="csc"
     inkscape:connector-curvature="0"
     id="path1286"
     d="m 160.00655,59.98104 c -0.002,-2.930502 0.016,-5.511226 -0.003,-8.15055 -0.004,-0.582861 -0.14896,-1.484887 -0.41748,-1.974468"
     style="fill:none;stroke:#000000;stroke-width:0.63999999;stroke-linecap:round;stroke-linejoin:miter;stroke-miterlimit:4;stroke-dasharray:none;stroke-opacity:1" /><path
     id="path18"
     d="m 80.799731,122.68951 c -9.164141,0 -16.594297,7.42901 -16.594297,16.59315 v 67.36552 h -12.85514 c -10.569632,0 -19.136697,8.56821 -19.136697,19.13784 v 64.82084 H 287.78641 v -64.82084 c 0,-10.56904 -8.56821,-19.13784 -19.13785,-19.13784 h -12.30084 v -67.36552 c 0,-9.16472 -7.43016,-16.59315 -16.59431,-16.59315 z"
     style="fill:#ffdd7b;fill-opacity:1;stroke-width:0.58635479"
     inkscape:connector-curvature="0" /><g
     transform="matrix(0.58635478,0,0,0.58635478,9.8931773,19.839213)"
     id="g28">
	<path
   id="path24"
   d="m 441.295,318.594 h -28.639 c 18.026,0 32.638,14.612 32.638,32.638 v 110.55 h 28.639 v -110.55 c 0.001,-18.025 -14.612,-32.638 -32.638,-32.638 z"
   style="fill:#f7cf6d"
   inkscape:connector-curvature="0" />
	<path
   id="path26"
   d="m 392.016,175.406 h -28.629 c 15.629,0 28.817,12.573 28.817,28.202 v 114.889 l 28.111,0.098 v -114.89 c 10e-4,-15.63 -12.67,-28.299 -28.299,-28.299 z"
   style="fill:#f7cf6d"
   inkscape:connector-curvature="0" />
</g><path
     inkscape:connector-curvature="0"
     id="path4"
     d="M 281.89085,318.82386 H 38.109155 c -15.582964,0 -28.2159777,-12.63301 -28.2159777,-28.21598 v 0 H 310.10683 v 0 c 0,15.58297 -12.63302,28.21598 -28.21598,28.21598 z"
     style="fill:#d9d9db;stroke:#000000;stroke-width:0.58635479;stroke-opacity:1" /><path
     inkscape:connector-curvature="0"
     id="path6"
     d="M 29.628707,290.93507 H 9.8931773 c 0,15.19048 12.6330137,27.50532 28.2159777,27.50532 h 19.73553 c -15.582963,0 -28.215978,-12.31484 -28.215978,-27.50532 z"
     style="fill:#e1e1e3;stroke-width:0.57892358" /><g
     transform="matrix(0.58635478,0,0,0.57158211,9.8931773,26.988373)"
     id="g12">
	<path
   inkscape:connector-curvature="0"
   id="path8"
   d="m 458.611,461.783 c 0,26.576 -21.545,48.121 -48.121,48.121 h 53.389 c 26.576,0 48.121,-21.545 48.121,-48.121 z"
   style="fill:#c8c6cd" />
	<path
   inkscape:connector-curvature="0"
   id="path10"
   d="m 396.483,461.783 c 0,26.576 -13.851,48.121 -30.936,48.121 h 34.322 c 17.086,0 30.936,-21.545 30.936,-48.121 z"
   style="fill:#c8c6cd" />
</g><rect
     y="60.315514"
     x="146.42436"
     height="66.540359"
     width="27.15447"
     id="rect1055"
     style="opacity:1;fill:url(#linearGradient1282);fill-opacity:1;stroke:#100c01;stroke-width:1.20712769;stroke-miterlimit:4;stroke-dasharray:none;stroke-opacity:1;paint-order:stroke fill markers" /><path
     id="path30"
     d="M 239.75364,122.68936 H 80.799302 c -9.164137,0 -16.59384,7.4297 -16.59384,16.59384 v 21.53036 h 0.28144 c 10.668138,-0.25037 10.503373,-13.59639 20.667248,-13.65385 10.199053,-0.0569 14.017984,15.865 24.45862,15.89431 10.50689,0.0294 14.5369,-16.07374 25.44428,-16.16697 10.64116,-0.0915 14.62603,15.16958 25.61491,15.15962 10.88978,-0.009 15.39884,-15.00424 25.4519,-14.70989 9.85134,0.28791 12.27768,14.88872 22.13313,15.17897 10.12283,0.29728 14.99368,-14.89459 25.4519,-14.70988 10.28936,0.18118 12.3328,15.71665 22.35713,15.86734 l 0.28144,-0.0192 v -24.37008 c 0,-9.16589 -7.42971,-16.59442 -16.59384,-16.59442 z"
     style="fill:#ff8588;fill-opacity:1;stroke-width:0.58635479"
     inkscape:connector-curvature="0" /><path
     id="path32"
     d="m 239.75364,122.68936 h -16.78676 c 9.16414,0 16.89699,7.37224 16.89699,16.53638 v 10.90502 c 5.55337,4.3789 8.56078,13.42636 16.20098,13.54128 l 0.28144,-0.0189 v -24.37008 c 10e-4,-9.16531 -7.42853,-16.59384 -16.59266,-16.59384 z"
     style="fill:#ef8990;stroke-width:0.58635479"
     inkscape:connector-curvature="0" /><path
     id="path34"
     d="M 268.64333,206.64833 H 51.344941 c -10.569629,0 -19.137447,8.56781 -19.137447,19.13745 v 19.96538 c 10.383757,-0.4773 10.318672,-13.57939 20.391661,-13.63627 10.199056,-0.0575 14.01857,15.865 24.458618,15.89432 10.506889,0.0294 14.536909,-16.07374 25.444277,-16.16698 10.64117,-0.0915 14.62604,15.16959 25.61491,15.15962 10.88978,-0.009 15.39885,-15.00423 25.4519,-14.70988 9.85135,0.2879 12.27768,14.88872 22.13314,15.17896 10.12283,0.29728 14.99367,-14.89458 25.4519,-14.70988 10.28935,0.18119 12.728,14.09011 22.75174,14.2408 10.88978,-0.009 15.39885,-15.00423 25.4519,-14.70988 9.85135,0.2879 12.27768,14.88872 22.13313,15.17896 6.55955,0.19232 10.91383,-6.11802 16.01159,-10.53503 l 0.27677,-0.14365 v -11.00588 c 0.002,-10.56963 -8.56606,-19.13803 -19.13569,-19.13803 z"
     style="fill:#ff8588;fill-opacity:1;stroke-width:0.58635479"
     inkscape:connector-curvature="0" /><path
     id="path36"
     d="M 268.64861,206.64833 H 251.856 c 10.56963,0 19.13744,8.56781 19.13744,19.13745 v 21.65349 c 0.16596,0.0134 0.33305,0.0262 0.50368,0.031 6.55956,0.19232 10.91382,-6.11802 16.01159,-10.53503 l 0.27677,-0.14365 v -11.00585 c 10e-4,-10.56905 -8.56723,-19.13745 -19.13686,-19.13745 z"
     style="fill:#ef8990;stroke-width:0.58635479"
     inkscape:connector-curvature="0" /><g
     transform="matrix(0.58635478,0,0,0.58635478,9.8931773,19.839213)"
     id="g38">
</g><g
     transform="matrix(0.58635478,0,0,0.58635478,9.8931773,19.839213)"
     id="g40">
</g><g
     transform="matrix(0.58635478,0,0,0.58635478,9.8931773,19.839213)"
     id="g42">
</g><g
     transform="matrix(0.58635478,0,0,0.58635478,9.8931773,19.839213)"
     id="g44">
</g><g
     transform="matrix(0.58635478,0,0,0.58635478,9.8931773,19.839213)"
     id="g46">
</g><g
     transform="matrix(0.58635478,0,0,0.58635478,9.8931773,19.839213)"
     id="g48">
</g><g
     transform="matrix(0.58635478,0,0,0.58635478,9.8931773,19.839213)"
     id="g50">
</g><g
     transform="matrix(0.58635478,0,0,0.58635478,9.8931773,19.839213)"
     id="g52">
</g><g
     transform="matrix(0.58635478,0,0,0.58635478,9.8931773,19.839213)"
     id="g54">
</g><g
     transform="matrix(0.58635478,0,0,0.58635478,9.8931773,19.839213)"
     id="g56">
</g><g
     transform="matrix(0.58635478,0,0,0.58635478,9.8931773,19.839213)"
     id="g58">
</g><g
     transform="matrix(0.58635478,0,0,0.58635478,9.8931773,19.839213)"
     id="g60">
</g><g
     transform="matrix(0.58635478,0,0,0.58635478,9.8931773,19.839213)"
     id="g62">
</g><g
     transform="matrix(0.58635478,0,0,0.58635478,9.8931773,19.839213)"
     id="g64">
</g><g
     transform="matrix(0.58635478,0,0,0.58635478,9.8931773,19.839213)"
     id="g66">
</g><g
     transform="matrix(3.5906496,0,0,3.5906496,-19.489438,-2.3398464)"
     id="g867"><circle
       style="opacity:0.36000001;fill:#ffdf6f;fill-opacity:1;stroke:none;stroke-width:0.34178504;stroke-miterlimit:4;stroke-dasharray:none;stroke-opacity:1;paint-order:stroke fill markers;filter:url(#filter1248)"
       id="path1114"
       cx="49.95763"
       cy="12.293763"
       r="4.5"
       transform="matrix(1.2928482,0,0,1.2928482,-14.697799,-3.9730878)" /><path
       inkscape:connector-curvature="0"
       style="fill:url(#radialGradient1053);fill-opacity:1;stroke-width:0.1211827;filter:url(#filter1272)"
       d="m 51.547088,13.951547 c 0,1.453097 -0.692554,1.743099 -1.546922,1.748453 -0.956257,0.006 -1.548668,-0.481121 -1.546923,-1.748453 0.0021,-1.537756 0.85345,-4.176664 1.292592,-5.432625 0.133433,-0.381618 0.375306,-0.381618 0.508817,0 0.438986,1.255961 1.292436,3.894837 1.292436,5.432625 z"
       id="path14"
       sodipodi:nodetypes="sssccs" /><path
       inkscape:connector-curvature="0"
       style="opacity:1;fill:url(#radialGradient1093);fill-opacity:1;stroke:none;stroke-width:0.39548621;stroke-miterlimit:4;stroke-dasharray:none;stroke-opacity:1;paint-order:stroke fill markers"
       d="m 50,13.773438 a 1.5,1.1525424 0 0 0 -1.460938,0.890624 c 0.192378,0.736655 0.712707,1.039851 1.460938,1.035157 0.684669,-0.0043 1.259198,-0.201457 1.462891,-1.023438 A 1.5,1.1525424 0 0 0 50,13.773438 Z"
       id="path1063" /></g></g></svg>