<?xml version="1.0" encoding="UTF-8" standalone="no"?>
<svg
   xmlns:dc="http://purl.org/dc/elements/1.1/"
   xmlns:cc="http://creativecommons.org/ns#"
   xmlns:rdf="http://www.w3.org/1999/02/22-rdf-syntax-ns#"
   xmlns:svg="http://www.w3.org/2000/svg"
   xmlns="http://www.w3.org/2000/svg"
   xmlns:xlink="http://www.w3.org/1999/xlink"
   xmlns:sodipodi="http://sodipodi.sourceforge.net/DTD/sodipodi-0.dtd"
   xmlns:inkscape="http://www.inkscape.org/namespaces/inkscape"
   viewBox="0 0 320 320"
   version="1.1"
   id="svg64"
   sodipodi:docname="green_clover.svg"
   inkscape:version="0.92.4 (5da689c313, 2019-01-14)"
   width="320"
   height="320">
  <metadata
     id="metadata68">
    <rdf:RDF>
      <cc:Work
         rdf:about="">
        <dc:format>image/svg+xml</dc:format>
        <dc:type
           rdf:resource="http://purl.org/dc/dcmitype/StillImage" />
        <dc:title></dc:title>
      </cc:Work>
    </rdf:RDF>
  </metadata>
  <sodipodi:namedview
     pagecolor="#ffffff"
     bordercolor="#666666"
     borderopacity="1"
     objecttolerance="10"
     gridtolerance="10"
     guidetolerance="10"
     inkscape:pageopacity="0"
     inkscape:pageshadow="2"
     inkscape:window-width="1812"
     inkscape:window-height="940"
     id="namedview66"
     showgrid="false"
     inkscape:zoom="1.7383042"
     inkscape:cx="149.095"
     inkscape:cy="143.36265"
     inkscape:window-x="30"
     inkscape:window-y="0"
     inkscape:window-maximized="1"
     inkscape:current-layer="svg64" />
  <defs
     id="defs28">
    <filter
       id="p"
       x="-0.1627"
       y="-0.093405999"
       width="1.3254"
       height="1.1868">
      <feGaussianBlur
         stdDeviation="0.362437"
         id="feGaussianBlur2" />
    </filter>
    <filter
       id="o"
       x="-0.07863"
       y="-0.18155"
       width="1.1573"
       height="1.3631001">
      <feGaussianBlur
         stdDeviation="0.362437"
         id="feGaussianBlur5" />
    </filter>
    <filter
       id="q"
       x="-0.13294999"
       y="-0.099411003"
       width="1.2659"
       height="1.1988">
      <feGaussianBlur
         stdDeviation="0.362437"
         id="feGaussianBlur8" />
    </filter>
    <filter
       id="r"
       x="-0.18584"
       y="-0.079076998"
       width="1.3717"
       height="1.1582">
      <feGaussianBlur
         stdDeviation="0.362437"
         id="feGaussianBlur11" />
    </filter>
    <linearGradient
       id="a">
      <stop
         stop-color="#7ed249"
         offset="0"
         id="stop14" />
      <stop
         stop-color="#286325"
         offset="1"
         id="stop16" />
    </linearGradient>
    <linearGradient
       id="z"
       x1="31.036879"
       x2="19.530813"
       y1="41.767921"
       y2="27.630272"
       xlink:href="#a"
       gradientTransform="scale(0.97284789,1.0279099)"
       gradientUnits="userSpaceOnUse" />
    <linearGradient
       id="aa"
       x1="36.836468"
       x2="64.138756"
       y1="14.216245"
       y2="15.05126"
       xlink:href="#a"
       gradientTransform="scale(0.45686021,2.1888534)"
       gradientUnits="userSpaceOnUse" />
    <linearGradient
       id="y"
       x1="71.519447"
       x2="49.845177"
       y1="13.681567"
       y2="13.850113"
       xlink:href="#a"
       gradientTransform="scale(0.45686021,2.1888534)"
       gradientUnits="userSpaceOnUse" />
    <linearGradient
       id="s"
       x1="43.015366"
       x2="34.965706"
       y1="33.679832"
       y2="42.528137"
       xlink:href="#a"
       gradientTransform="scale(1.0486104,0.95364304)"
       gradientUnits="userSpaceOnUse" />
    <linearGradient
       id="x"
       x1="13.96339"
       x2="33.650284"
       y1="31.983435"
       y2="22.313351"
       xlink:href="#a"
       gradientTransform="scale(0.94272298,1.060757)"
       gradientUnits="userSpaceOnUse" />
    <linearGradient
       id="t"
       x1="11.233596"
       x2="34.887131"
       y1="27.445454"
       y2="43.855427"
       xlink:href="#a"
       gradientTransform="scale(0.94862028,1.0541626)"
       gradientUnits="userSpaceOnUse" />
    <linearGradient
       id="v"
       x1="14.87496"
       x2="33.66552"
       y1="21.858957"
       y2="45.447792"
       xlink:href="#a"
       gradientTransform="scale(0.98306105,1.0172308)"
       gradientUnits="userSpaceOnUse" />
    <linearGradient
       id="w"
       x1="71.428314"
       x2="44.802273"
       y1="18.474554"
       y2="11.511371"
       xlink:href="#a"
       gradientTransform="scale(0.46094417,2.1694601)"
       gradientUnits="userSpaceOnUse" />
    <linearGradient
       id="u"
       x1="69.022316"
       x2="52.964363"
       y1="14.839154"
       y2="14.058949"
       xlink:href="#a"
       gradientTransform="scale(0.45686021,2.1888534)"
       gradientUnits="userSpaceOnUse" />
  </defs>
  <g
     id="g892"
     transform="matrix(7.6146748,0.04831658,-0.04831658,7.6146748,-25.106862,-21.737368)">
    <path
       id="path30"
       d="m 23.633,23.73 c 4.717,6.6633 13.365,14.698 20.54,18.178 0.76025,-1.5632 1.1306,-2.9166 0.82764,-3.9078 -7.4702,-0.95251 -13.979,-9.1462 -19.409,-15.115 -0.88582,-1.0444 -2.313,-0.53607 -1.9585,0.8445 z"
       style="fill:url(#s)"
       inkscape:connector-curvature="0" />
    <path
       id="path32"
       d="m 24.959,23.597 c -2.7408,4.9064 -8.129,6.5511 -9.5741,11.15 -1.5693,4.9948 0.48219,9.9463 8.2267,6.7864 6.271,4.0721 10.702,-1.4037 9.3349,-7.8776 -0.7422,-3.515 -7.3199,-6.7347 -7.9876,-10.059 z"
       style="fill:url(#z)"
       inkscape:connector-curvature="0" />
    <path
       id="path34"
       d="m 24.706,25.787 c 0.92209,5.0266 0.23524,9.7351 -0.84211,14.316 0.15599,0 6.0527,-5.8105 0.84211,-14.316 z"
       style="fill:url(#aa)"
       inkscape:connector-curvature="0" />
    <g
       id="g40"
       transform="matrix(0.028213,-0.9996,-0.9996,-0.028213,45.73,51.48)">
      <path
         id="path36"
         d="m 27.255,21.83 c -3.4987,1.1169 -8.2682,7.7107 -9.7133,12.31 -1.5693,4.9948 0.48219,9.9463 8.2267,6.7864 5.7039,3.7039 9.9333,-0.87275 9.6534,-6.8465 -0.1949,-4.1597 -3.868,-8.0007 -8.1669,-12.25 z"
         style="fill:url(#t)"
         inkscape:connector-curvature="0" />
      <path
         id="path38"
         d="m 26.863,25.179 c 0.92209,5.0266 0.23524,9.7351 -0.84211,14.316 0.15599,0 6.0527,-5.8105 0.84211,-14.316 z"
         style="fill:url(#u)"
         inkscape:connector-curvature="0" />
    </g>
    <g
       id="g46"
       transform="matrix(-0.99819,0.060081,-0.060081,-0.99819,53.445,45.028)">
      <path
         id="path42"
         d="m 27.256,22.996 c -3.9937,5.1365 -8.2688,6.5444 -9.7138,11.144 -1.5693,4.9948 0.48219,9.9463 8.2267,6.7864 5.9984,3.8773 11.079,-0.71008 9.7918,-6.7969 -0.77412,-3.6616 -4.8642,-5.442 -8.3047,-11.133 z"
         style="fill:url(#v)"
         inkscape:connector-curvature="0" />
      <path
         id="path44"
         d="M 26.99,25.355 C 25.4716,30.2348 25.5888,34.9916 26.10891,39.669 25.95405,39.65029 20.79681,33.1744 26.99,25.355 Z"
         style="fill:url(#w)"
         inkscape:connector-curvature="0" />
    </g>
    <g
       id="g52"
       transform="rotate(-90.006572,26.4824,24.080838)">
      <path
         id="path48"
         d="m 26.948,22.316 c -2.5726,3.3907 -7.9608,7.2248 -9.4058,11.824 -1.5693,4.9948 0.48219,9.9463 8.2267,6.7864 6.1976,4.0244 10.024,-1.8059 8.7567,-8.3785 -0.71108,-3.6886 -4.4486,-7.5224 -7.5775,-10.232 z"
         style="fill:url(#x)"
         inkscape:connector-curvature="0" />
      <path
         id="path50"
         d="m 26.863,25.179 c 0.92209,5.0266 0.23524,9.7351 -0.84211,14.316 0.15599,0 6.0527,-5.8105 0.84211,-14.316 z"
         style="fill:url(#y)"
         inkscape:connector-curvature="0" />
    </g>
    <g
       id="g62"
       style="fill:#ffffff;fill-opacity:0.66500005">
      <path
         id="path54"
         d="m 21.5,5 c -5.7856,2.4194 -4.8315,5.9316 -4.6875,9.3125 0,0 -3.25,-8.25 4.6875,-9.3125 z"
         inkscape:connector-curvature="0"
         style="filter:url(#p)" />
      <path
         id="path56"
         d="m 11.375,15.5 c -4.1299,1.1769 -6.8401,3.4293 -5.5,8.75 -0.13451,0 -4.4428,-7.8125 5.5,-8.75 z"
         inkscape:connector-curvature="0"
         style="filter:url(#q)" />
      <path
         id="path58"
         d="m 16.062,41.188 c -1.1857,-4.7216 1.5887,-9.6115 4,-11 0,0 -6.8125,2.5625 -4,11 z"
         inkscape:connector-curvature="0"
         style="filter:url(#r)" />
      <path
         id="path60"
         d="m 27.75,20.938 c 1.7191,-1.2901 5.3947,-3.8487 11.062,-4.5 -0.55211,-0.82817 -7.2888,-0.05817 -11.062,4.5 z"
         inkscape:connector-curvature="0"
         style="filter:url(#o)" />
    </g>
  </g>
</svg>
