<?xml version="1.0" encoding="UTF-8" standalone="no"?>
<!-- Generator: Adobe Illustrator 19.0.0, SVG Export Plug-In . SVG Version: 6.00 Build 0)  -->

<svg
   xmlns:dc="http://purl.org/dc/elements/1.1/"
   xmlns:cc="http://creativecommons.org/ns#"
   xmlns:rdf="http://www.w3.org/1999/02/22-rdf-syntax-ns#"
   xmlns:svg="http://www.w3.org/2000/svg"
   xmlns="http://www.w3.org/2000/svg"
   xmlns:sodipodi="http://sodipodi.sourceforge.net/DTD/sodipodi-0.dtd"
   xmlns:inkscape="http://www.inkscape.org/namespaces/inkscape"
   version="1.1"
   id="Layer_1"
   x="0px"
   y="0px"
   viewBox="0 0 274.675 274.675"
   xml:space="preserve"
   width="320"
   height="320"
   sodipodi:docname="holiday.svg"
   inkscape:version="0.92.4 (5da689c313, 2019-01-14)"><metadata
   id="metadata37"><rdf:RDF><cc:Work
       rdf:about=""><dc:format>image/svg+xml</dc:format><dc:type
         rdf:resource="http://purl.org/dc/dcmitype/StillImage" /><dc:title></dc:title></cc:Work></rdf:RDF></metadata><defs
   id="defs35">
	
	
	
	
	
	
	
	
	
	
	
	
	
	
</defs><sodipodi:namedview
   pagecolor="#ffffff"
   bordercolor="#666666"
   borderopacity="1"
   objecttolerance="10"
   gridtolerance="10"
   guidetolerance="10"
   inkscape:pageopacity="0"
   inkscape:pageshadow="2"
   inkscape:window-width="1812"
   inkscape:window-height="940"
   id="namedview33"
   showgrid="false"
   inkscape:zoom="2.6074563"
   inkscape:cx="174.73942"
   inkscape:cy="130.83376"
   inkscape:window-x="30"
   inkscape:window-y="0"
   inkscape:window-maximized="1"
   inkscape:current-layer="Layer_1" />
<g
   id="g888"
   transform="matrix(1.0260996,0,0,1.0260996,0,-6.0984126)"><path
     style="fill:#cccccc;stroke-width:0.79840982"
     d="m 174.3727,201.8557 h -21.37343 l -4.95014,-13.38933 c -0.87027,-2.34732 -3.10581,-3.91221 -5.61282,-3.91221 h -35.92844 c -2.50701,0 -4.75054,1.56489 -5.62081,3.91221 L 95.936921,201.8557 H 87.218285 L 69.046478,176.65789 c -1.932152,-2.67467 -5.676694,-3.28146 -8.359351,-1.34931 -2.682655,1.93215 -3.289447,5.67669 -1.357295,8.35935 l 19.960244,27.68087 c 1.125758,1.5569 2.938148,2.48305 4.862316,2.48305 h 7.361338 l -1.357297,3.68067 -2.842338,7.6807 c -1.141726,3.10582 0.439125,6.54696 3.544939,7.69667 3.105814,1.14173 6.546961,-0.43912 7.688687,-3.54494 l 4.375289,-11.83243 1.35729,-3.68067 h 40.37559 l 1.3573,3.68067 4.37528,11.83243 c 0.89422,2.41919 3.18566,3.91221 5.62081,3.91221 0.68663,0 1.38923,-0.1197 2.07586,-0.36727 3.09783,-1.14971 4.68667,-4.59085 3.53696,-7.69667 l -2.84234,-7.6807 -1.3573,-3.68067 h 16.95024 c 3.30542,0 5.98808,-2.68266 5.98808,-5.98807 0,-3.30542 -2.68266,-5.98808 -5.98808,-5.98808 z m -65.66122,0 1.96408,-5.32539 h 27.58507 l 1.97207,5.32539 z"
     id="path6"
     inkscape:connector-curvature="0" /><polygon
     transform="matrix(0.79840979,0,0,0.79840979,0,-75.911062)"
     style="fill:#b3b3b3"
     points="114.62,362.9 112.92,367.51 128.91,367.51 130.61,362.9 "
     id="polygon8" /><polygon
     transform="matrix(0.79840979,0,0,0.79840979,0,-75.911062)"
     style="fill:#b3b3b3"
     points="197.17,362.9 198.87,367.51 182.88,367.51 181.18,362.9 "
     id="polygon10" /><path
     inkscape:connector-curvature="0"
     id="path882"
     d="m 174.3727,201.8557 h -21.37343 l -4.95014,-13.38933 c -0.87027,-2.34732 -3.10581,-3.91221 -5.61282,-3.91221 h -35.92844 c -2.50701,0 -4.75054,1.56489 -5.62081,3.91221 L 95.936921,201.8557 H 87.218285 L 69.046478,176.65789 c -1.932152,-2.67467 -5.676694,-3.28146 -8.359351,-1.34931 -2.682655,1.93215 -3.289447,5.67669 -1.357295,8.35935 l 19.960244,27.68087 c 1.125758,1.5569 2.938148,2.48305 4.862316,2.48305 h 7.361338 l -1.357297,3.68067 -2.842338,7.6807 c -1.141726,3.10582 0.439125,6.54696 3.544939,7.69667 3.105814,1.14173 6.546961,-0.43912 7.688687,-3.54494 l 4.375289,-11.83243 1.35729,-3.68067 h 40.37559 l 1.3573,3.68067 4.37528,11.83243 c 0.89422,2.41919 3.18566,3.91221 5.62081,3.91221 0.68663,0 1.38923,-0.1197 2.07586,-0.36727 3.09783,-1.14971 4.68667,-4.59085 3.53696,-7.69667 l -2.84234,-7.6807 -1.3573,-3.68067 h 16.95024 c 3.30542,0 5.98808,-2.68266 5.98808,-5.98807 0,-3.30542 -2.68266,-5.98808 -5.98808,-5.98808 z m -65.66122,0 1.96408,-5.32539 h 27.58507 l 1.97207,5.32539 z"
     style="fill:none;stroke:#000000;stroke-width:0.79840982;stroke-opacity:1" /></g><g
   id="g894"
   transform="matrix(1.0260996,0,0,1.0260996,0,-6.0984126)"><path
     style="fill:#ffd039;stroke-width:0.79840982"
     d="M 89.533674,42.988123 C 52.208016,30.860278 12.119861,51.291585 0,88.609256 l 37.884544,12.311484 37.756799,3.61679 21.636906,15.67279 v 0.008 l 37.884551,12.3035 C 147.28266,95.195818 126.85933,55.115649 89.533674,42.987804 Z"
     id="path2"
     inkscape:connector-curvature="0" /><path
     style="fill:#3b9dff;stroke-width:0.79840982"
     d="m 99.881064,25.359234 -9.317442,28.662913 c -0.502998,1.564883 -1.820374,2.642736 -3.329368,2.946132 L 89.35004,57.646927 88.344043,60.760726 67.848863,124.13849 33.27772,231.0296 24.918369,228.32299 59.489514,121.4239 80.990689,54.948302 83.170348,55.650903 C 82.890904,55.347507 82.651381,55.004191 82.467747,54.628938 81.964749,53.63891 81.837003,52.449279 82.212256,51.307553 l 9.309458,-28.662911 c 0.750505,-2.307404 3.23356,-3.568892 5.53298,-2.818386 2.307405,0.750505 3.568886,3.225575 2.82637,5.532978 z"
     id="path4"
     inkscape:connector-curvature="0" /><path
     style="fill:#1e79c4;stroke-width:0.79840982"
     d="m 88.344043,60.760726 -20.49518,63.377764 -8.359349,-2.71459 21.501175,-66.475598 2.179659,0.702601 c -0.279444,-0.303396 -0.518967,-0.646712 -0.702601,-1.021965 2.283452,1.405201 4.239556,3.489051 5.876296,6.131788 z"
     id="path18"
     inkscape:connector-curvature="0" /><path
     style="fill:#ed2e2e;stroke-width:0.79840982"
     d="m 89.533674,42.988123 c 16.399336,5.325394 19.864436,39.896535 7.744575,77.222197 L 37.884544,100.92074 C 50.012389,63.59508 73.134336,37.66273 89.533674,42.988123 Z"
     id="path20"
     inkscape:connector-curvature="0" /></g><g
   id="g900"><path
     style="fill:#ffd039;stroke-width:0.79840982"
     d="m 214.56464,240.6664 -9.83641,8.29548 H 0 c 0,-3.24154 0.67864832,-6.31542 1.9002154,-9.10187 1.1417259,-2.62677 2.7704819,-4.99006 4.7665063,-6.98609 4.1118103,-4.11979 9.8044723,-6.66672 16.0879563,-6.66672 H 204.72823 l 9.28551,13.65281 z"
     id="path12"
     inkscape:connector-curvature="0" /><path
     style="fill:#eab932;stroke-width:0.79840982"
     d="m 214.56464,240.6664 -9.83641,8.29548 H 0 c 0,-3.24154 0.67864832,-6.31542 1.9002154,-9.10187 H 214.01374 Z"
     id="path14"
     inkscape:connector-curvature="0" /><path
     style="fill:#3b9dff;stroke-width:0.79840982"
     d="m 350.88513,248.78943 v 0.17245 H 204.72823 V 226.2072 c 4.05592,1.99603 8.11983,3.99205 16.23966,3.99205 16.23965,0 16.23965,-7.9841 32.47931,-7.9841 16.23167,0 16.23167,7.9841 32.47133,7.9841 16.23965,0 16.23965,-7.9841 32.48729,-7.9841 9.6424,0 13.5594,2.81439 18.55025,5.10184 8.43521,3.8651 13.92906,12.19411 13.92906,21.47244 z"
     id="path22"
     inkscape:connector-curvature="0" /><rect
     x="204.72824"
     y="239.86002"
     style="fill:#1e79c4;stroke-width:0.79840982"
     width="146.15689"
     height="9.1018715"
     id="rect24" /></g>















</svg>