<?xml version="1.0" encoding="UTF-8" standalone="no"?>
<!-- Generator: Adobe Illustrator 18.0.0, SVG Export Plug-In . SVG Version: 6.00 Build 0)  -->

<svg
   xmlns:dc="http://purl.org/dc/elements/1.1/"
   xmlns:cc="http://creativecommons.org/ns#"
   xmlns:rdf="http://www.w3.org/1999/02/22-rdf-syntax-ns#"
   xmlns:svg="http://www.w3.org/2000/svg"
   xmlns="http://www.w3.org/2000/svg"
   xmlns:sodipodi="http://sodipodi.sourceforge.net/DTD/sodipodi-0.dtd"
   xmlns:inkscape="http://www.inkscape.org/namespaces/inkscape"
   version="1.1"
   id="Capa_1"
   x="0px"
   y="0px"
   viewBox="0 0 320.00001 320.00001"
   xml:space="preserve"
   sodipodi:docname="marriage.svg"
   width="320"
   height="320"
   inkscape:version="0.92.4 (5da689c313, 2019-01-14)"><metadata
   id="metadata171"><rdf:RDF><cc:Work
       rdf:about=""><dc:format>image/svg+xml</dc:format><dc:type
         rdf:resource="http://purl.org/dc/dcmitype/StillImage" /><dc:title /></cc:Work></rdf:RDF></metadata><defs
   id="defs169">















	

		
			
		
			
		
		
		
		
		
		
		
		
		
		
		
		
		
		
		
		
		
		
		
		
		
		
		
		
		
		
		
		
		
		
		
		
		
		
		
		
		
		
		
		
	
			
			
		
			
			
		
			
			
			
			
			
			
			
				
			
				
			
		</defs><sodipodi:namedview
   pagecolor="#ffffff"
   bordercolor="#666666"
   borderopacity="1"
   objecttolerance="10"
   gridtolerance="10"
   guidetolerance="10"
   inkscape:pageopacity="0"
   inkscape:pageshadow="2"
   inkscape:window-width="1812"
   inkscape:window-height="940"
   id="namedview167"
   showgrid="false"
   inkscape:zoom="8"
   inkscape:cx="130.0431"
   inkscape:cy="226.3294"
   inkscape:window-x="30"
   inkscape:window-y="0"
   inkscape:window-maximized="1"
   inkscape:current-layer="Capa_1" />















<rect
   style="opacity:1;fill:#eba2ff;fill-opacity:1;stroke:#ff46ff;stroke-width:0.34799999;stroke-linecap:round;stroke-miterlimit:22.92560005;stroke-dasharray:none;stroke-opacity:1;paint-order:stroke fill markers"
   id="rect1291"
   width="320"
   height="320"
   x="0.17401123"
   y="-0.17399999"
   rx="32"
   ry="32" /><path
   inkscape:connector-curvature="0"
   style="clip-rule:evenodd;fill:#1a1a1a;fill-rule:evenodd;stroke-width:1.40591335"
   d="m 201.96608,122.96318 c -6.35473,16.53494 -21.46971,38.00465 -44.10492,53.02965 l 3.5654,5.13158 c 19.25821,-9.38026 37.16391,-24.3462 45.51926,-35.79596 4.29928,-5.89078 0.92228,-19.4944 -4.97974,-22.36527 z"
   id="path6" /><path
   inkscape:connector-curvature="0"
   style="clip-rule:evenodd;fill:#1a1a1a;fill-rule:evenodd;stroke-width:1.40591335"
   d="m 242.8191,130.29923 c 16.98485,5.02896 44.36361,23.98208 61.12912,45.3604 l 4.83354,-3.95905 c -10.87053,-18.45683 -31.98594,-40.70682 -44.05993,-48.13145 -6.21132,-3.82128 -19.50564,0.62 -21.90273,6.7301 z"
   id="path8" /><g
   id="g14"
   transform="matrix(1.4059135,0,0,1.4059135,2.4992891,12.88859)">
			<path
   inkscape:connector-curvature="0"
   style="clip-rule:evenodd;fill:#323232;fill-rule:evenodd"
   d="m 166.575,200.157 c -1.122,-24.092 -2.243,-48.186 -3.365,-72.278 5.189,0 10.38,0 15.568,0 -1.082,24.092 -2.165,48.186 -3.247,72.278 -2.986,0 -5.971,0 -8.956,0 z"
   id="path10" />
			<path
   inkscape:connector-curvature="0"
   style="clip-rule:evenodd;fill:#323232;fill-rule:evenodd"
   d="m 151.979,200.157 c -1.122,-24.092 -2.242,-48.186 -3.365,-72.278 5.189,0 10.38,0 15.569,0 -1.082,24.092 -2.166,48.186 -3.248,72.278 -2.984,0 -5.971,0 -8.956,0 z"
   id="path12" />
		</g><rect
   x="209.58752"
   y="193.95618"
   style="clip-rule:evenodd;fill:#1a1a1a;fill-rule:evenodd;stroke-width:1.40591335"
   width="45.829964"
   height="4.7505817"
   id="rect16" /><path
   inkscape:connector-curvature="0"
   style="clip-rule:evenodd;fill:#323232;fill-rule:evenodd;stroke-width:1.40591335"
   d="m 255.4175,196.20002 7.97012,-73.43226 -17.88744,-7.81548 h -25.71696 c -5.96249,2.60516 -14.25596,4.74496 -17.88744,7.81548 l 7.69175,73.43226 z"
   id="path18" /><path
   style="clip-rule:evenodd;fill:#1a1a1a;fill-rule:evenodd;stroke-width:1.40591347"
   d="M 219.7832 114.95312 L 207.7207 128.48438 L 221.66992 140.44141 L 211.70508 146.91797 L 232.63281 176.81445 L 219.7832 114.95312 z M 232.63281 176.81445 L 253.56055 146.91797 L 243.5957 140.44141 L 257.54688 128.48438 L 245.5 114.95312 L 232.63281 176.81445 z "
   id="polygon22" /><polygon
   style="clip-rule:evenodd;fill:#1a1a1a;fill-rule:evenodd"
   points="162.569,130.386 165.049,130.386 165.049,114.655 163.69,115.945 162.569,114.882 "
   id="polygon28"
   transform="matrix(1.4059135,0,0,1.4059135,2.4992891,12.88859)" /><g
   id="g1001"><path
     style="clip-rule:evenodd;fill:#c79369;fill-rule:evenodd;stroke-width:1.40591335"
     d="m 224.62376,107.84311 h 16.355 v 11.08088 h -16.355 z"
     id="rect30"
     inkscape:connector-curvature="0"
     sodipodi:nodetypes="ccccc" /><path
     inkscape:connector-curvature="0"
     id="polygon20"
     d="m 240.20703,108.89062 -7.40625,6.0625 -7.8789,-5.57031 -5.13868,5.57031 12.84961,61.86133 10.53321,-50.64257 0.0469,0.0508 2.28711,-11.26954 z"
     style="clip-rule:evenodd;fill:#f3f3f3;fill-opacity:1;fill-rule:evenodd;stroke-width:1.40591347" /><path
     sodipodi:nodetypes="ccccccccccc"
     inkscape:connector-curvature="0"
     id="polygon38"
     d="m 232.80078,114.95312 -10.67187,11.26954 6.17968,-3.26368 2.58203,7.25 -4.68164,15.67579 6.42383,30.92968 6.4336,-30.92968 -4.52539,-15.32618 2.63671,-7.60156 6.03516,3.26563 z"
     style="clip-rule:evenodd;fill:#323232;fill-rule:evenodd;stroke-width:1.40591347" /></g><path
   inkscape:connector-curvature="0"
   style="clip-rule:evenodd;fill:#1a1a1a;fill-rule:evenodd;stroke-width:1.40591335"
   d="m 216.2614,300.56801 c 6.88336,0 12.49857,-2.81886 12.49857,-6.27741 0,-3.45854 -5.6138,-6.27739 -12.49857,-6.27739 -6.88335,0 -12.49857,2.81885 -12.49857,6.27739 9.8e-4,3.45855 5.61663,6.27741 12.49857,6.27741 z"
   id="path42" /><path
   inkscape:connector-curvature="0"
   style="clip-rule:evenodd;fill:#1a1a1a;fill-rule:evenodd;stroke-width:1.40591335"
   d="m 249.18649,300.56801 c 6.88335,0 12.49857,-2.81886 12.49857,-6.27741 0,-3.45854 -5.61381,-6.27739 -12.49857,-6.27739 -6.88476,0 -12.49857,2.81885 -12.49857,6.27739 9.8e-4,3.45855 5.61521,6.27741 12.49857,6.27741 z"
   id="path44" /><path
   inkscape:connector-curvature="0"
   style="clip-rule:evenodd;fill:#e7b791;fill-rule:evenodd;stroke-width:1.40591335"
   d="m 314.67394,171.91568 c 1.71802,1.51558 1.4973,2.79215 0.0675,3.55555 2.81042,1.90361 3.3517,5.45776 2.17354,6.79338 -2.29444,2.59953 -7.0155,2.17916 -10.54716,-0.93634 -3.53306,-3.11691 -4.53547,-7.7508 -2.24243,-10.34893 2.29305,-2.60094 7.01691,-2.18197 10.54857,0.93634 z"
   id="path46" /><path
   inkscape:connector-curvature="0"
   style="clip-rule:evenodd;fill:#e7b791;fill-rule:evenodd;stroke-width:1.40591335"
   d="m 152.01397,176.98259 c -1.71802,1.51558 -1.4973,2.79215 -0.0675,3.55556 -2.80902,1.90361 -3.3517,5.45776 -2.17214,6.79337 2.29304,2.59953 7.01551,2.17916 10.54717,-0.93775 3.53164,-3.11691 4.53406,-7.75079 2.24102,-10.34892 -2.29585,-2.59954 -7.01832,-2.18057 -10.54857,0.93774 z"
   id="path48" /><path
   inkscape:connector-curvature="0"
   style="clip-rule:evenodd;fill:#d9eced;fill-rule:evenodd;stroke-width:1.40591335"
   d="m 91.66232,49.034626 c 35.07051,0 63.78067,43.154513 66.16369,97.796744 -18.15455,14.30657 -41.14827,22.86297 -66.16369,22.86297 -25.014012,0 -48.007727,-8.55499 -66.163693,-22.86297 C 27.883056,92.189139 56.591809,49.034626 91.66232,49.034626 Z"
   id="path64" /><rect
   x="83.457413"
   y="112.15874"
   style="clip-rule:evenodd;fill:#c79369;fill-rule:evenodd;stroke-width:1.40591335"
   width="16.354992"
   height="23.079477"
   id="rect66" /><path
   inkscape:connector-curvature="0"
   style="clip-rule:evenodd;fill:#e7b791;fill-rule:evenodd;stroke-width:1.40591335"
   d="m 111.04565,131.45911 c 12.50982,13.26761 20.39559,35.14643 41.75141,49.32226 l -3.36294,4.84056 c -18.16862,-8.85023 -35.06348,-22.96982 -42.94504,-33.77145 -4.05465,-5.55477 0.3093,-24.8945 4.55657,-20.39137 z"
   id="path68" /><path
   inkscape:connector-curvature="0"
   style="clip-rule:evenodd;fill:#e7b791;fill-rule:evenodd;stroke-width:1.40591335"
   d="m 91.627172,137.66622 c -16.024601,4.74355 -41.854043,22.62537 -57.671975,42.7946 l -4.560784,-3.73551 c 10.257545,-17.41364 30.176527,-38.40534 41.568643,-45.4096 5.859848,-3.60336 18.402002,0.58767 20.664116,6.35051 z"
   id="path70" /><g
   id="g76"
   transform="matrix(1.4059135,0,0,1.4059135,2.4992891,12.88859)">
			<path
   inkscape:connector-curvature="0"
   style="clip-rule:evenodd;fill:#e7b791;fill-rule:evenodd"
   d="m 60.685,200.409 c 1.059,-22.73 2.116,-45.46 3.175,-68.19 -4.896,0 -9.792,0 -14.688,0 1.021,22.73 2.042,45.46 3.063,68.19 2.816,0 5.633,0 8.45,0 z"
   id="path72" />
			<path
   inkscape:connector-curvature="0"
   style="clip-rule:evenodd;fill:#e7b791;fill-rule:evenodd"
   d="m 74.455,200.409 c 1.059,-22.73 2.116,-45.46 3.175,-68.19 -4.896,0 -9.792,0 -14.688,0 1.021,22.73 2.042,45.46 3.064,68.19 2.815,0 5.632,0 8.449,0 z"
   id="path74" />
		</g><path
   inkscape:connector-curvature="0"
   style="clip-rule:evenodd;fill:#e7b791;fill-rule:evenodd;stroke-width:1.40591335"
   d="m 81.459606,177.45076 -9.377443,-46.69741 11.37384,-4.97131 h 16.354992 c 3.790345,1.94297 8.937385,3.2575 11.372435,5.82751 l -9.25091,45.84121 z"
   id="path78" /><path
   inkscape:connector-curvature="0"
   style="clip-rule:evenodd;fill:#fdfdfd;fill-rule:evenodd;stroke-width:1.40591335;fill-opacity:1"
   d="m 83.416016,138.85156 c -5.345283,0 -9.679688,3.19595 -9.679688,7.13672 0,0.38803 0.04345,0.76946 0.125,1.14063 L 78.25,176.14648 c -28.72841,9.35512 -50.679969,48.15652 -52.751953,95.63868 11.733633,9.2468 25.495527,16.06906 40.509765,19.7539 -1.11734,0.90466 -1.773437,1.96688 -1.773437,3.10547 0,3.26313 5.297101,5.92383 11.791016,5.92383 6.493914,0 11.791015,-2.66211 11.791015,-5.92383 0,-0.0238 -0.0073,-0.0466 -0.0078,-0.0703 1.279434,0.0452 2.562938,0.0742 3.853515,0.0742 1.218867,0 2.431684,-0.0261 3.640625,-0.0664 -4.42e-4,0.021 -0.0059,0.0414 -0.0059,0.0625 0,3.26313 5.297094,5.92383 11.791014,5.92383 6.49532,0 11.79102,-2.66211 11.79102,-5.92383 0,-1.12287 -0.63823,-2.17013 -1.72657,-3.06641 15.07824,-3.67518 28.89849,-10.51257 40.67383,-19.79296 -2.06828,-47.42531 -23.97039,-86.18919 -52.64844,-95.60352 l 4.29883,-29.08984 c 0.0759,-0.3599 0.11524,-0.72814 0.11524,-1.10352 0,-3.94077 -4.33245,-7.13672 -9.677737,-7.13672 -3.488071,0 -6.545485,1.36096 -8.248046,3.40235 -1.703968,-2.03999 -4.760523,-3.40235 -8.25,-3.40235 z"
   id="path80" /><path
   inkscape:connector-curvature="0"
   style="clip-rule:evenodd;fill:#e7b791;fill-rule:evenodd;stroke-width:1.40591335"
   d="m 23.835432,176.92917 c -1.619613,1.42981 -1.412943,2.63467 -0.06327,3.35451 -2.651553,1.79675 -3.1619,5.14985 -2.049822,6.40956 2.163702,2.45191 6.619041,2.05545 9.951056,-0.88433 3.332015,-2.93976 4.278195,-7.31215 2.114494,-9.76406 -2.165107,-2.45192 -6.620447,-2.05545 -9.952462,0.88432 z"
   id="path84" /><path
   inkscape:connector-curvature="0"
   style="clip-rule:evenodd;fill:#e7b791;fill-rule:evenodd;stroke-width:1.40591335"
   d="m 156.97263,180.35257 c 1.62102,1.42981 1.41294,2.63468 0.0633,3.3545 2.65156,1.79536 3.1619,5.14987 2.04982,6.40956 -2.16511,2.45192 -6.62044,2.05686 -9.95105,-0.88431 -3.33202,-2.94118 -4.2782,-7.31216 -2.11309,-9.76407 2.1637,-2.45332 6.61904,-2.05685 9.95106,0.88432 z"
   id="path86" /><path
   id="path92"
   d="m 91.663729,93.835466 c 12.016341,0 21.816961,-9.702209 21.816961,-21.597644 0,-11.89684 -9.80062,-21.599049 -21.816961,-21.599049 -12.016343,0 -21.816966,9.702209 -21.816966,21.599049 0,11.895435 9.800623,21.597644 21.816966,21.597644 z"
   style="clip-rule:evenodd;fill:#5e3a1d;fill-rule:evenodd;stroke-width:1.40591347"
   inkscape:connector-curvature="0" /><path
   id="path94"
   d="m 91.663729,93.835466 c 13.582531,0 24.659721,-7.568033 24.659721,-16.84425 0,-9.277623 -11.07719,-16.845656 -24.659721,-16.845656 -13.581124,0 -24.659723,7.568033 -24.659723,16.845656 0,9.276217 11.078599,16.84425 24.659723,16.84425 z"
   style="clip-rule:evenodd;fill:#fefefe;fill-rule:evenodd;stroke-width:1.40591347;fill-opacity:1"
   inkscape:connector-curvature="0" /><path
   id="path96"
   d="m 91.663729,93.835466 c 15.106541,0 27.426561,-6.872106 27.426561,-15.296339 0,-8.42564 -12.32143,-15.296339 -27.426561,-15.296339 -15.105134,0 -27.42656,6.870699 -27.42656,15.296339 0,8.424233 12.321426,15.296339 27.42656,15.296339 z"
   style="clip-rule:evenodd;fill:#5e3a1d;fill-rule:evenodd;stroke-width:1.40591347"
   inkscape:connector-curvature="0" /><path
   id="path98"
   d="m 91.485178,122.71012 c 17.083252,0 31.017262,-12.35095 31.017262,-27.492641 0,-15.141689 -13.93401,-27.492639 -31.017262,-27.492639 -17.084661,0 -31.018669,12.35095 -31.018669,27.492639 0,15.141691 13.934008,27.492641 31.018669,27.492641 z"
   style="clip-rule:evenodd;fill:#e7b791;fill-rule:evenodd;stroke-width:1.40591347"
   inkscape:connector-curvature="0" /><g
   transform="matrix(1.4059135,0,0,1.4059135,2.4992891,12.88859)"
   id="g104">
				<path
   id="path100"
   d="m 71.006,60.464 c 0.776,0 1.41,-1.108 1.41,-2.467 0,-1.359 -0.633,-2.467 -1.41,-2.467 -0.776,0 -1.41,1.108 -1.41,2.467 10e-4,1.359 0.634,2.467 1.41,2.467 z"
   style="clip-rule:evenodd;fill:#323232;fill-rule:evenodd"
   inkscape:connector-curvature="0" />
				<path
   id="path102"
   d="m 55.582,60.464 c 0.776,0 1.41,-1.108 1.41,-2.467 0,-1.359 -0.633,-2.467 -1.41,-2.467 -0.776,0 -1.41,1.108 -1.41,2.467 0,1.359 0.634,2.467 1.41,2.467 z"
   style="clip-rule:evenodd;fill:#323232;fill-rule:evenodd"
   inkscape:connector-curvature="0" />
			</g><path
   id="path106"
   d="m 103.96125,105.5889 c -5.438069,1.05303 -18.749258,0.96024 -24.952148,0 6.403936,7.69316 19.841657,7.96169 24.952148,0 z"
   style="clip-rule:evenodd;fill:#c79369;fill-rule:evenodd;stroke-width:1.40591347"
   inkscape:connector-curvature="0" /><ellipse
   id="ellipse108"
   ry="5.183619"
   rx="8.0994921"
   cy="36.929668"
   cx="-106.29382"
   style="clip-rule:evenodd;fill:#e7b791;fill-rule:evenodd;stroke-width:1.40591776"
   transform="rotate(-103.044)" /><ellipse
   id="ellipse110"
   ry="5.183619"
   rx="8.0994921"
   cy="141.15437"
   cx="-65.420502"
   style="clip-rule:evenodd;fill:#e7b791;fill-rule:evenodd;stroke-width:1.40591776"
   transform="rotate(-76.955996)" /><g
   transform="matrix(1.4059135,0,0,1.4059135,2.4992891,12.88859)"
   id="g116">
				<path
   id="path112"
   d="M 68.244,38.166 C 78.919,44.509 82.883,60.683 89.333,58.728 88.694,45.82 77.188,36.306 68.244,38.166 Z"
   style="clip-rule:evenodd;fill:#5e3a1d;fill-rule:evenodd"
   inkscape:connector-curvature="0" />
				<path
   id="path114"
   d="M 79.615,40.967 C 62.055,40.012 51.184,63.864 37.027,57.946 38.405,38.729 60.313,30.277 79.615,40.967 Z"
   style="clip-rule:evenodd;fill:#5e3a1d;fill-rule:evenodd"
   inkscape:connector-curvature="0" />
			</g><path
   style="color:#000000;font-style:normal;font-variant:normal;font-weight:normal;font-stretch:normal;font-size:medium;line-height:normal;font-family:sans-serif;font-variant-ligatures:normal;font-variant-position:normal;font-variant-caps:normal;font-variant-numeric:normal;font-variant-alternates:normal;font-feature-settings:normal;text-indent:0;text-align:start;text-decoration:none;text-decoration-line:none;text-decoration-style:solid;text-decoration-color:#000000;letter-spacing:normal;word-spacing:normal;text-transform:none;writing-mode:lr-tb;direction:ltr;text-orientation:mixed;dominant-baseline:auto;baseline-shift:baseline;text-anchor:start;white-space:normal;shape-padding:0;clip-rule:evenodd;display:inline;overflow:visible;visibility:visible;opacity:1;isolation:auto;mix-blend-mode:normal;color-interpolation:sRGB;color-interpolation-filters:linearRGB;solid-color:#000000;solid-opacity:1;vector-effect:none;fill:#ffffff;fill-opacity:1;fill-rule:evenodd;stroke:none;stroke-width:0.34799999;stroke-linecap:butt;stroke-linejoin:miter;stroke-miterlimit:22.92560005;stroke-dasharray:none;stroke-dashoffset:0;stroke-opacity:1;color-rendering:auto;image-rendering:auto;shape-rendering:auto;text-rendering:auto;enable-background:accumulate"
   d="m 21.740839,154.40961 c -1.496182,0.0123 -2.995954,0.52604 -4.231664,1.56308 -0.842142,0.70717 -1.467059,1.57733 -1.864932,2.52632 -0.373973,-0.13779 -0.762637,-0.24557 -1.168947,-0.31723 -3.631474,-0.63969 -7.0935634,1.78452 -7.7346597,5.41599 -0.1897984,1.08256 -0.1070545,2.15112 0.1980287,3.13385 -0.3753788,0.13356 -0.7440368,0.30423 -1.0997329,0.5095 -3.1928294,1.84455 -4.2867898,5.92662 -2.4436373,9.12085 0.5511181,0.95322 1.2988162,1.71772 2.1648589,2.27445 -0.1996397,0.34164 -0.3732623,0.70735 -0.5152595,1.09397 -1.2611044,3.46418 0.5271677,7.29695 3.9913384,8.55946 0.3634365,0.13202 0.7297381,0.218 1.0978104,0.28455 -2.2637509,7.25314 -2.7069117,15.88665 -1.3823567,25.15158 l 6.6810697,-0.95554 c -1.022195,-7.14998 -0.80386,-13.70749 0.415284,-19.22994 0.792916,0.38108 1.659511,0.60972 2.551303,0.65561 1.525123,7.01254 4.975771,14.32317 10.043715,21.41403 l 5.490975,-3.92405 c -4.567706,-6.39094 -7.522627,-12.84078 -8.85362,-18.69161 3.117815,1.4983 6.908454,0.36789 8.667127,-2.67628 0.549712,-0.95321 0.837113,-1.98641 0.886322,-3.01273 0.397873,10e-4 0.802496,-0.0302 1.2074,-0.10189 3.631474,-0.6411 6.05376,-4.10318 5.41407,-7.73466 -0.191205,-1.08396 -0.632645,-2.05658 -1.255465,-2.87623 0.305084,-0.25306 0.593173,-0.53731 0.857484,-0.85364 2.370371,-2.82448 2.002119,-7.03555 -0.820955,-9.40733 -0.842141,-0.70718 -1.808439,-1.16998 -2.810855,-1.39774 0.0717,-0.39084 0.109589,-0.79354 0.109589,-1.20547 0,-3.68631 -2.989514,-6.67531 -6.677225,-6.67531 -1.099424,0 -2.135933,0.26538 -3.051183,0.73637 -0.196828,-0.34586 -0.427827,-0.67907 -0.692139,-0.994 -1.333333,-1.58877 -3.25008,-2.40175 -5.173744,-2.38596 z"
   id="path120"
   inkscape:connector-curvature="0" /><g
   id="g976"><ellipse
     id="ellipse2"
     ry="5.1822128"
     rx="8.0994921"
     cy="282.37057"
     cx="-16.916811"
     style="clip-rule:evenodd;fill:#e7b791;fill-rule:evenodd;stroke-width:1.40591776"
     transform="rotate(-76.955996)" /><ellipse
     id="ellipse4"
     ry="5.1822128"
     rx="8.0994921"
     cy="173.21147"
     cx="-118.97099"
     style="clip-rule:evenodd;fill:#e7b791;fill-rule:evenodd;stroke-width:1.40591776"
     transform="rotate(-103.044)" /><path
     id="path50"
     d="m 232.80056,111.12399 c 20.82299,0 37.80642,-13.090469 37.80642,-29.141783 0,-16.049908 -16.98343,-29.140368 -37.80642,-29.140368 -20.82297,0 -37.80501,13.091866 -37.80501,29.140368 0,16.051314 16.98344,29.141783 37.80501,29.141783 z"
     style="clip-rule:evenodd;fill:#e7b791;fill-rule:evenodd;stroke-width:1.40591335"
     inkscape:connector-curvature="0" /><g
     transform="matrix(1.4059135,0,0,1.4059135,2.4992891,12.88859)"
     id="g56">
			<path
   id="path52"
   d="m 155.634,49.758 c 0.823,0 1.494,-1.175 1.494,-2.615 0,-1.44 -0.671,-2.615 -1.494,-2.615 -0.823,0 -1.494,1.175 -1.494,2.615 0,1.44 0.671,2.615 1.494,2.615 z"
   style="clip-rule:evenodd;fill:#323232;fill-rule:evenodd"
   inkscape:connector-curvature="0" />
			<path
   id="path54"
   d="m 171.983,49.758 c 0.823,0 1.494,-1.175 1.494,-2.615 0,-1.44 -0.671,-2.615 -1.494,-2.615 -0.822,0 -1.494,1.175 -1.494,2.615 0,1.44 0.672,2.615 1.494,2.615 z"
   style="clip-rule:evenodd;fill:#323232;fill-rule:evenodd"
   inkscape:connector-curvature="0" />
		</g><path
     id="path58"
     d="m 261.64288,54.926808 c -18.73801,-0.773252 -48.88923,28.943541 -68.06026,21.163216 3.60898,-23.052763 27.30986,-35.99279 47.46363,-32.638281 7.43728,1.238609 14.23066,3.596326 20.59663,11.475065 z"
     style="clip-rule:evenodd;fill:#5e3a1d;fill-rule:evenodd;stroke-width:1.40591335"
     inkscape:connector-curvature="0" /><path
     id="path60"
     d="m 247.44035,47.048069 c -3.76644,15.900881 11.78999,33.522601 23.82742,33.164093 1.94859,-13.115766 -9.91591,-30.765604 -23.82742,-33.164093 z"
     style="clip-rule:evenodd;fill:#5e3a1d;fill-rule:evenodd;stroke-width:1.40591335"
     inkscape:connector-curvature="0" /><path
     id="path62"
     d="m 245.27665,92.813364 c -5.43808,1.053029 -18.75068,0.960239 -24.95216,0 6.40535,7.693156 19.84166,7.961686 24.95216,0 z"
     style="clip-rule:evenodd;fill:#c79369;fill-rule:evenodd;stroke-width:1.40591335"
     inkscape:connector-curvature="0" /><path
     id="path128"
     d="m 261.64288,55.600241 c -26.40024,-6.018716 -61.94876,27.631823 -72.35533,-2.740125 13.10029,4.931944 14.54557,0.05483 26.95135,-6.552963 12.51264,-6.665436 31.24784,-8.230217 45.40398,9.293088 z"
     style="clip-rule:evenodd;fill:#5e3a1d;fill-rule:evenodd;stroke-width:1.40591335"
     inkscape:connector-curvature="0" /><path
     id="path130"
     d="m 264.94678,62.157421 c -23.87663,-12.771318 -67.04379,10.305346 -69.06831,-21.735422 11.33588,8.214752 14.01555,3.891568 27.72743,0.791529 13.82715,-3.128157 32.3121,0.305084 41.34088,20.943893 z"
     style="clip-rule:evenodd;fill:#5e3a1d;fill-rule:evenodd;stroke-width:1.40591335"
     inkscape:connector-curvature="0" /></g>
</svg>